<?xml version="1.0" encoding="UTF-8" standalone="no"?>
<svg
   xmlns:dc="http://purl.org/dc/elements/1.1/"
   xmlns:cc="http://creativecommons.org/ns#"
   xmlns:rdf="http://www.w3.org/1999/02/22-rdf-syntax-ns#"
   xmlns:svg="http://www.w3.org/2000/svg"
   xmlns="http://www.w3.org/2000/svg"
   viewBox="0 0 774.77332 534.85333"
   height="534.85333"
   width="774.77332"
   xml:space="preserve"
   id="svg2"
   version="1.1"><metadata
     id="metadata8"><rdf:RDF><cc:Work
         rdf:about=""><dc:format>image/svg+xml</dc:format><dc:type
           rdf:resource="http://purl.org/dc/dcmitype/StillImage" /></cc:Work></rdf:RDF></metadata><defs
     id="defs6" /><g
     transform="matrix(1.3333333,0,0,-1.3333333,0,534.85333)"
     id="g10"><g
       transform="scale(0.1)"
       id="g12"><path
         id="path14"
         style="fill:#db1f26;fill-opacity:1;fill-rule:nonzero;stroke:none"
         d="m 3071.23,31.4297 c 50.15,19.4219 344.16,127.6723 935.43,178.1753 635.95,54.032 1282.92,-167.5152 1282.92,-167.5152 l 19.1,125.5312 c 0,0 -716.99,432.567 -1319.24,340.266 C 3387.22,415.875 2989.18,153.871 2989.18,153.871 l -0.9,-27.445 C 2943.44,159.527 2573.97,421.742 2010.13,507.887 1407.91,600.188 666.008,161.262 666.008,161.262 L 685.102,35.7305 c 0,0 671.878,227.9065 1307.838,173.8745 C 2582.78,159.223 2934.14,19.957 2982.04,0 l 89.19,31.4297" /><path
         id="path16"
         style="fill:#ffffff;fill-opacity:1;fill-rule:nonzero;stroke:none"
         d="m 4543.34,1881.77 c 0,0 -383.13,124.69 -756.67,128.9 -420.56,4.74 -803.15,-165.76 -803.15,-165.76 V 112.23 c 0,0 417.12,128.868 1019.37,221.172 602.22,92.043 1297.36,-166.011 1297.36,-166.011 l 23.67,167.785 -780.58,1546.594" /><path
         id="path18"
         style="fill:#b0a39a;fill-opacity:1;fill-rule:nonzero;stroke:none"
         d="m 2983.52,102.113 c -2.13,0 -4.24,0.688 -6,1.985 -2.59,1.906 -4.11,4.922 -4.11,8.132 v 1732.69 c 0,3.99 2.35,7.62 6,9.24 3.79,1.68 389.34,171.47 807.38,166.63 370.8,-4.18 755.84,-128.15 759.69,-129.4 2.56,-0.84 4.68,-2.66 5.9,-5.07 L 5332.95,339.73 c 0.93,-1.843 1.26,-3.925 0.98,-5.972 l -23.66,-167.785 c -0.43,-3.028 -2.21,-5.703 -4.84,-7.278 -2.63,-1.562 -5.84,-1.855 -8.7,-0.789 -4.98,1.856 -504.98,185.227 -1016.76,185.227 -97.21,0 -189.92,-6.645 -275.56,-19.731 -594.62,-91.132 -1013.74,-219.55 -1017.9,-220.839 -0.98,-0.301 -1.99,-0.45 -2.99,-0.45 z m 10.12,1736.147 V 125.824 c 75.54,22.356 470.27,135.207 1007.72,217.578 86.64,13.243 180.39,19.953 278.61,19.953 471.65,0 933.05,-154.542 1012,-182.265 l 21.49,152.351 -777.23,1539.969 c -41.73,13.13 -402.21,123.23 -749.68,127.15 -385.14,4.25 -742.61,-140.98 -792.91,-162.3" /><path
         id="path20"
         style="fill:#ffffff;fill-opacity:1;fill-rule:nonzero;stroke:none"
         d="m 2983.52,112.23 c 0,0 417.12,128.872 1019.37,221.172 602.22,92.043 1297.36,-166.011 1297.36,-166.011 l 23.67,167.785 c 0,0 -599.79,239.683 -1348.28,119.129 C 3265.69,339.957 2983.52,112.23 2983.52,112.23" /><path
         id="path22"
         style="fill:#b0a39a;fill-opacity:1;fill-rule:nonzero;stroke:none"
         d="m 2983.52,102.113 c -3.65,0 -7.13,1.992 -8.92,5.364 -2.28,4.285 -1.21,9.578 2.57,12.625 2.92,2.363 73.39,58.574 232.04,129.523 145.9,65.223 397,155.422 764.81,214.668 140.21,22.578 285.27,34.031 431.17,34.031 531.52,0 918.63,-152.226 922.47,-153.758 4.33,-1.726 6.92,-6.191 6.27,-10.808 l -23.66,-167.785 c -0.43,-3.028 -2.21,-5.703 -4.84,-7.278 -2.63,-1.562 -5.84,-1.855 -8.7,-0.789 -4.98,1.856 -504.98,185.227 -1016.76,185.227 -97.21,0 -189.92,-6.645 -275.56,-19.731 -594.62,-91.132 -1013.74,-219.55 -1017.9,-220.839 -0.99,-0.301 -1.99,-0.45 -2.99,-0.45 z M 4405.19,478.09 c -144.82,0 -288.8,-11.367 -427.94,-33.777 -364.99,-58.782 -614.03,-148.098 -758.68,-212.668 -80.87,-36.102 -138.98,-68.688 -176.4,-91.852 137.79,38.719 495.35,132.516 959.19,203.609 86.64,13.243 180.39,19.953 278.61,19.953 471.65,0 933.05,-154.542 1012,-182.265 l 20.8,147.508 c -55.76,20.824 -420.36,149.492 -907.58,149.492" /><path
         id="path24"
         style="fill:#b0a39a;fill-opacity:1;fill-rule:nonzero;stroke:none"
         d="m 2999.05,106.801 c -4.09,0 -7.93,2.492 -9.46,6.535 -1.98,5.223 0.65,11.062 5.87,13.047 7.47,2.824 753.55,282.793 1340.28,282.793 0.07,0 0.05,0 0.12,0 487.4,-0.039 970.63,-176.961 975.46,-178.75 5.23,-1.934 7.91,-7.754 5.97,-13 -1.95,-5.25 -7.77,-7.918 -13,-5.965 -4.79,1.766 -484.74,177.441 -968.43,177.48 -0.04,0 -0.09,0 -0.12,0 -583,0 -1325.68,-278.664 -1333.11,-281.484 -1.18,-0.441 -2.39,-0.656 -3.58,-0.656" /><path
         id="path26"
         style="fill:#b0a39a;fill-opacity:1;fill-rule:nonzero;stroke:none"
         d="m 2999.09,106.773 c -3.63,0 -7.13,1.954 -8.95,5.372 -2.62,4.929 -0.75,11.054 4.19,13.671 5.49,2.918 557.63,292.274 1310.69,326.516 487.25,22.078 998.34,-160.902 1003.44,-162.746 5.26,-1.906 7.97,-7.703 6.07,-12.957 -1.9,-5.254 -7.68,-7.961 -12.96,-6.066 -5.07,1.835 -512.56,183.566 -995.64,161.55 -748.55,-34.031 -1296.66,-321.258 -1302.1,-324.156 -1.52,-0.805 -3.14,-1.184 -4.74,-1.184" /><path
         id="path28"
         style="fill:#ffffff;fill-opacity:1;fill-rule:nonzero;stroke:none"
         d="m 1423.7,1881.77 c 0,0 383.14,124.69 756.68,128.9 420.55,4.74 803.14,-165.76 803.14,-165.76 V 112.23 c 0,0 -417.11,128.868 -1019.36,221.172 C 1361.94,425.445 666.797,167.391 666.797,167.391 L 643.133,335.176 1423.7,1881.77" /><path
         id="path30"
         style="fill:#b0a39a;fill-opacity:1;fill-rule:nonzero;stroke:none"
         d="m 2983.52,102.113 c -1,0 -2,0.149 -2.98,0.45 -4.16,1.289 -423.4,129.73 -1017.91,220.839 -85.63,13.086 -178.34,19.731 -275.56,19.731 -511.77,0 -1011.761,-183.371 -1016.75,-185.227 -2.875,-1.066 -6.07,-0.773 -8.703,0.789 -2.625,1.575 -4.41,4.25 -4.832,7.278 l -23.668,167.785 c -0.289,2.047 0.055,4.129 0.988,5.972 l 780.575,1546.59 c 1.21,2.41 3.33,4.23 5.89,5.07 3.85,1.25 388.89,125.22 759.7,129.4 418.17,4.85 803.57,-164.95 807.37,-166.63 3.65,-1.62 6,-5.25 6,-9.24 V 112.23 c 0,-3.21 -1.53,-6.226 -4.11,-8.132 -1.76,-1.297 -3.87,-1.985 -6.01,-1.985 z M 1687.07,363.355 c 98.23,0 191.97,-6.71 278.62,-19.953 537.45,-82.371 932.19,-195.222 1007.72,-217.578 V 1838.26 c -50.3,21.32 -407.72,166.54 -792.91,162.3 -347.57,-3.92 -707.96,-114.02 -749.68,-127.14 L 653.59,333.441 675.082,181.09 c 78.949,27.723 540.348,182.265 1011.988,182.265" /><path
         id="path32"
         style="fill:#ffffff;fill-opacity:1;fill-rule:nonzero;stroke:none"
         d="m 2983.52,112.23 c 0,0 -417.12,128.872 -1019.36,221.172 C 1361.93,425.445 666.801,167.391 666.801,167.391 l -23.668,167.785 c 0,0 599.787,239.683 1348.277,119.129 709.95,-114.348 992.11,-342.075 992.11,-342.075" /><path
         id="path34"
         style="fill:#b0a39a;fill-opacity:1;fill-rule:nonzero;stroke:none"
         d="m 2983.52,102.113 c -0.99,0 -1.99,0.149 -2.98,0.45 -4.16,1.289 -423.4,129.73 -1017.91,220.839 -85.63,13.086 -178.34,19.731 -275.55,19.731 -511.92,0 -1011.771,-183.371 -1016.76,-185.227 -2.875,-1.066 -6.07,-0.773 -8.703,0.789 -2.625,1.575 -4.41,4.25 -4.832,7.278 l -23.668,167.785 c -0.648,4.617 1.934,9.082 6.258,10.808 3.852,1.532 390.955,153.758 922.485,153.758 145.89,0 290.96,-11.453 431.16,-34.031 367.82,-59.246 618.93,-149.445 764.8,-214.668 149.44,-66.824 220.64,-120.574 230.86,-128.574 3.07,-1.731 5.16,-5.031 5.16,-8.821 0,-5.585 -4.53,-10.117 -10.12,-10.117 -0.06,0 -0.13,0 -0.2,0 z M 1687.08,363.355 c 98.22,0 191.96,-6.71 278.61,-19.953 463.15,-70.984 820.33,-164.605 958.57,-203.445 -111.26,68.406 -403.92,218.906 -934.45,304.356 -139.15,22.41 -283.14,33.777 -427.95,33.777 -487.46,0 -851.852,-128.668 -907.587,-149.492 L 675.082,181.09 c 78.949,27.723 540.348,182.265 1011.998,182.265" /><path
         id="path36"
         style="fill:#b0a39a;fill-opacity:1;fill-rule:nonzero;stroke:none"
         d="m 2968,106.801 c -1.19,0 -2.4,0.215 -3.58,0.656 -7.43,2.82 -750.13,281.484 -1333.1,281.484 -0.08,0 -0.05,0 -0.12,0 -483.82,-0.039 -963.649,-175.714 -968.438,-177.48 -5.266,-1.934 -11.067,0.723 -13,5.965 -1.942,5.246 0.734,11.066 5.968,13 4.825,1.789 488.06,178.711 975.47,178.75 0.03,0 0.08,0 0.12,0 586.72,0 1332.8,-279.969 1340.27,-282.793 5.22,-1.985 7.85,-7.824 5.87,-13.047 -1.53,-4.043 -5.37,-6.535 -9.46,-6.535" /><path
         id="path38"
         style="fill:#b0a39a;fill-opacity:1;fill-rule:nonzero;stroke:none"
         d="m 2967.96,106.773 c -1.59,0 -3.22,0.379 -4.73,1.184 -5.45,2.898 -553.83,290.145 -1302.11,324.156 -483.27,22.016 -990.585,-159.707 -995.647,-161.55 -5.231,-1.887 -11.051,0.812 -12.957,6.066 -1.903,5.254 0.808,11.051 6.062,12.957 5.106,1.844 516.102,184.852 1003.462,162.746 753.05,-34.242 1305.19,-323.598 1310.69,-326.516 4.93,-2.617 6.8,-8.742 4.18,-13.671 -1.82,-3.418 -5.32,-5.372 -8.95,-5.372" /><path
         id="path40"
         style="fill:#ffffff;fill-opacity:1;fill-rule:nonzero;stroke:none"
         d="m 2361.7,2890.61 c 27.59,-2.38 54.51,-2.48 80.71,-0.16 26.23,2.32 43.83,9.14 52.72,20.54 6.31,9.12 6.5,17.9 0.71,26.44 -5.79,8.5 -13.62,15.11 -23.56,19.82 l -47.02,22.09 c -37.93,17.79 -65.78,34.66 -83.47,50.54 -17.74,15.88 -27.91,39.74 -30.49,71.74 -5.03,48.19 12.25,87.97 51.94,119.45 39.72,31.44 83.91,43.3 132.65,35.47 25.97,-3.59 45.11,-12.97 57.4,-28.11 12.26,-15.07 23.88,-37.8 34.85,-68.08 l -105.46,-41.11 c -2.5,20.32 -6.87,35.81 -13.17,46.62 -6.32,10.72 -18.01,13.36 -35.23,7.85 -9.31,-2.66 -15.42,-8.52 -18.37,-17.41 -2.95,-8.92 -2.65,-18.28 0.8,-27.91 3.52,-9.77 9.54,-18.25 17.92,-25.48 8.42,-7.16 18.4,-13.57 30.01,-19 l 95.48,-42.55 c 32.34,-13.72 56.67,-32.7 72.99,-56.99 16.29,-24.26 17.33,-51.98 3.21,-83.08 -8.74,-17.56 -23.82,-32.88 -45.07,-46.04 -21.26,-13.2 -45.21,-24.18 -71.79,-33.11 -26.58,-8.9 -52.74,-16.28 -78.36,-22.08 -25.68,-5.83 -50.95,-11.24 -75.87,-16.06 l -3.53,106.61" /><path
         id="path42"
         style="fill:#684a9f;fill-opacity:1;fill-rule:nonzero;stroke:none"
         d="m 2722.8,2962.45 c -3.04,23.49 -12.06,46.28 -24.96,65.33 -18.04,26.91 -42,48.88 -69.37,65.84 31.33,18.86 45.82,57.67 32.98,93.17 -12.95,35.19 -26.7,64.69 -47.73,90.92 -27.95,34.42 -68.78,50.97 -107,56.03 -23.54,3.72 -47.46,4.13 -70.89,1.01 -44.24,-5.63 -86.03,-24.62 -121.01,-52.58 -57.02,-42.54 -90.18,-116.46 -81.28,-187.44 0.37,-4.96 0.94,-9.08 1.3,-12.25 5.04,-40.1 22.05,-81.43 54.89,-110.7 7.73,-6.77 15.88,-13.19 24.5,-19.26 -2.18,-1.66 -4.23,-3.46 -6.22,-5.29 -16.2,-15.36 -25.02,-36.91 -24.27,-59.17 l 3.53,-106.68 c 0.69,-22.82 11.45,-44.17 29.34,-58.42 16.58,-13.19 37.76,-19.02 58.75,-16.24 1.61,0.21 3.18,0.44 4.78,0.71 25.79,5.07 51.76,10.62 78.19,16.59 28.33,6.41 57.01,14.48 85.88,24.24 31.56,10.56 61.08,23.99 88.07,40.63 30.19,18.6 57.07,44.13 73.72,77.48 l 1.42,2.98 c 12.51,27.76 19.78,59.9 15.38,93.1" /><path
         id="path44"
         style="fill:#ffffff;fill-opacity:1;fill-rule:nonzero;stroke:none"
         d="m 2689.71,2958.05 c -2.44,18.36 -9.33,35.92 -19.56,51.12 -21.92,32.63 -54.17,57.02 -92.7,73.18 l -31.11,13.91 57.95,22.6 c 22.54,8.73 33.93,33.85 25.71,56.59 -12.04,33.1 -24.9,59.68 -42.19,81.16 -21.22,26.08 -52.8,39.65 -85.71,44.07 -20.3,3.21 -41.39,3.66 -61.88,0.95 -37.93,-4.87 -73.63,-20.96 -104.64,-45.59 -49.64,-37.81 -76.02,-97.31 -68.7,-158.48 0.23,-4.14 0.75,-7.71 1.12,-10.69 4.45,-34.72 18.34,-67.35 44.03,-90.18 23.3,-20.72 54.07,-38.75 94.24,-57.68 l 11.5,-5.43 c -16.96,-0.58 -34.38,-0.06 -52.27,1.38 -12.68,1.17 -25.21,-3.28 -34.47,-12 -9.27,-8.72 -14.36,-21.07 -13.94,-33.8 l 3.56,-106.69 c 0.41,-13.02 6.51,-25.2 16.8,-33.36 9.48,-7.49 21.62,-10.88 33.51,-9.32 0.94,0.13 1.84,0.3 2.79,0.5 25.42,4.94 51.12,10.37 77.2,16.32 27.2,6.18 54.67,13.92 82.69,23.34 29.41,9.8 56.54,22.21 81.02,37.4 26.41,16.29 48.2,37.45 61.5,63.99 l 0.75,1.7 c 10.68,23.62 16.2,49.28 12.8,75.01" /><path
         id="path46"
         style="fill:#684a9f;fill-opacity:1;fill-rule:nonzero;stroke:none"
         d="m 2361.7,2890.61 c 27.59,-2.38 54.51,-2.48 80.71,-0.16 26.23,2.32 43.83,9.14 52.72,20.54 6.31,9.12 6.5,17.9 0.71,26.44 -5.79,8.5 -13.62,15.11 -23.56,19.82 l -47.02,22.09 c -37.93,17.79 -65.78,34.66 -83.47,50.54 -17.74,15.88 -27.91,39.74 -30.49,71.74 -5.03,48.19 12.25,87.97 51.94,119.45 39.72,31.44 83.91,43.3 132.65,35.47 25.97,-3.59 45.11,-12.97 57.4,-28.11 12.26,-15.07 23.88,-37.8 34.85,-68.08 l -105.46,-41.11 c -2.5,20.32 -6.87,35.81 -13.17,46.62 -6.32,10.72 -18.01,13.36 -35.23,7.85 -9.31,-2.66 -15.42,-8.52 -18.37,-17.41 -2.95,-8.92 -2.65,-18.28 0.8,-27.91 3.52,-9.77 9.54,-18.25 17.92,-25.48 8.42,-7.16 18.4,-13.57 30.01,-19 l 95.48,-42.55 c 32.34,-13.72 56.67,-32.7 72.99,-56.99 16.29,-24.26 17.33,-51.98 3.21,-83.08 -8.74,-17.56 -23.82,-32.88 -45.07,-46.04 -21.26,-13.2 -45.21,-24.18 -71.79,-33.11 -26.58,-8.9 -52.74,-16.28 -78.36,-22.08 -25.68,-5.83 -50.95,-11.24 -75.87,-16.06 l -3.53,106.61" /><path
         id="path48"
         style="fill:#ffffff;fill-opacity:1;fill-rule:nonzero;stroke:none"
         d="m 1854.14,3002.25 -1.07,108.47 118.46,10.47 5.23,249.52 93.19,11.58 1.65,-250.9 112.55,11.99 3.44,-74.34 -115.91,-19.1 14.66,-282.94 -114.48,-11.17 -2.4,274.1 -115.32,-27.68" /><path
         id="path50"
         style="fill:#7cc02f;fill-opacity:1;fill-rule:nonzero;stroke:none"
         d="m 2261.98,3147.03 c -1.04,21.33 -10.8,41.62 -27.1,55.52 -16.23,13.97 -37.78,20.65 -59.08,18.41 l -26.82,-2.86 -1.06,164.71 c -0.25,22.31 -9.89,43.39 -26.62,58.17 -16.71,14.65 -38.92,21.42 -60.98,18.74 l -93.19,-11.65 c -38.5,-4.78 -67.56,-36.87 -68.41,-75.71 l -3.71,-179.65 -48.83,-4.32 c -40.52,-3.59 -71.47,-37.71 -71.09,-78.46 l 1.08,-108.44 c 0.21,-23.66 11.36,-46.15 30.03,-60.7 18.6,-14.61 43.12,-19.93 66.14,-14.38 l 19.99,4.82 1.53,-176.05 c 0.16,-22.04 9.44,-42.64 25.81,-57.28 16.37,-14.74 37.85,-21.81 59.71,-19.65 l 114.52,11.19 c 0.87,0.1 1.81,0.2 2.71,0.31 40.07,5.3 69.71,40.66 67.52,81.34 l -11.02,213.26 47.08,7.74 c 39.01,6.44 67.06,41.07 65.22,80.61 l -3.43,74.33" /><path
         id="path52"
         style="fill:#ffffff;fill-opacity:1;fill-rule:nonzero;stroke:none"
         d="m 2228.62,3145.47 c -0.54,12.23 -6.19,23.76 -15.53,31.75 -9.22,7.96 -21.58,11.82 -33.71,10.44 l -63.58,-6.71 -1.34,201.6 c -0.16,12.76 -5.62,24.85 -15.21,33.25 -9.58,8.36 -22.23,12.36 -34.9,10.7 l -93.13,-11.58 c -21.89,-2.69 -38.56,-21.19 -39.07,-43.24 l -4.38,-209.57 -78.66,-7.06 c -23.17,-1.99 -40.81,-21.52 -40.59,-44.76 l 1.04,-108.47 c 0.1,-13.52 6.48,-26.37 17.15,-34.7 10.69,-8.33 24.67,-11.38 37.85,-8.21 l 60.78,14.66 1.91,-218.1 c 0.12,-12.62 5.44,-24.33 14.76,-32.76 9.38,-8.35 21.56,-12.44 34.15,-11.21 l 114.52,11.2 c 0.46,0.01 0.97,0.09 1.5,0.14 22.83,3.03 39.82,23.25 38.64,46.49 l -12.65,243.17 76.69,12.54 c 22.18,3.69 38.26,23.47 37.19,46.04 l -3.43,74.39" /><path
         id="path54"
         style="fill:#7cc02f;fill-opacity:1;fill-rule:nonzero;stroke:none"
         d="m 1854.14,3002.25 -1.07,108.47 118.46,10.47 5.23,249.52 93.19,11.58 1.65,-250.9 112.55,11.99 3.44,-74.34 -115.91,-19.1 14.66,-282.94 -114.48,-11.17 -2.4,274.1 -115.32,-27.68" /><path
         id="path56"
         style="fill:#ffffff;fill-opacity:1;fill-rule:nonzero;stroke:none"
         d="m 1763.86,2888.93 c -19.08,-26.15 -37.89,-47.07 -56.5,-62.62 -18.61,-15.58 -39.73,-22.82 -63.49,-21.62 -21.23,1.58 -36.05,9.35 -44.69,23.2 -8.54,13.89 -13.15,32.02 -13.6,54.09 29.61,10.33 59.81,20.05 90.6,29.24 30.78,9.16 63.17,17.64 97.17,25.43 l 5.88,5.87 c 6.88,28.64 10.3,55.28 10.39,79.78 0.06,24.49 -5.89,46.85 -17.85,67.01 -18.38,30.91 -42.91,48.47 -73.73,52.66 -30.78,4.18 -63.43,-1.86 -97.9,-18.22 -25.58,-10.86 -47.43,-27.66 -65.43,-50.38 -18.03,-22.69 -32.08,-48.63 -42.1,-77.83 -11.25,-30 -16.38,-62.95 -15.53,-98.75 0.92,-35.81 8.39,-68.2 22.54,-97.21 11.52,-25.47 27.84,-46.2 48.86,-62.22 21.05,-16.02 46.2,-25.44 75.47,-28.25 43.75,-3.67 84.11,10.57 121.16,42.7 36.98,32.13 63.44,70.52 79.39,115.14 z m -173.91,105.11 c 1.65,9.13 4.3,17.9 7.73,26.37 3.5,8.41 8.52,15.45 15.03,21.19 6.57,5.65 15.66,8.88 27.3,9.58 20.57,2.23 32.83,-2.76 36.87,-14.84 4.03,-12.08 4.65,-29.11 1.88,-51.15 l -92.12,-23.56 c 0.5,12.46 1.58,23.31 3.31,32.41" /><path
         id="path58"
         style="fill:#eebf24;fill-opacity:1;fill-rule:nonzero;stroke:none"
         d="m 1857.95,2937.36 c 6.15,28.89 9.49,57.14 9.58,84.7 -0.05,10.01 -0.6,19.65 -1.89,29.44 -3.59,27.18 -12.71,53.83 -26.69,77.55 -26.08,46.2 -75.09,83.76 -130.3,90.22 -19.98,2.75 -40.26,2.63 -59.97,0 -27.68,-3.7 -54.52,-12.23 -80.36,-24.27 -37,-15.92 -69.67,-41.4 -94.68,-73.11 -23.38,-29.4 -41.46,-62.84 -54.11,-99 -15.01,-40.26 -21.53,-83.62 -20.42,-127.99 0.26,-12.45 1.29,-24.87 2.83,-36.94 4.25,-31.62 13.02,-62.15 26.61,-90.58 16.28,-36.11 41.22,-68.19 72.66,-92 33.17,-25.43 73.81,-40.04 115.15,-43.88 17.63,-1.49 34.41,-1.16 50.95,1.03 0.21,0.03 0.41,0.06 0.64,0.11 47.6,6.26 91.85,28.47 128.22,60.28 46.42,40.11 81.49,90.64 101.7,147.77 13.57,37.97 -4.23,79.72 -39.92,96.67" /><path
         id="path60"
         style="fill:#ffffff;fill-opacity:1;fill-rule:nonzero;stroke:none"
         d="m 1763.86,2888.93 c -19.08,-26.15 -37.89,-47.07 -56.5,-62.62 -18.61,-15.58 -39.73,-22.82 -63.49,-21.62 -21.23,1.58 -36.05,9.35 -44.69,23.2 -8.54,13.89 -13.15,32.02 -13.6,54.09 29.61,10.33 59.81,20.05 90.6,29.24 30.78,9.16 63.17,17.64 97.17,25.43 l 5.88,5.87 c 6.88,28.64 10.3,55.28 10.39,79.78 0.06,24.49 -5.89,46.85 -17.85,67.01 -18.38,30.91 -42.91,48.47 -73.73,52.66 -30.78,4.18 -63.43,-1.86 -97.9,-18.22 -25.58,-10.86 -47.43,-27.66 -65.43,-50.38 -18.03,-22.69 -32.08,-48.63 -42.1,-77.83 -11.25,-30 -16.38,-62.95 -15.53,-98.75 0.92,-35.81 8.39,-68.2 22.54,-97.21 11.52,-25.47 27.84,-46.2 48.86,-62.22 21.05,-16.02 46.2,-25.44 75.47,-28.25 43.75,-3.67 84.11,10.57 121.16,42.7 36.98,32.13 63.44,70.52 79.39,115.14 z m -173.91,105.11 c 1.65,9.13 4.3,17.9 7.73,26.37 3.5,8.41 8.52,15.45 15.03,21.19 6.57,5.65 15.66,8.88 27.3,9.58 20.57,2.23 32.83,-2.76 36.87,-14.84 4.03,-12.08 4.65,-29.11 1.88,-51.15 l -92.12,-23.56 c 0.5,12.46 1.58,23.31 3.31,32.41" /><path
         id="path62"
         style="fill:#ffffff;fill-opacity:1;fill-rule:nonzero;stroke:none"
         d="m 1839.65,2908.86 -23.69,8.55 c 3.04,4.43 5.27,9.41 6.57,14.77 7.5,31.37 11.56,61.33 11.61,89.95 0.01,8.49 -0.52,16.7 -1.62,24.98 -2.99,22.93 -10.64,45.01 -22.41,64.9 -22.79,39.6 -61.27,68.6 -106.05,74.13 -16.87,2.31 -34.01,2.25 -51,-0.09 -24.29,-3.21 -48.3,-10.76 -72,-22.02 -31.76,-13.76 -59.44,-35.3 -81.27,-62.95 -21.3,-26.81 -37.79,-57.43 -49.35,-91.08 -13.03,-34.72 -18.95,-73.54 -17.89,-114.31 0.2,-11.25 1.08,-22.47 2.56,-33.3 3.82,-29.08 11.95,-56.76 24.44,-82.36 13.7,-30.39 34.92,-57.67 61.92,-78.11 27.97,-21.4 61.95,-33.81 98.12,-37.2 14.91,-1.25 29.16,-0.94 43.34,0.94 0.12,-0.01 0.3,0.02 0.39,0.02 40.55,5.41 78.39,24.1 110.96,52.51 42.35,36.71 73.73,82 92.13,133.76 8.23,23.03 -3.76,48.51 -26.76,56.91 z m -160.95,-48.41 c -8.44,-6.92 -15.28,-9.73 -23.51,-10.93 -2.78,-0.37 -5.78,-0.54 -9.2,-0.34 -4.88,0.37 -7.8,1.52 -8.61,2.05 l -0.34,0.14 c -0.13,0.24 -0.31,0.54 -0.47,0.82 16.68,5.49 33.56,10.7 50.67,15.84 -2.88,-2.74 -5.73,-5.27 -8.54,-7.58" /><path
         id="path64"
         style="fill:#eebf24;fill-opacity:1;fill-rule:nonzero;stroke:none"
         d="m 1763.86,2888.93 c -19.08,-26.15 -37.89,-47.07 -56.5,-62.62 -18.61,-15.58 -39.73,-22.82 -63.49,-21.62 -21.23,1.58 -36.05,9.35 -44.69,23.2 -8.54,13.89 -13.15,32.02 -13.6,54.09 29.61,10.33 59.81,20.05 90.6,29.24 30.78,9.16 63.17,17.64 97.17,25.43 l 5.88,5.87 c 6.88,28.64 10.3,55.28 10.39,79.78 0.06,24.49 -5.89,46.85 -17.85,67.01 -18.38,30.91 -42.91,48.47 -73.73,52.66 -30.78,4.18 -63.43,-1.86 -97.9,-18.22 -25.58,-10.86 -47.43,-27.66 -65.43,-50.38 -18.03,-22.69 -32.08,-48.63 -42.1,-77.83 -11.25,-30 -16.38,-62.95 -15.53,-98.75 0.92,-35.81 8.39,-68.2 22.54,-97.21 11.52,-25.47 27.84,-46.2 48.86,-62.22 21.05,-16.02 46.2,-25.44 75.47,-28.25 43.75,-3.67 84.11,10.57 121.16,42.7 36.98,32.13 63.44,70.52 79.39,115.14 z m -173.91,105.11 c 1.65,9.13 4.3,17.9 7.73,26.37 3.5,8.41 8.52,15.45 15.03,21.19 6.57,5.65 15.66,8.88 27.3,9.58 20.57,2.23 32.83,-2.76 36.87,-14.84 4.03,-12.08 4.65,-29.11 1.88,-51.15 l -92.12,-23.56 c 0.5,12.46 1.58,23.31 3.31,32.41" /><path
         id="path66"
         style="fill:#de3f2d;fill-opacity:1;fill-rule:nonzero;stroke:none"
         d="m 1604.42,2647.23 -35.45,150.02 c -4.89,20.82 -18.48,38.96 -36.98,49.61 -18.63,10.75 -41.08,13.24 -61.58,7.08 l -162.51,-49.43 c -15,63.49 -29.8,127.97 -44.5,193.51 -20.94,93.13 -42.4,192.67 -64.32,298.58 -4.44,21.24 -17.24,39.4 -35.75,50.71 -18.57,11.28 -40.6,14.38 -61.5,8.5 l -144.904,-40.17 c -39.492,-10.98 -63.656,-50.48 -55.567,-90.58 24.551,-121.47 51.481,-244.68 80.805,-369.67 29.236,-124.96 61.406,-254.86 96.376,-389.68 5.94,-23.22 22.33,-42.32 44.26,-51.91 13.19,-5.78 27.51,-7.67 41.41,-5.86 9.23,1.23 18.31,4.1 26.7,8.66 13.42,7.22 31.37,15.86 53.34,25.45 22.73,9.95 46.45,20.07 71.41,30.28 31.83,12.75 70.1,27.04 114.06,42.49 43.73,15.41 84.17,28.69 121.23,39.81 39.42,11.81 62.93,52.56 53.47,92.6" /><path
         id="path68"
         style="fill:#ffffff;fill-opacity:1;fill-rule:nonzero;stroke:none"
         d="m 1493.11,2779.29 -241.8,-73.44 c -21.64,89.76 -42.93,181.44 -64.01,275.08 -20.96,93.63 -42.5,193.57 -64.58,299.86 l -144.911,-40.34 c 24.351,-120.57 51.131,-243.02 80.281,-367.24 29.05,-124.31 61.07,-253.6 95.93,-387.96 15.92,8.58 35.56,17.96 58.95,28.25 23.37,10.24 47.76,20.57 73.19,31 33.68,13.5 72.89,28.11 117.66,43.88 44.74,15.74 86.29,29.38 124.74,40.89 l -35.45,150.02" /><path
         id="path70"
         style="fill:#ffffff;fill-opacity:1;fill-rule:nonzero;stroke:none"
         d="m 1571.89,2639.52 -35.45,150.02 c -2.85,11.94 -10.5,22.24 -21.15,28.34 -10.59,6.13 -23.43,7.6 -35.12,4.02 l -196.56,-59.64 c -17.84,74.73 -35.42,150.87 -52.83,228.42 -20.99,93.33 -42.48,193.11 -64.44,299.09 -2.54,12.19 -9.82,22.54 -20.46,29.05 -10.51,6.46 -23.17,8.19 -35.09,4.88 l -144.915,-40.33 c -22.566,-6.27 -36.402,-28.76 -31.75,-51.67 24.461,-121.14 51.301,-243.98 80.565,-368.7 29.15,-124.65 61.22,-254.32 96.17,-388.91 3.46,-13.29 12.77,-24.18 25.27,-29.64 7.58,-3.34 15.74,-4.4 23.66,-3.36 5.28,0.7 10.46,2.37 15.3,4.97 14.43,7.76 33.16,16.74 55.77,26.64 22.93,10.14 46.99,20.28 72.15,30.52 32.63,13.1 71.31,27.57 115.58,43.15 44.17,15.59 85.13,29.02 122.77,40.25 22.52,6.76 35.92,30.07 30.53,52.9" /><path
         id="path72"
         style="fill:#de3f2d;fill-opacity:1;fill-rule:nonzero;stroke:none"
         d="m 1493.11,2779.29 -241.8,-73.44 c -21.64,89.76 -42.93,181.44 -64.01,275.08 -20.96,93.63 -42.5,193.57 -64.58,299.86 l -144.911,-40.34 c 24.351,-120.57 51.131,-243.02 80.281,-367.24 29.05,-124.31 61.07,-253.6 95.93,-387.96 15.92,8.58 35.56,17.96 58.95,28.25 23.37,10.24 47.76,20.57 73.19,31 33.68,13.5 72.89,28.11 117.66,43.88 44.74,15.74 86.29,29.38 124.74,40.89 l -35.45,150.02" /><path
         id="path74"
         style="fill:#325eab;fill-opacity:1;fill-rule:nonzero;stroke:none"
         d="m 2297.55,3368.08 c -16.05,11.13 -33.01,13.4 -50.73,6.83 -16.06,-5.26 -27.4,-15.33 -33.92,-30.16 -6.56,-14.86 -6.97,-29.46 -1.26,-43.74 3.81,-11.53 11.05,-20.66 21.87,-27.48 10.74,-6.88 24.62,-10.54 41.73,-11.09 l -17.48,-25.94 30.54,-8.3 c 11.29,14.28 20.19,29.43 26.67,45.5 6.42,16.07 9.39,32.25 8.8,48.67 -1.41,19.28 -10.18,34.49 -26.22,45.71" /><path
         id="path76"
         style="fill:#325eab;fill-opacity:1;fill-rule:nonzero;stroke:none"
         d="m 2394.53,3324.93 -0.3,4.76 c -0.07,0.82 -0.25,2.79 -0.68,6.13 -3.82,35.62 -26.43,71.23 -55.53,90.38 -23.41,16.94 -56.8,26.82 -87.84,22.23 -9,-1.2 -17.54,-3.32 -25.58,-6.17 -32.33,-9.7 -63.37,-36.85 -76.56,-68.89 -9.18,-20.19 -13.58,-44.71 -10.28,-68.29 1.31,-10.09 3.88,-19.55 7.15,-28.1 7.92,-23.58 24.63,-45.21 44.45,-59.28 0.57,-1.95 1.2,-3.94 1.93,-5.84 7.87,-21.31 25.77,-37.68 47.75,-43.74 l 30.54,-8.37 c 9.33,-2.54 18.81,-3.09 28.01,-1.87 17.9,2.39 34.66,11.57 46.33,26.35 15.17,19.3 27.62,40.41 36.7,62.87 9.98,24.52 14.99,51.23 13.91,77.83" /><path
         id="path78"
         style="fill:#ffffff;fill-opacity:1;fill-rule:nonzero;stroke:none"
         d="m 2364.02,3326.58 c -0.09,1 -0.25,2.73 -0.56,5.28 -3.19,27.79 -19.77,54.04 -42.79,69.46 -18.63,13.27 -43.12,20.32 -66.59,16.99 -6.9,-0.9 -13.61,-2.65 -20.07,-4.92 -25.27,-7.81 -47.81,-27.63 -58.17,-52.26 -7.17,-15.99 -10.39,-34.28 -7.96,-52.06 1.07,-7.84 3.07,-15.28 5.78,-22.18 6.61,-19.58 20.82,-36.89 38.11,-47.58 1.82,-1.15 3.65,-2.2 5.5,-3.24 0,-4.59 0.85,-9.22 2.46,-13.66 4.57,-12.15 14.77,-21.56 27.31,-24.9 l 30.57,-8.42 c 5.27,-1.41 10.71,-1.77 16,-1.1 10.2,1.37 19.82,6.66 26.44,15.07 13.59,17.14 24.48,35.73 32.43,55.42 8.48,20.94 12.61,43.13 11.72,65.37 l -0.18,2.73" /><path
         id="path80"
         style="fill:#325eab;fill-opacity:1;fill-rule:nonzero;stroke:none"
         d="m 2297.55,3368.08 c -16.05,11.13 -33.01,13.4 -50.73,6.83 -16.06,-5.26 -27.4,-15.33 -33.92,-30.16 -6.56,-14.86 -6.97,-29.46 -1.26,-43.74 3.81,-11.53 11.05,-20.66 21.87,-27.48 10.74,-6.88 24.62,-10.54 41.73,-11.09 l -17.48,-25.94 30.54,-8.3 c 11.29,14.28 20.19,29.43 26.67,45.5 6.42,16.07 9.39,32.25 8.8,48.67 -1.41,19.28 -10.18,34.49 -26.22,45.71" /><path
         id="path82"
         style="fill:#ffffff;fill-opacity:1;fill-rule:nonzero;stroke:none"
         d="m 4744.4,2665.54 c -25.13,-7.39 -39.28,-24.36 -42.38,-50.93 -1.97,-13.18 1.5,-25.88 10.68,-38.04 9.12,-12.17 20.45,-19.51 34.03,-22.05 24.45,-4.15 43.65,4.45 57.65,25.86 13.95,21.33 14.17,42.3 0.58,62.87 -15.17,22.25 -35.4,29.68 -60.56,22.29" /><path
         id="path84"
         style="fill:#ffffff;fill-opacity:1;fill-rule:nonzero;stroke:none"
         d="m 4846.92,3012.25 c -20.44,-56.77 -39.37,-110.94 -56.87,-162.5 -17.45,-51.49 -33.84,-102.29 -49.07,-152.25 l 83.5,-31.79 c 4.51,13.72 9.42,27.47 14.68,41.24 5.27,13.79 11.11,28.73 17.51,44.76 6.44,16 12.69,31.09 18.8,45.2 6.02,14.11 12.29,27.91 18.64,41.24 8.01,19.35 16.88,38.8 26.65,58.28 9.78,19.46 21.7,43.71 35.89,72.59 l -109.73,43.23" /><path
         id="path86"
         style="fill:#684a9f;fill-opacity:1;fill-rule:nonzero;stroke:none"
         d="m 5029.33,2997.15 c -7.81,20.24 -23.91,36.44 -44.15,44.36 l -109.74,43.3 c -19.61,7.73 -41.47,7.16 -60.69,-1.55 -19.26,-8.68 -34.06,-24.7 -41.23,-44.6 -20.52,-57.23 -39.65,-111.82 -57.3,-163.8 -17.76,-52.3 -34.34,-103.81 -49.8,-154.59 -1.44,-4.58 -2.43,-9.2 -2.93,-13.83 -2.97,-2.97 -5.82,-6.03 -8.52,-9.39 -17.68,-21.01 -26.95,-46.78 -30.06,-70.71 -2.42,-15.27 -1.76,-31.3 1.63,-45.99 4.33,-19.64 13.35,-36.78 23.82,-50.67 17.98,-25.02 48.95,-46.08 81.87,-51.77 18.24,-3.09 36.61,-3.28 55.16,0.89 0.4,0.06 0.89,0.15 1.35,0.24 34.9,7.92 64.4,32.45 80.85,58.62 16,23.49 26.34,56.78 22.54,89.38 2.55,4.48 4.71,9.3 6.34,14.3 4.17,12.53 8.65,25.09 13.45,37.66 5.12,13.46 10.88,27.95 17.17,43.71 6.2,15.46 12.19,30.03 18,43.56 5.64,13.09 11.39,25.86 17.28,38.16 l 1.71,3.8 c 7.35,17.72 15.42,35.41 24.41,53.29 9.89,19.79 21.87,44.18 36.13,73.06 9.54,19.48 10.58,42.3 2.71,62.57 z m -287.2,-399.49 5.34,6.15 0.07,0.03 z" /><path
         id="path88"
         style="fill:#ffffff;fill-opacity:1;fill-rule:nonzero;stroke:none"
         d="m 4998.14,2985.05 c -4.44,11.6 -13.67,20.87 -25.16,25.4 l -109.73,43.23 c -11.25,4.42 -23.73,4.16 -34.74,-0.81 -11.01,-5.07 -19.47,-14.19 -23.55,-25.59 -20.5,-56.96 -39.54,-111.38 -57.16,-163.18 -17.52,-51.96 -34.09,-103.14 -49.46,-153.57 -1.99,-6.52 -2.41,-13.08 -1.51,-19.45 -21.96,-17.2 -37.28,-43.78 -39.04,-71.03 -1.6,-10.87 -1.13,-21.96 1.27,-32.32 3.23,-14.31 9.83,-27.09 18.02,-37.94 14.17,-19.51 36.77,-34.73 61.41,-39.04 13.97,-2.42 27.84,-2.45 41.48,0.64 0.31,0.02 0.59,0.13 0.85,0.22 25.76,5.82 47.53,23.44 60.82,44.36 14.41,21.43 21.99,50.06 15.61,77.02 -0.18,0.65 -0.36,1.34 -0.53,1.97 4.51,4.72 7.96,10.45 10.06,16.81 4.32,13.07 8.95,26.11 13.95,39.22 5.18,13.6 11,28.26 17.35,44.19 6.26,15.66 12.39,30.47 18.3,44.18 5.77,13.55 11.85,26.77 17.86,39.55 l 1.01,2.12 c 7.67,18.44 16.03,36.92 25.32,55.41 9.82,19.74 21.81,43.99 36.03,72.9 5.46,11.11 6.04,24.18 1.54,35.71" /><path
         id="path90"
         style="fill:#684a9f;fill-opacity:1;fill-rule:nonzero;stroke:none"
         d="m 4846.92,3012.25 c -20.44,-56.77 -39.37,-110.94 -56.87,-162.5 -17.45,-51.49 -33.84,-102.29 -49.07,-152.25 l 83.5,-31.79 c 4.51,13.72 9.42,27.47 14.68,41.24 5.27,13.79 11.11,28.73 17.51,44.76 6.44,16 12.69,31.09 18.8,45.2 6.02,14.11 12.29,27.91 18.64,41.24 8.01,19.35 16.88,38.8 26.65,58.28 9.78,19.46 21.7,43.71 35.89,72.59 l -109.73,43.23" /><path
         id="path92"
         style="fill:#684a9f;fill-opacity:1;fill-rule:nonzero;stroke:none"
         d="m 4744.4,2665.54 c -25.13,-7.39 -39.28,-24.36 -42.38,-50.93 -1.97,-13.18 1.5,-25.88 10.68,-38.04 9.12,-12.17 20.45,-19.51 34.03,-22.05 24.45,-4.15 43.65,4.45 57.65,25.86 13.95,21.33 14.17,42.3 0.58,62.87 -15.17,22.25 -35.4,29.68 -60.56,22.29" /><path
         id="path94"
         style="fill:#4eb6e1;fill-opacity:1;fill-rule:nonzero;stroke:none"
         d="m 3158.68,2447.07 4.86,-118.03 c -46.57,-9.68 -79.08,-15.65 -97.47,-17.95 -69.74,-8.71 -109.46,25.59 -119.12,102.93 -1.02,8.12 -6.13,88.47 -15.31,241.13 -22.12,-3.33 -47.76,-6.8 -76.94,-10.45 l -11.77,120.5 81.14,10.13 c -3.73,56.09 -6.54,104.88 -8.44,146.42 l 122.91,12.04 c -2.5,-28.31 -1.48,-76.25 3.14,-143.77 l 66.51,8.31 14.7,-117.64 c -11.36,-1.42 -25.16,-3.14 -41.36,-5.17 -17.27,-2.69 -28.03,-4.31 -32.35,-4.84 7.75,-136.92 12.12,-209.16 13.06,-216.72 1.42,-11.35 4.57,-16.72 9.42,-16.12 l 87.02,9.23" /><path
         id="path96"
         style="fill:#4eb6e1;fill-opacity:1;fill-rule:nonzero;stroke:none"
         d="m 3045.8,2241.64 c -43.89,0 -147.97,15.96 -166.46,163.93 -0.52,4.17 -1.54,12.33 -11.27,172.15 -1.63,-0.2 -3.27,-0.42 -4.93,-0.62 -18.23,-2.3 -36.63,2.91 -51,14.4 -14.35,11.48 -23.46,28.28 -25.25,46.58 l -11.77,120.49 c -3.58,36.74 22.74,69.65 59.36,74.23 l 17.56,2.19 c -1.82,30.56 -3.32,58.54 -4.47,83.64 -1.66,36.21 25.33,67.39 61.42,70.92 l 122.9,12.04 c 20.24,1.98 40.18,-5.14 54.58,-19.4 14.41,-14.26 21.71,-34.2 19.92,-54.39 -0.94,-10.73 -1.55,-29.34 -0.52,-61.37 15.81,0.52 31.51,-4.49 44.15,-14.32 14.27,-11.09 23.53,-27.4 25.78,-45.33 l 14.7,-117.64 c 4.66,-37.34 -21.82,-71.38 -59.16,-76.05 l -10.57,-1.32 c 2.62,-45.5 4.49,-77.33 5.85,-99.59 l 24.87,2.64 c 18.79,1.99 37.44,-3.88 51.7,-16.17 14.26,-12.31 22.78,-29.96 23.56,-48.78 l 4.85,-118.04 c 1.38,-33.31 -21.56,-62.72 -54.21,-69.5 -48.67,-10.11 -82.34,-16.28 -102.88,-18.84 -9.8,-1.22 -19.47,-1.85 -28.71,-1.85" /><path
         id="path98"
         style="fill:#ffffff;fill-opacity:1;fill-rule:nonzero;stroke:none"
         d="m 3158.68,2447.07 4.86,-118.03 c -46.57,-9.68 -79.08,-15.65 -97.47,-17.95 -69.74,-8.71 -109.46,25.59 -119.12,102.93 -1.02,8.12 -6.13,88.47 -15.31,241.13 -22.12,-3.33 -47.76,-6.8 -76.94,-10.45 l -11.77,120.5 81.14,10.13 c -3.73,56.09 -6.54,104.88 -8.44,146.42 l 122.91,12.04 c -2.5,-28.31 -1.48,-76.25 3.14,-143.77 l 66.51,8.31 14.7,-117.64 c -11.36,-1.42 -25.16,-3.14 -41.36,-5.17 -17.27,-2.69 -28.03,-4.31 -32.35,-4.84 7.75,-136.92 12.12,-209.16 13.06,-216.72 1.42,-11.35 4.57,-16.72 9.42,-16.12 l 87.02,9.23" /><path
         id="path100"
         style="fill:#ffffff;fill-opacity:1;fill-rule:nonzero;stroke:none"
         d="m 3045.8,2275.7 c -43.28,0 -118.08,17.42 -132.65,134.09 -0.44,3.49 -1.56,12.43 -13.29,206.42 -12.64,-1.71 -26.22,-3.47 -40.94,-5.31 -9.12,-1.14 -18.32,1.46 -25.5,7.2 -7.18,5.74 -11.73,14.14 -12.63,23.29 l -11.76,120.5 c -1.8,18.36 11.36,34.82 29.67,37.11 l 49.3,6.16 c -2.72,43.02 -4.87,81.6 -6.4,115.03 -0.83,18.11 12.67,33.69 30.71,35.46 l 122.9,12.04 c 10.06,0.99 20.09,-2.57 27.3,-9.7 7.2,-7.13 10.85,-17.1 9.96,-27.2 -1.89,-21.4 -1.56,-55.77 0.98,-102.47 l 30.52,3.81 c 8.94,1.16 18,-1.36 25.14,-6.91 7.13,-5.54 11.77,-13.7 12.88,-22.66 l 14.7,-117.65 c 2.33,-18.66 -10.91,-35.69 -29.57,-38.02 l -40.84,-5.1 c -0.45,-0.07 -0.89,-0.15 -1.33,-0.21 5.65,-99.2 8.48,-145.72 9.89,-167.03 l 60.25,6.39 c 9.4,1.02 18.73,-1.93 25.84,-8.08 7.13,-6.16 11.4,-14.98 11.78,-24.39 l 4.86,-118.04 c 0.68,-16.66 -10.78,-31.36 -27.11,-34.75 -47.76,-9.92 -80.53,-15.94 -100.17,-18.39 -8.41,-1.05 -16.66,-1.58 -24.49,-1.59" /><path
         id="path102"
         style="fill:#4eb6e1;fill-opacity:1;fill-rule:nonzero;stroke:none"
         d="m 3158.68,2447.07 4.86,-118.03 c -46.57,-9.68 -79.08,-15.65 -97.47,-17.95 -69.74,-8.71 -109.46,25.59 -119.12,102.93 -1.02,8.12 -6.13,88.47 -15.31,241.13 -22.12,-3.33 -47.76,-6.8 -76.94,-10.45 l -11.77,120.5 81.14,10.13 c -3.73,56.09 -6.54,104.88 -8.44,146.42 l 122.91,12.04 c -2.5,-28.31 -1.48,-76.25 3.14,-143.77 l 66.51,8.31 14.7,-117.64 c -11.36,-1.42 -25.16,-3.14 -41.36,-5.17 -17.27,-2.69 -28.03,-4.31 -32.35,-4.84 7.75,-136.92 12.12,-209.16 13.06,-216.72 1.42,-11.35 4.57,-16.72 9.42,-16.12 l 87.02,9.23" /><path
         id="path104"
         style="fill:#e77021;fill-opacity:1;fill-rule:nonzero;stroke:none"
         d="m 3604.55,2905.31 99.21,-466.22 -127.73,-35.23 -1.75,11.42 c -27.35,-22.52 -54.84,-37.93 -82.51,-46.3 -58.93,-17.83 -105.98,-16.71 -141.1,3.43 -34.47,19.74 -60.99,60.41 -79.61,121.95 -0.94,3.12 -8.83,42.3 -23.61,117.56 -15.32,75.09 -29.83,135.35 -43.56,180.72 l 126.3,31.36 c 31.44,-169.86 50.9,-267.02 58.32,-291.53 7.58,-25.06 17.75,-40.75 30.49,-47.15 12.08,-6.04 30.36,-5.34 54.88,2.08 31.84,9.63 56.33,31.26 73.46,64.94 -29.47,153.91 -53.48,261.4 -71.95,322.44 l 129.16,30.53" /><path
         id="path106"
         style="fill:#e77021;fill-opacity:1;fill-rule:nonzero;stroke:none"
         d="m 3416.56,2288.28 c -37.25,0 -70.81,8.42 -99.77,25.02 -49.85,28.55 -87.18,82.83 -110.93,161.33 -1.33,4.37 -2.49,8.2 -25.27,124.17 -14.74,72.31 -28.88,131.05 -41.9,174.11 -5.41,17.86 -3.25,37.16 5.97,53.39 9.22,16.22 24.7,27.96 42.81,32.46 l 126.3,31.36 c 18.24,4.53 37.52,1.33 53.31,-8.84 15.79,-10.17 26.69,-26.4 30.1,-44.88 40.08,-216.56 52.57,-270.93 56.45,-283.95 0.17,0.06 0.34,0.1 0.51,0.16 6.19,1.87 13.61,5.16 21.15,13.56 -26.53,136.64 -48.41,233.74 -65.09,288.88 -5.45,17.99 -3.22,37.43 6.16,53.72 9.38,16.3 25.07,27.99 43.36,32.31 l 129.16,30.53 c 17.85,4.21 36.62,1.06 52.12,-8.74 15.48,-9.81 26.37,-25.45 30.18,-43.38 l 99.22,-466.21 c 7.51,-35.27 -13.76,-70.27 -48.52,-79.85 l -127.73,-35.25 c -4.44,-1.22 -8.95,-1.98 -13.49,-2.29 -22.64,-14.29 -45.79,-25.05 -69.16,-32.12 -33.97,-10.28 -65.92,-15.49 -94.94,-15.49" /><path
         id="path108"
         style="fill:#ffffff;fill-opacity:1;fill-rule:nonzero;stroke:none"
         d="m 3604.55,2905.31 99.21,-466.22 -127.73,-35.23 -1.75,11.42 c -27.35,-22.52 -54.84,-37.93 -82.51,-46.3 -58.93,-17.83 -105.98,-16.71 -141.1,3.43 -34.47,19.74 -60.99,60.41 -79.61,121.95 -0.94,3.12 -8.83,42.3 -23.61,117.56 -15.32,75.09 -29.83,135.35 -43.56,180.72 l 126.3,31.36 c 31.44,-169.86 50.9,-267.02 58.32,-291.53 7.58,-25.06 17.75,-40.75 30.49,-47.15 12.08,-6.04 30.36,-5.34 54.88,2.08 31.84,9.63 56.33,31.26 73.46,64.94 -29.47,153.91 -53.48,261.4 -71.95,322.44 l 129.16,30.53" /><path
         id="path110"
         style="fill:#ffffff;fill-opacity:1;fill-rule:nonzero;stroke:none"
         d="m 3416.55,2322.34 c -31.22,0 -59.08,6.9 -82.82,20.52 -42.66,24.43 -73.83,70.76 -95.27,141.64 -0.8,2.6 -2,6.58 -24.44,120.86 -15,73.58 -29.39,133.35 -42.73,177.41 -2.7,8.93 -1.63,18.58 2.98,26.7 4.61,8.11 12.36,13.98 21.41,16.23 l 126.3,31.37 c 9.14,2.24 18.77,0.66 26.66,-4.43 7.89,-5.08 13.34,-13.2 15.05,-22.43 38.62,-208.73 52.55,-271.76 57.42,-287.89 6.51,-21.48 12.8,-26.27 13.21,-26.57 -0.02,-0.01 1.11,-0.43 4.68,-0.43 v 0 c 4.36,0 12.23,0.81 25.01,4.68 19.74,5.97 35.37,18.48 47.54,38.1 -28.03,145.45 -51.15,248.63 -68.76,306.82 -2.71,8.99 -1.6,18.71 3.09,26.86 4.68,8.14 12.53,13.99 21.69,16.15 l 129.14,30.53 c 8.92,2.11 18.32,0.54 26.06,-4.37 7.75,-4.91 13.19,-12.73 15.1,-21.69 l 99.22,-466.21 c 3.75,-17.64 -6.89,-35.14 -24.26,-39.93 l -127.74,-35.24 c -4.67,-1.29 -9.5,-1.55 -14.21,-0.83 -22.75,-15.43 -45.95,-26.77 -69.24,-33.81 -30.77,-9.31 -59.41,-14.04 -85.09,-14.04" /><path
         id="path112"
         style="fill:#e77021;fill-opacity:1;fill-rule:nonzero;stroke:none"
         d="m 3604.55,2905.31 99.21,-466.22 -127.73,-35.23 -1.75,11.42 c -27.35,-22.52 -54.84,-37.93 -82.51,-46.3 -58.93,-17.83 -105.98,-16.71 -141.1,3.43 -34.47,19.74 -60.99,60.41 -79.61,121.95 -0.94,3.12 -8.83,42.3 -23.61,117.56 -15.32,75.09 -29.83,135.35 -43.56,180.72 l 126.3,31.36 c 31.44,-169.86 50.9,-267.02 58.32,-291.53 7.58,-25.06 17.75,-40.75 30.49,-47.15 12.08,-6.04 30.36,-5.34 54.88,2.08 31.84,9.63 56.33,31.26 73.46,64.94 -29.47,153.91 -53.48,261.4 -71.95,322.44 l 129.16,30.53" /><path
         id="path114"
         style="fill:#7cc02f;fill-opacity:1;fill-rule:nonzero;stroke:none"
         d="m 4130.67,3077.23 c -2.72,-17.91 -3.19,-64.66 -1.45,-140.24 1.68,-70.63 3.79,-115.96 6.29,-135.96 -0.13,1.09 1.11,-17.73 3.76,-56.39 3.36,-44.6 6.88,-88.11 10.53,-130.5 5.53,-61.93 11.6,-119.41 18.22,-172.39 l -149.25,-12.07 0.11,18.99 c -32.13,-19.97 -69.81,-32.63 -113.08,-38.03 -55.69,-6.96 -104.21,9.77 -145.5,50.21 -40.76,40.5 -65.39,94.82 -73.9,162.95 -9.06,72.49 5.1,134.93 42.5,187.38 36.01,50.09 82.96,78.75 140.85,85.98 43.25,5.41 85.47,-2.76 126.64,-24.54 l -11.34,189.74 z m -126.78,-383.26 c -8.99,63.11 -45.69,90.67 -110.02,82.64 -25.98,-3.25 -46.94,-17.97 -62.89,-44.1 -16.82,-27.95 -22.87,-60.82 -18.14,-98.68 3.45,-27.56 12.89,-50.59 28.39,-68.97 20.68,-24.87 48.57,-35.1 83.73,-30.71 20.57,2.57 39.46,13.99 56.7,34.28 21.49,25.75 29.79,58.36 24.86,97.84 -0.07,0.53 -0.25,4.09 -0.5,10.63 -0.74,5.98 -1.45,11.65 -2.13,17.07" /><path
         id="path116"
         style="fill:#7cc02f;fill-opacity:1;fill-rule:nonzero;stroke:none"
         d="m 3881.75,2340.98 c -63.98,-0.01 -120.87,23.95 -169.12,71.2 -51.98,51.62 -83.43,119.87 -93.83,203.18 -11.21,89.63 7.17,168.82 54.63,235.37 47.53,66.1 110.69,104.4 187.87,114.04 20.5,2.55 41.07,2.82 61.29,0.76 l -5.54,92.77 c -2.18,36.44 24.76,68.13 61.08,71.83 l 145.62,14.88 c 20.98,2.21 41.73,-5.54 56.27,-20.81 14.53,-15.26 21.18,-36.38 18,-57.22 -0.73,-4.87 -2.97,-28.53 -0.7,-128.43 2.12,-88.98 4.53,-119.06 5.78,-129.07 v 0 -0.01 c 0.27,-2.08 0.44,-4.16 0.5,-6.22 0.3,-5.05 1.51,-23.04 3.63,-53.96 3.22,-42.59 6.74,-86.25 10.45,-129.3 5.41,-60.68 11.46,-117.88 17.95,-169.79 2.3,-18.44 -3.02,-37.02 -14.75,-51.43 -11.73,-14.42 -28.84,-23.42 -47.36,-24.92 l -149.25,-12.08 c -8.08,-0.67 -16.11,0.14 -23.75,2.27 -26.68,-10.13 -55.53,-17.16 -86.27,-21.01 -10.93,-1.36 -21.87,-2.05 -32.5,-2.05 z m 32.85,368.86 c -3.71,0 -7.85,-0.29 -12.29,-0.84 -2.06,-0.25 -6.35,-0.79 -13.17,-11.98 -8.59,-14.27 -11.51,-32.29 -8.69,-54.75 1.8,-14.39 6,-25.34 12.86,-33.47 4.41,-5.31 7.69,-7.5 16.3,-7.5 2.12,0 4.43,0.15 6.9,0.46 1.57,0.19 6.37,2.7 13.24,10.79 5.3,6.36 12.5,18.54 9.16,45.28 -0.17,1.49 -0.52,5.79 -0.85,13.49 l -1.69,13.59 c -3.62,24.93 -8.24,24.93 -21.77,24.93" /><path
         id="path118"
         style="fill:#ffffff;fill-opacity:1;fill-rule:nonzero;stroke:none"
         d="m 4130.67,3077.23 c -2.72,-17.91 -3.19,-64.66 -1.45,-140.24 1.68,-70.63 3.79,-115.96 6.29,-135.96 -0.13,1.09 1.11,-17.73 3.76,-56.39 3.36,-44.6 6.88,-88.11 10.53,-130.5 5.53,-61.93 11.6,-119.41 18.22,-172.39 l -149.25,-12.07 0.11,18.99 c -32.13,-19.97 -69.81,-32.63 -113.08,-38.03 -55.69,-6.96 -104.21,9.77 -145.5,50.21 -40.76,40.5 -65.39,94.82 -73.9,162.95 -9.06,72.49 5.1,134.93 42.5,187.38 36.01,50.09 82.96,78.75 140.85,85.98 43.25,5.41 85.47,-2.76 126.64,-24.54 l -11.34,189.74 z m -126.78,-383.26 c -8.99,63.11 -45.69,90.67 -110.02,82.64 -25.98,-3.25 -46.94,-17.97 -62.89,-44.1 -16.82,-27.95 -22.87,-60.82 -18.14,-98.68 3.45,-27.56 12.89,-50.59 28.39,-68.97 20.68,-24.87 48.57,-35.1 83.73,-30.71 20.57,2.57 39.46,13.99 56.7,34.28 21.49,25.75 29.79,58.36 24.86,97.84 -0.07,0.53 -0.25,4.09 -0.5,10.63 -0.74,5.98 -1.45,11.65 -2.13,17.07" /><path
         id="path120"
         style="fill:#ffffff;fill-opacity:1;fill-rule:nonzero;stroke:none"
         d="m 4201.82,2445.98 c -6.53,52.3 -12.62,109.9 -18.08,171.09 -3.72,43.19 -7.26,86.97 -10.49,129.89 -2.21,32.31 -3.44,50.6 -3.68,54.84 -0.03,1.14 -0.12,2.29 -0.27,3.45 -1.62,13 -3.98,46.55 -6.03,132.52 -2.09,91.44 -0.57,123.53 1.07,134.34 1.59,10.41 -1.73,20.98 -9,28.61 -7.26,7.64 -17.71,11.49 -28.13,10.4 l -145.61,-14.87 c -18.17,-1.86 -31.63,-17.7 -30.55,-35.92 l 8.15,-136.27 c -30.69,8.53 -62.12,10.83 -93.66,6.91 -67.41,-8.42 -122.68,-42.03 -164.37,-100.01 -42.34,-59.37 -58.68,-130.5 -48.56,-211.38 9.43,-75.57 37.59,-137.11 83.85,-183.06 41.67,-40.8 90.54,-61.48 145.29,-61.48 9.22,0 18.74,0.6 28.28,1.8 32.82,4.1 63.15,12.14 90.61,24 6.17,-3.88 13.42,-5.69 20.88,-5.12 l 149.25,12.08 c 9.27,0.75 17.82,5.25 23.68,12.46 5.86,7.2 8.53,16.5 7.37,25.72 z m -153.75,20.25 c -2.99,4.98 -7.28,9.22 -12.55,12.16 -10.82,6.06 -24.08,5.75 -34.61,-0.79 -27.74,-17.23 -61.16,-28.39 -99.33,-33.16 -45.32,-5.68 -83.56,7.56 -117.28,40.58 -35.52,35.28 -56.49,82.06 -64.1,143 -8.04,64.29 3.88,117.73 36.36,163.28 30.52,42.43 68.92,66 117.41,72.06 7.17,0.9 14.4,1.35 21.47,1.35 28.96,0 56.78,-7.26 85.02,-22.2 l 40.54,189.28 73.36,7.49 c -0.41,-21.89 -0.32,-54.24 0.8,-103.1 1.72,-72.32 3.86,-117.91 6.55,-139.38 l 0.43,0.06 v -0.01 l -0.43,-0.05 c 0.12,-1 0.29,-1.98 0.5,-2.95 0.3,-11 1.4,-27.13 3.09,-51.77 3.26,-43.4 6.82,-87.43 10.58,-130.97 4.33,-48.6 9.06,-94.95 14.09,-138.26 l -81.9,-6.62" /><path
         id="path122"
         style="fill:#ffffff;fill-opacity:1;fill-rule:nonzero;stroke:none"
         d="m 4040.07,2678.18 c -0.04,0.98 -0.12,1.95 -0.24,2.93 l -2.22,17.66 c -11.61,81.46 -64.37,122.09 -147.97,111.64 -36.14,-4.52 -66.47,-25.32 -87.84,-60.33 -20.78,-34.51 -28.43,-75.04 -22.76,-120.48 4.27,-34.15 16.44,-63.33 36,-86.51 23.92,-28.78 56.62,-43.99 94.57,-43.99 6.34,0 12.92,0.42 19.57,1.25 29.2,3.65 55.58,19.13 78.63,46.25 27.59,33.05 38.55,74.55 32.63,122.89 -0.08,1.39 -0.21,4.3 -0.37,8.69 z m -84.37,-87.7 c -11.62,-13.67 -23.06,-21.03 -34.97,-22.53 -3.85,-0.47 -7.6,-0.72 -11.12,-0.72 -18.01,0 -31.02,5.98 -42.34,19.6 -11.23,13.32 -17.98,30.08 -20.63,51.22 -3.78,30.33 0.65,55.48 13.41,76.72 13.81,22.59 28.32,26.82 38.03,28.03 5.84,0.74 11.39,1.1 16.52,1.1 28.67,0 49.1,-9.31 55.49,-54.13 l 1.95,-15.63 c 0.28,-7.13 0.55,-11.05 0.67,-12.09 3.74,-29.96 -1.88,-53.44 -17.01,-71.57" /><path
         id="path124"
         style="fill:#7cc02f;fill-opacity:1;fill-rule:nonzero;stroke:none"
         d="m 4130.67,3077.23 c -2.72,-17.91 -3.19,-64.66 -1.45,-140.24 1.68,-70.63 3.79,-115.96 6.29,-135.96 -0.13,1.09 1.11,-17.73 3.76,-56.39 3.36,-44.6 6.88,-88.11 10.53,-130.5 5.53,-61.93 11.6,-119.41 18.22,-172.39 l -149.25,-12.07 0.11,18.99 c -32.13,-19.97 -69.81,-32.63 -113.08,-38.03 -55.69,-6.96 -104.21,9.77 -145.5,50.21 -40.76,40.5 -65.39,94.82 -73.9,162.95 -9.06,72.49 5.1,134.93 42.5,187.38 36.01,50.09 82.96,78.75 140.85,85.98 43.25,5.41 85.47,-2.76 126.64,-24.54 l -11.34,189.74 z m -126.78,-383.26 c -8.99,63.11 -45.69,90.67 -110.02,82.64 -25.98,-3.25 -46.94,-17.97 -62.89,-44.1 -16.82,-27.95 -22.87,-60.82 -18.14,-98.68 3.45,-27.56 12.89,-50.59 28.39,-68.97 20.68,-24.87 48.57,-35.1 83.73,-30.71 20.57,2.57 39.46,13.99 56.7,34.28 21.49,25.75 29.79,58.36 24.86,97.84 -0.07,0.53 -0.25,4.09 -0.5,10.63 -0.74,5.98 -1.45,11.65 -2.13,17.07" /><path
         id="path126"
         style="fill:#325eab;fill-opacity:1;fill-rule:nonzero;stroke:none"
         d="m 4608.55,2861.76 -154.48,-500.3 -128.13,6.52 c 12.82,32.96 29.68,81.42 50.56,145.41 l -158.07,325.79 124.75,51.44 c 11.78,-33.71 41.1,-96.99 87.99,-189.8 l 59.76,198.35 117.62,-37.41" /><path
         id="path128"
         style="fill:#325eab;fill-opacity:1;fill-rule:nonzero;stroke:none"
         d="m 4454.1,2293.34 c -1.16,0 -2.31,0.02 -3.49,0.09 l -128.12,6.5 c -21.85,1.12 -41.84,12.65 -53.73,31.01 -11.88,18.37 -14.24,41.33 -6.31,61.72 10.55,27.16 24.23,66.04 40.71,115.8 l -146.02,300.99 c -8.2,16.89 -9.06,36.43 -2.37,53.98 6.69,17.56 20.32,31.57 37.7,38.73 l 124.74,51.45 c 17.31,7.14 36.78,6.82 53.86,-0.83 17.08,-7.66 30.26,-22.02 36.43,-39.69 1.99,-5.71 4.95,-13.41 9.3,-23.79 l 8.89,29.52 c 5.27,17.48 17.33,32.11 33.47,40.62 16.14,8.51 35.03,10.19 52.41,4.65 l 117.63,-37.41 c 35.64,-11.33 55.48,-49.29 44.45,-85.02 l -154.48,-500.3 c -8.86,-28.66 -35.34,-48.02 -65.07,-48.02" /><path
         id="path130"
         style="fill:#ffffff;fill-opacity:1;fill-rule:nonzero;stroke:none"
         d="m 4608.55,2861.76 -154.48,-500.3 -128.13,6.52 c 12.82,32.96 29.68,81.42 50.56,145.41 l -158.07,325.79 124.75,51.44 c 11.78,-33.71 41.1,-96.99 87.99,-189.8 l 59.76,198.35 117.62,-37.41" /><path
         id="path132"
         style="fill:#ffffff;fill-opacity:1;fill-rule:nonzero;stroke:none"
         d="m 4454.08,2327.4 c -0.58,0 -1.15,0.02 -1.74,0.05 l -128.13,6.51 c -10.92,0.55 -20.91,6.32 -26.86,15.5 -5.95,9.18 -7.12,20.66 -3.15,30.85 11.68,30.06 27.02,73.94 45.64,130.59 l -152.05,313.41 c -4.1,8.45 -4.53,18.22 -1.19,27 3.35,8.77 10.17,15.78 18.85,19.36 l 124.74,51.44 c 8.65,3.57 18.39,3.42 26.94,-0.41 8.53,-3.83 15.12,-11 18.21,-19.84 7.74,-22.17 23.86,-58.58 48.07,-108.68 l 34.9,115.82 c 2.64,8.73 8.66,16.05 16.73,20.3 8.09,4.27 17.51,5.11 26.21,2.33 l 117.63,-37.41 c 17.82,-5.67 27.74,-24.65 22.22,-42.51 l -154.48,-500.29 c -4.42,-14.33 -17.67,-24.02 -32.54,-24.02" /><path
         id="path134"
         style="fill:#325eab;fill-opacity:1;fill-rule:nonzero;stroke:none"
         d="m 4608.55,2861.76 -154.48,-500.3 -128.13,6.52 c 12.82,32.96 29.68,81.42 50.56,145.41 l -158.07,325.79 124.75,51.44 c 11.78,-33.71 41.1,-96.99 87.99,-189.8 l 59.76,198.35 117.62,-37.41" /><path
         id="path136"
         style="fill:#e3628f;fill-opacity:1;fill-rule:nonzero;stroke:none"
         d="m 2760.02,2674.12 -41.41,-108.31 c -56.31,27.87 -113.95,32.87 -172.86,14.95 -13.05,-3.97 -23.37,-10.27 -31.02,-18.85 -7.65,-8.59 -10.27,-16.79 -7.89,-24.62 1.43,-4.68 5.27,-8.06 11.61,-10.13 8.9,-3 32.77,-2.83 71.66,0.44 78.28,6.7 135.75,-0.58 172.44,-21.9 33.26,-19.5 54.5,-44.41 63.7,-74.65 16.32,-53.69 5.35,-100.03 -32.9,-139.03 -27.33,-28.23 -65.22,-49.73 -113.7,-64.48 -32.33,-9.83 -67.11,-13.56 -104.27,-11.19 -24.98,1.51 -71.69,8.1 -140.15,19.76 l 17.72,121.58 c 95.17,-18.9 158.93,-23.43 191.26,-13.6 24.51,7.46 41.04,13.91 49.64,19.37 15.06,8.55 20.6,19.38 16.64,32.4 -1.26,4.16 -7.02,8.12 -17.27,11.85 -9.57,3.35 -43.92,2.88 -102.97,-1.41 -112.1,-7.91 -179.03,23.89 -200.75,95.31 -12.21,40.16 -5.86,78.26 19.08,114.35 23.68,34.53 58.45,58.77 104.35,72.73 47.42,14.42 89.99,20.55 127.73,18.33 37.67,-2.21 77.47,-13.16 119.36,-32.9" /><path
         id="path138"
         style="fill:#e3628f;fill-opacity:1;fill-rule:nonzero;stroke:none"
         d="m 2596.75,2147.53 c -8.44,0 -17.09,0.28 -25.7,0.83 -27.46,1.66 -75.7,8.4 -147.26,20.58 -36.46,6.21 -61.31,40.38 -55.98,76.99 l 17.71,121.59 c 0.89,6.05 2.57,11.89 4.97,17.4 -28.65,21.63 -52.72,52.65 -66.17,96.86 -18.24,60 -8.49,119.79 28.21,172.91 32.4,47.24 79.74,80.68 140.58,99.18 55.1,16.75 106.18,23.81 151.55,21.16 46.27,-2.72 94.85,-15.93 144.39,-39.28 32.24,-15.19 47.33,-52.66 34.6,-85.95 l -31.56,-82.56 c 1.58,-0.85 3.14,-1.73 4.68,-2.63 48.6,-28.5 80.36,-66.72 94.66,-113.73 23.71,-77.99 6.61,-149.42 -49.44,-206.56 -35.03,-36.2 -83.09,-63.89 -142.51,-81.96 -32.37,-9.84 -66.93,-14.83 -102.73,-14.83" /><path
         id="path140"
         style="fill:#ffffff;fill-opacity:1;fill-rule:nonzero;stroke:none"
         d="m 2760.02,2674.12 -41.41,-108.31 c -56.31,27.87 -113.95,32.87 -172.86,14.95 -13.05,-3.97 -23.37,-10.27 -31.02,-18.85 -7.65,-8.59 -10.27,-16.79 -7.89,-24.62 1.43,-4.68 5.27,-8.06 11.61,-10.13 8.9,-3 32.77,-2.83 71.66,0.44 78.28,6.7 135.75,-0.58 172.44,-21.9 33.26,-19.5 54.5,-44.41 63.7,-74.65 16.32,-53.69 5.35,-100.03 -32.9,-139.03 -27.33,-28.23 -65.22,-49.73 -113.7,-64.48 -32.33,-9.83 -67.11,-13.56 -104.27,-11.19 -24.98,1.51 -71.69,8.1 -140.15,19.76 l 17.72,121.58 c 95.17,-18.9 158.93,-23.43 191.26,-13.6 24.51,7.46 41.04,13.91 49.64,19.37 15.06,8.55 20.6,19.38 16.64,32.4 -1.26,4.16 -7.02,8.12 -17.27,11.85 -9.57,3.35 -43.92,2.88 -102.97,-1.41 -112.1,-7.91 -179.03,23.89 -200.75,95.31 -12.21,40.16 -5.86,78.26 19.08,114.35 23.68,34.53 58.45,58.77 104.35,72.73 47.42,14.42 89.99,20.55 127.73,18.33 37.67,-2.21 77.47,-13.16 119.36,-32.9" /><path
         id="path142"
         style="fill:#ffffff;fill-opacity:1;fill-rule:nonzero;stroke:none"
         d="m 2596.75,2181.59 c -7.72,0 -15.64,0.26 -23.54,0.77 -26.33,1.59 -73.36,8.19 -143.7,20.16 -18.23,3.11 -30.66,20.19 -27.99,38.5 l 17.71,121.58 c 1.35,9.24 6.43,17.52 14.06,22.91 4.05,2.87 8.64,4.78 13.42,5.67 -54.14,23.69 -78.81,64.38 -89.8,100.52 -15.32,50.41 -7.37,98.73 23.64,143.62 27.99,40.81 69.22,69.76 122.47,85.96 51.19,15.56 98.19,22.2 139.64,19.74 41.91,-2.46 86.28,-14.6 131.88,-36.08 16.11,-7.6 23.66,-26.33 17.29,-42.98 l -41.4,-108.31 c -0.57,-1.51 -1.25,-2.95 -2.02,-4.35 11.36,-3.92 21.76,-8.62 31.25,-14.14 40.86,-23.97 67.45,-55.63 79.18,-94.19 19.86,-65.34 5.62,-125.09 -41.17,-172.8 -31.12,-32.16 -74.28,-56.85 -128.1,-73.21 -29.15,-8.87 -60.38,-13.37 -92.82,-13.37 z m 24.98,192.65 c -5.44,-0.32 -11.19,-0.69 -17.23,-1.09 6.99,0.12 12.66,0.54 17.23,1.09" /><path
         id="path144"
         style="fill:#e3628f;fill-opacity:1;fill-rule:nonzero;stroke:none"
         d="m 2760.02,2674.12 -41.41,-108.31 c -56.31,27.87 -113.95,32.87 -172.86,14.95 -13.05,-3.97 -23.37,-10.27 -31.02,-18.85 -7.65,-8.59 -10.27,-16.79 -7.89,-24.62 1.43,-4.68 5.27,-8.06 11.61,-10.13 8.9,-3 32.77,-2.83 71.66,0.44 78.28,6.7 135.75,-0.58 172.44,-21.9 33.26,-19.5 54.5,-44.41 63.7,-74.65 16.32,-53.69 5.35,-100.03 -32.9,-139.03 -27.33,-28.23 -65.22,-49.73 -113.7,-64.48 -32.33,-9.83 -67.11,-13.56 -104.27,-11.19 -24.98,1.51 -71.69,8.1 -140.15,19.76 l 17.72,121.58 c 95.17,-18.9 158.93,-23.43 191.26,-13.6 24.51,7.46 41.04,13.91 49.64,19.37 15.06,8.55 20.6,19.38 16.64,32.4 -1.26,4.16 -7.02,8.12 -17.27,11.85 -9.57,3.35 -43.92,2.88 -102.97,-1.41 -112.1,-7.91 -179.03,23.89 -200.75,95.31 -12.21,40.16 -5.86,78.26 19.08,114.35 23.68,34.53 58.45,58.77 104.35,72.73 47.42,14.42 89.99,20.55 127.73,18.33 37.67,-2.21 77.47,-13.16 119.36,-32.9" /><path
         id="path146"
         style="fill:#4eb6e1;fill-opacity:1;fill-rule:nonzero;stroke:none"
         d="m 2388.21,1670.89 c -3.06,19.78 -7.61,39.27 -14.58,58.89 -25.66,72.04 -92.09,112.92 -150.45,127.48 -38.96,10.22 -79.13,12.85 -118.15,6.72 -22.15,-3.46 -43.73,-9.62 -64.26,-17.98 -3.99,-1.68 -7.97,-3.31 -12,-5.09 -18.31,10.6 -39.29,15.81 -60.9,14.87 l -144.37,-6.27 c -56.46,-2.57 -102.39,-46.92 -106.8,-103.23 -10.41,-133.44 -19.12,-245.07 -26.15,-335.01 -6.93,-90.56 -13,-181.22 -18.08,-271.84 -1.82,-31.09 9.69,-61.84 31.37,-84.28 21.77,-22.35 52.05,-34.92 83.27,-34.01 l 137.5,3.56 c 41.16,0.99 76.95,24.12 95.58,58.35 3.26,-4.76 6.94,-9.24 11.06,-13.49 21.58,-22.42 51.05,-34.76 82.36,-34.24 l 151.25,2.09 c 5.41,0.09 10.77,0.57 15.93,1.33 51.99,8.16 92.09,51.85 94.41,105.83 l 18.62,427.91 0.27,3.77 c 0.23,33.7 -1.25,64.64 -5.88,94.64" /><path
         id="path148"
         style="fill:#ffffff;fill-opacity:1;fill-rule:nonzero;stroke:none"
         d="m 2340.82,1663.46 c -2.75,17.62 -6.6,34.15 -12.38,50.17 -18.76,52.8 -67.46,84.29 -117.94,97.29 -32.71,8.58 -65.91,10.67 -98.18,5.58 -18.28,-2.84 -36.11,-7.88 -53.29,-14.93 -12.1,-5.01 -24.48,-10.57 -36.82,-16.96 -0.85,0.97 -1.7,1.98 -2.6,2.94 -12.78,13.7 -30.92,20.99 -49.62,20.27 l -144.36,-6.36 c -32.28,-1.37 -58.57,-26.75 -61.03,-58.94 -10.44,-133.39 -19.21,-245.06 -26.09,-334.91 -6.98,-90.26 -13.01,-180.7 -18.12,-270.83 -1.12,-17.88 5.44,-35.43 17.94,-48.22 12.36,-12.82 29.69,-19.74 47.52,-19.38 l 137.54,3.37 c 32.95,0.98 59.82,26.63 62.28,59.49 l 23,325.95 c 16.37,18.35 31.87,33.97 46.04,46.75 4.34,3.77 8.24,6.65 11.84,8.77 0.18,-2.3 0.35,-4.69 0.36,-7.18 l -18.88,-355.62 c -0.93,-17.87 5.45,-35 17.81,-47.78 12.35,-12.83 29.21,-19.92 47.04,-19.71 l 151.3,2.19 c 3.1,0.07 6.17,0.32 9.09,0.86 29.73,4.6 52.66,29.43 54.02,60.39 l 18.66,427.95 0.11,2.09 c 0.26,31.89 -1.1,60.39 -5.24,86.76" /><path
         id="path150"
         style="fill:#4eb6e1;fill-opacity:1;fill-rule:nonzero;stroke:none"
         d="m 2268.25,1691.88 c -9.87,27.29 -34.75,46.36 -74.64,57.26 -37.95,9.97 -74.73,7.74 -110.29,-6.83 -35.65,-14.58 -75.07,-37.15 -118.43,-67.99 l 7.89,69.51 -144.36,-6.26 c -10.41,-133.41 -19.12,-245.07 -26.1,-334.91 -6.97,-89.8 -12.95,-179.69 -18.11,-269.51 l 137.6,3.47 24.58,347.35 c 23.02,26.98 44.93,49.71 65.61,68.4 20.79,18.58 43.68,28.88 68.61,30.89 19.38,2.82 32.66,-3.99 39.66,-20.6 7.06,-16.6 10.65,-36.05 10.72,-58.37 l -18.99,-356.96 151.4,2.09 18.67,427.9 c 0.61,49.13 -3.96,87.27 -13.82,114.56" /><path
         id="path152"
         style="fill:#684a9f;fill-opacity:1;fill-rule:nonzero;stroke:none"
         d="m 1739.8,1344.84 c -22.92,17.71 -52.51,24.64 -80.95,18.96 -5.21,-1.12 -10.44,-2.09 -15.64,-3.21 32.54,19.76 52.28,57.32 47.38,97.51 l -23.07,189.06 c -3.4,27.86 -18.41,52.98 -41.29,69.26 -8.34,5.92 -17.46,10.49 -26.99,13.56 3.31,0.5 6.68,0.96 10.05,1.41 52.48,7.47 90.01,54.66 85.44,107.5 l -15.25,174.32 c -2.35,27.21 -15.76,52.21 -37.04,69.21 -21.03,16.79 -47.86,24.39 -74.43,21.15 -0.42,-0.05 -0.85,-0.1 -1.28,-0.16 L 814.051,2001.95 c -54.106,-7.28 -92.317,-56.77 -85.699,-111 3.769,-30.88 8.296,-78.24 13.789,-142.18 10.363,-117.34 17.203,-215.6 20.257,-292.36 8.348,-190.28 9.887,-202.9 10.809,-210.45 16.125,-132.17 56.078,-224.04 121.762,-280.585 73.238,-63.531 192.771,-84.676 365.211,-64.602 l 48.36,5.711 c 172.94,21.102 306.16,45.293 407.24,73.996 44.77,12.743 74.79,54.73 72.4,101.2 l -9.88,189.52 c -1.51,28.94 -15.58,55.82 -38.5,73.64" /><path
         id="path154"
         style="fill:#ffffff;fill-opacity:1;fill-rule:nonzero;stroke:none"
         d="m 1709.22,1305.38 c -11.44,8.91 -25.95,12.18 -40.5,9.5 -148.68,-30.08 -299.96,-55.38 -449.75,-75.25 l -8.38,-1.12 c -52.75,-6.43 -67.07,-0.33 -69.65,1.38 -0.74,0.59 -3.6,5.38 -4.73,17.09 l -6.23,75.85 468.29,63.78 c 27.05,3.64 46.09,28.35 42.78,55.45 l -23.07,189.06 c -1.69,13.9 -9.2,26.51 -20.6,34.66 -11.48,8.13 -26.07,11.21 -39.49,8.04 -99.36,-21.56 -250.86,-46.26 -450.97,-73.52 l -7.93,89.08 c 89.3,19.51 258.11,46.8 503.3,81.44 26.22,3.73 45.06,27.31 42.7,53.74 l -15.2,174.28 c -1.23,13.62 -7.9,26.09 -18.52,34.62 -10.68,8.52 -24.46,12.58 -37.88,10.5 L 820.758,1952.5 c -27.098,-3.64 -46.184,-28.36 -42.871,-55.5 3.82,-31.31 8.457,-79.18 13.941,-143.85 10.461,-118.15 17.301,-217.18 20.379,-294.56 7.352,-165.94 9.418,-197.52 10.523,-206.59 14.555,-119.27 48.958,-200.72 104.915,-248.94 62.089,-53.861 169.105,-71.087 326.925,-52.701 l 47.93,5.653 c 167.96,20.492 302.45,44.898 399.62,72.508 22.43,6.34 37.4,27.28 36.2,50.53 l -9.88,189.52 c -0.71,14.46 -7.78,27.95 -19.22,36.81" /><path
         id="path156"
         style="fill:#684a9f;fill-opacity:1;fill-rule:nonzero;stroke:none"
         d="m 1678.64,1265.97 9.87,-189.47 c -104.24,-29.57 -250.73,-55.11 -439.61,-76.57 -141.95,-16.539 -238.14,-2.903 -288.587,40.82 -45.833,39.43 -75.141,111.94 -87.997,217.3 -1.355,11.11 -4.742,78.69 -10.25,202.72 -3.066,77.68 -9.941,176.61 -20.507,296.76 -5.559,65.28 -10.282,113.82 -14.145,145.51 l 752.676,101.47 15.2,-174.28 c -292.56,-41.34 -475.88,-72.12 -549.81,-92.41 l 16.41,-183.91 c 228.01,30.28 396.85,57.33 506.57,81.17 l 23.06,-189.06 -515.18,-70.09 10.2,-123.03 c 2.49,-27.15 11.96,-45.63 28.51,-55.7 16.78,-12.45 53.66,-14.78 110.64,-7.01 151.24,20.09 302.19,45.34 452.95,75.78" /><path
         id="path158"
         style="fill:#de3f2d;fill-opacity:1;fill-rule:nonzero;stroke:none"
         d="m 3269,1987.09 -37.16,-697.41 c -2.89,-53.27 -4.66,-117.44 -5.38,-192.62 l -189.03,10.03 c 11.78,88.36 20.84,175.6 27.16,261.72 l 43.58,624.49 160.83,-6.21" /><path
         id="path160"
         style="fill:#de3f2d;fill-opacity:1;fill-rule:nonzero;stroke:none"
         d="m 3226.46,999.164 c -1.71,0 -3.44,0.051 -5.18,0.149 l -189.04,10.027 c -27.28,1.45 -52.71,14.22 -70.15,35.25 -17.44,21.01 -25.3,48.36 -21.69,75.45 11.48,85.99 20.41,172.1 26.56,255.92 l 43.56,624.15 c 3.68,52.75 48.11,93.11 101.42,91 l 160.83,-6.21 c 26.19,-1.01 50.88,-12.49 68.55,-31.85 17.65,-19.36 26.81,-45 25.42,-71.17 l -37.15,-697.4 c -2.77,-50.9 -4.54,-114.24 -5.25,-188.36 -0.25,-26.7 -11.4,-52.13 -30.87,-70.41 -18.19,-17.09 -42.17,-26.546 -67.01,-26.546" /><path
         id="path162"
         style="fill:#ffffff;fill-opacity:1;fill-rule:nonzero;stroke:none"
         d="m 3269,1987.09 -37.16,-697.41 c -2.89,-53.27 -4.66,-117.44 -5.38,-192.62 l -189.03,10.03 c 11.78,88.36 20.84,175.6 27.16,261.72 l 43.58,624.49 160.83,-6.21" /><path
         id="path164"
         style="fill:#ffffff;fill-opacity:1;fill-rule:nonzero;stroke:none"
         d="m 3226.46,1048.11 c -0.86,0 -1.73,0.03 -2.59,0.07 l -189.04,10.03 c -13.63,0.72 -26.35,7.12 -35.07,17.63 -8.72,10.5 -12.65,24.18 -10.85,37.72 11.61,86.95 20.64,174.03 26.86,258.83 l 43.56,624.32 c 1.85,26.37 24.13,46.43 50.72,45.5 l 160.84,-6.22 c 13.08,-0.51 25.44,-6.24 34.27,-15.92 8.82,-9.68 13.4,-22.5 12.71,-35.59 l -37.15,-697.41 c -2.81,-51.57 -4.6,-115.63 -5.31,-190.48 -0.14,-13.35 -5.7,-26.07 -15.44,-35.21 -9.09,-8.54 -21.09,-13.27 -33.51,-13.27 z m -133.82,105.06 85.56,-4.54 c 0.94,54.96 2.52,102.31 4.78,143.71 l 34.5,647.76 -63.8,2.46 -40.27,-577.17 c -5.11,-69.75 -12.08,-140.89 -20.77,-212.22" /><path
         id="path166"
         style="fill:#de3f2d;fill-opacity:1;fill-rule:nonzero;stroke:none"
         d="m 3269,1987.09 -37.16,-697.41 c -2.89,-53.27 -4.66,-117.44 -5.38,-192.62 l -189.03,10.03 c 11.78,88.36 20.84,175.6 27.16,261.72 l 43.58,624.49 160.83,-6.21" /><path
         id="path168"
         style="fill:#eebf24;fill-opacity:1;fill-rule:nonzero;stroke:none"
         d="M 3688.38,1772.79 3668.2,1381.8 c -2.87,-55.56 -5.02,-155.39 -6.4,-299.48 l -191.41,6.56 57.11,690.13 z m 15.32,127.91 c -0.26,-26.63 -9.51,-49.24 -27.7,-67.85 -17.39,-18.67 -39.04,-27.83 -64.84,-27.58 -25.09,0.24 -46.51,9.81 -64.35,28.81 -17.84,18.96 -26.61,41.74 -26.35,68.37 0.26,27.38 9.46,50.43 27.66,69.04 18.2,18.61 39.8,27.82 64.89,27.58 25.04,-0.24 46.46,-9.86 64.3,-28.81 17.83,-18.96 26.65,-42.18 26.39,-69.56" /><path
         id="path170"
         style="fill:#eebf24;fill-opacity:1;fill-rule:nonzero;stroke:none"
         d="m 3661.8,984.418 c -1.11,0 -2.23,0.02 -3.34,0.059 l -191.42,6.562 c -26.77,0.918 -51.99,12.761 -69.79,32.771 -17.8,20.01 -26.62,46.45 -24.41,73.14 l 57.11,690.14 c 1.01,12.21 4.23,23.75 9.25,34.2 -11.24,25.27 -16.91,52.93 -16.62,82.09 0.5,52.69 19.71,99.9 55.56,136.55 36.48,37.31 82.79,57.03 133.92,57.03 0.3,0 1.57,0 1.89,-0.01 51.84,-0.49 98.4,-21.11 134.64,-59.61 35.18,-37.39 53.5,-84.96 52.99,-137.58 -0.31,-32.48 -7.97,-62.98 -22.46,-90.25 5.3,-13.12 7.76,-27.36 7.01,-41.77 l -20.17,-390.99 c -2.81,-54.32 -4.92,-153.7 -6.28,-295.38 -0.25,-26.37 -11.14,-51.53 -30.19,-69.77 -18.25,-17.475 -42.51,-27.182 -67.69,-27.182 z m -53.3,917.652 c 1.29,-0.49 2.65,-0.86 3.59,-0.88 0.98,0.01 2.47,0.4 3.84,0.94 -1.3,0.53 -2.71,0.94 -3.72,1.01 -1.03,-0.09 -2.38,-0.5 -3.71,-1.07" /><path
         id="path172"
         style="fill:#ffffff;fill-opacity:1;fill-rule:nonzero;stroke:none"
         d="M 3688.38,1772.79 3668.2,1381.8 c -2.87,-55.56 -5.02,-155.39 -6.4,-299.48 l -191.41,6.56 57.11,690.13 z m 15.32,127.91 c -0.26,-26.63 -9.51,-49.24 -27.7,-67.85 -17.39,-18.67 -39.04,-27.83 -64.84,-27.58 -25.09,0.24 -46.51,9.81 -64.35,28.81 -17.84,18.96 -26.61,41.74 -26.35,68.37 0.26,27.38 9.46,50.43 27.66,69.04 18.2,18.61 39.8,27.82 64.89,27.58 25.04,-0.24 46.46,-9.86 64.3,-28.81 17.83,-18.96 26.65,-42.18 26.39,-69.56" /><path
         id="path174"
         style="fill:#ffffff;fill-opacity:1;fill-rule:nonzero;stroke:none"
         d="m 3661.8,1033.36 c -0.55,0 -1.11,0.02 -1.67,0.03 l -191.42,6.57 c -13.38,0.45 -25.99,6.38 -34.89,16.38 -8.9,10.01 -13.32,23.23 -12.21,36.57 l 57.11,690.13 c 1.17,14.11 8.23,26.38 18.61,34.51 -17.24,24.75 -26.11,53.88 -25.82,85.36 0.39,39.81 14.78,75.35 41.62,102.8 27.07,27.68 61.27,42.31 98.93,42.31 0.15,0 1.26,-0.01 1.41,-0.01 38.2,-0.36 72.6,-15.65 99.48,-44.21 26.35,-28.01 40.07,-63.82 39.69,-103.57 -0.33,-34 -11.31,-65.06 -31.95,-90.68 1.34,-1.17 2.61,-2.42 3.82,-3.75 8.83,-9.66 13.42,-22.46 12.74,-35.53 l -20.17,-390.99 c -2.84,-55 -4.97,-155.07 -6.33,-297.44 -0.12,-13.19 -5.58,-25.77 -15.11,-34.89 -9.12,-8.73 -21.25,-13.59 -33.84,-13.59 z m -138.41,102.67 90,-3.08 c 1.38,117.39 3.38,201.82 5.93,251.38 l 17.62,341.47 -64.53,2.5 z m 89.14,814.1 c -11.95,0 -20.6,-3.84 -29.4,-12.85 -9.36,-9.57 -13.59,-20.45 -13.73,-35.31 -0.13,-14.02 3.89,-24.61 13.05,-34.36 8.73,-9.29 17.45,-13.29 29.17,-13.4 l 0.54,-0.01 c 11.8,0 20.19,3.59 28.02,12.01 0.27,0.29 0.54,0.57 0.82,0.86 9.38,9.59 13.63,20.11 13.75,34.1 0.15,14.81 -3.88,25.77 -13.08,35.55 -8.75,9.29 -17.46,13.3 -29.13,13.41 h -0.01" /><path
         id="path176"
         style="fill:#eebf24;fill-opacity:1;fill-rule:nonzero;stroke:none"
         d="M 3688.38,1772.79 3668.2,1381.8 c -2.87,-55.56 -5.02,-155.39 -6.4,-299.48 l -191.41,6.56 57.11,690.13 z m 15.32,127.91 c -0.26,-26.63 -9.51,-49.24 -27.7,-67.85 -17.39,-18.67 -39.04,-27.83 -64.84,-27.58 -25.09,0.24 -46.51,9.81 -64.35,28.81 -17.84,18.96 -26.61,41.74 -26.35,68.37 0.26,27.38 9.46,50.43 27.66,69.04 18.2,18.61 39.8,27.82 64.89,27.58 25.04,-0.24 46.46,-9.86 64.3,-28.81 17.83,-18.96 26.65,-42.18 26.39,-69.56" /><path
         id="path178"
         style="fill:#7cc02f;fill-opacity:1;fill-rule:nonzero;stroke:none"
         d="m 5017.18,1538.02 c 4.52,-48.34 12.29,-190.38 23.35,-426.06 L 4851.79,1099 c 5.45,176.69 3.45,316.1 -6.11,418.27 -3.35,35.84 -13.11,60.13 -29.23,72.78 -14.36,10.42 -36.71,14.23 -67.11,11.39 -37.46,-3.51 -70.82,-16.85 -100.09,-40.04 7.33,-229.78 15.62,-393.76 24.8,-491.98 l -194.59,-13.51 c -1.1,280.68 -1.8,431.25 -2.12,451.68 -3.25,177.41 -10.72,328.55 -22.39,453.27 l 182.18,7.64 8,-224.59 c 36.15,17.5 68.99,27.68 98.64,30.45 166.08,15.53 257.22,-63.26 273.41,-236.34" /><path
         id="path180"
         style="fill:#7cc02f;fill-opacity:1;fill-rule:nonzero;stroke:none"
         d="m 4479.45,958.023 c -24.63,0 -48.45,9.305 -66.63,26.192 -19.82,18.425 -31.14,44.245 -31.24,71.315 -0.71,181.32 -1.71,425.29 -2.12,450.46 -3.19,174.01 -10.58,324.05 -21.97,445.76 -2.5,26.71 6.08,53.29 23.73,73.5 17.64,20.21 42.82,32.29 69.64,33.42 l 182.18,7.63 c 26.16,1.05 51.46,-8.26 70.58,-25.96 19.13,-17.7 30.41,-42.31 31.34,-68.36 l 3.55,-99.81 c 15.31,1.33 30.35,1.99 44.77,1.99 191.13,0 311.91,-119.18 331.36,-327.02 4.67,-49.95 12.42,-190.8 23.67,-430.59 2.49,-53.19 -37.97,-98.6 -91.09,-102.25 l -188.74,-12.95 c -27.48,-1.893 -54.68,7.97 -74.6,27.15 -5.64,5.43 -10.55,11.46 -14.67,17.95 -3.57,-14.75 -10.54,-28.61 -20.55,-40.4 -17.07,-20.097 -41.53,-32.46 -67.83,-34.277 l -194.59,-13.507 c -2.27,-0.164 -4.53,-0.243 -6.79,-0.243 z m 269.96,536.697 c 2.34,-67.22 4.79,-128.11 7.32,-182.58 -0.6,70.53 -3.04,131.55 -7.32,182.58 z m -178.96,185.91 c 0.73,-19.15 1.4,-38.66 2.01,-58.52 4.66,5.89 10.01,11.27 16.01,16.03 6.67,5.27 13.48,10.22 20.44,14.83 -4.9,1.96 -9.68,4.32 -14.28,7.09 -9.25,5.58 -17.38,12.55 -24.18,20.57" /><path
         id="path182"
         style="fill:#ffffff;fill-opacity:1;fill-rule:nonzero;stroke:none"
         d="m 5017.18,1538.02 c 4.52,-48.34 12.29,-190.38 23.35,-426.06 L 4851.79,1099 c 5.45,176.69 3.45,316.1 -6.11,418.27 -3.35,35.84 -13.11,60.13 -29.23,72.78 -14.36,10.42 -36.71,14.23 -67.11,11.39 -37.46,-3.51 -70.82,-16.85 -100.09,-40.04 7.33,-229.78 15.62,-393.76 24.8,-491.98 l -194.59,-13.51 c -1.1,280.68 -1.8,431.25 -2.12,451.68 -3.25,177.41 -10.72,328.55 -22.39,453.27 l 182.18,7.64 8,-224.59 c 36.15,17.5 68.99,27.68 98.64,30.45 166.08,15.53 257.22,-63.26 273.41,-236.34" /><path
         id="path184"
         style="fill:#ffffff;fill-opacity:1;fill-rule:nonzero;stroke:none"
         d="m 4479.46,1006.97 c -12.32,0 -24.24,4.65 -33.32,13.09 -9.91,9.21 -15.57,22.12 -15.62,35.66 -1.14,288.41 -1.81,431.74 -2.13,451.07 -3.21,175.32 -10.67,326.59 -22.17,449.51 -1.25,13.36 3.03,26.65 11.86,36.76 8.83,10.1 21.42,16.14 34.82,16.71 l 182.19,7.63 c 12.98,0.59 25.72,-4.13 35.29,-12.98 9.57,-8.85 15.2,-21.16 15.67,-34.18 l 5.56,-156.1 c 16.35,4.55 32.17,7.5 47.6,8.95 15.12,1.42 29.95,2.13 44.07,2.13 116.86,0 260.77,-49.03 282.63,-282.64 4.61,-49.2 12.29,-189.3 23.5,-428.33 1.25,-26.59 -18.98,-49.29 -45.53,-51.12 l -188.75,-12.95 c -13.84,-0.97 -27.34,4 -37.3,13.57 -9.95,9.59 -15.39,22.95 -14.96,36.77 5.37,174.09 3.39,312.78 -5.92,412.19 -2.46,26.29 -8.21,35.7 -10.12,38.15 -1.98,0.82 -7.49,2.54 -19.12,2.54 -4.21,0 -8.87,-0.23 -13.83,-0.69 -20.04,-1.87 -38.15,-7.36 -54.84,-16.66 7.04,-213.43 15.02,-368.81 23.74,-462.08 1.23,-13.13 -2.89,-26.19 -11.42,-36.24 -8.54,-10.04 -20.77,-16.22 -33.92,-17.14 l -194.59,-13.5 c -1.14,-0.08 -2.27,-0.12 -3.39,-0.12 z m 28.67,907.14 c 9.21,-115.2 15.3,-251.34 18.14,-405.63 0.3,-18.87 0.91,-142.91 1.93,-400.12 l 92.95,6.45 c -7.63,101.35 -14.62,250.62 -20.82,445.03 -0.5,15.5 6.38,30.31 18.53,39.93 36.69,29.05 79.06,46.02 125.91,50.4 42.78,3.99 76.09,-2.86 100.4,-20.49 0.51,-0.37 1.02,-0.75 1.52,-1.14 27.41,-21.53 43.02,-56.43 47.72,-106.72 8.68,-92.75 11.28,-217.14 7.75,-370.29 l 87.22,5.97 c -9.8,205.86 -16.83,332.25 -20.92,375.96 -12.55,134.08 -69.66,193.88 -185.18,193.88 -11.1,0 -22.85,-0.58 -34.95,-1.71 -23.56,-2.2 -51.11,-10.87 -81.87,-25.77 -14.87,-7.21 -32.41,-6.41 -46.58,2.13 -14.17,8.53 -23.07,23.65 -23.66,40.19 l -6.24,175.36 -81.85,-3.43" /><path
         id="path186"
         style="fill:#7cc02f;fill-opacity:1;fill-rule:nonzero;stroke:none"
         d="m 5017.18,1538.02 c 4.52,-48.34 12.29,-190.38 23.35,-426.06 L 4851.79,1099 c 5.45,176.69 3.45,316.1 -6.11,418.27 -3.35,35.84 -13.11,60.13 -29.23,72.78 -14.36,10.42 -36.71,14.23 -67.11,11.39 -37.46,-3.51 -70.82,-16.85 -100.09,-40.04 7.33,-229.78 15.62,-393.76 24.8,-491.98 l -194.59,-13.51 c -1.1,280.68 -1.8,431.25 -2.12,451.68 -3.25,177.41 -10.72,328.55 -22.39,453.27 l 182.18,7.64 8,-224.59 c 36.15,17.5 68.99,27.68 98.64,30.45 166.08,15.53 257.22,-63.26 273.41,-236.34" /><path
         id="path188"
         style="fill:#e77021;fill-opacity:1;fill-rule:nonzero;stroke:none"
         d="m 4390.77,1649.56 -103.43,-130.6 c -65.18,62.47 -142.02,94.18 -230.49,95.02 -19.6,0.19 -36.46,-4 -50.64,-12.47 -14.18,-8.47 -21.3,-18.58 -21.42,-30.34 -0.06,-7.02 3.75,-13.32 11.53,-18.89 10.92,-7.94 43.71,-18.01 98.42,-30.29 110.17,-24.57 185.8,-59.32 226.9,-104.36 37.18,-41.08 55.55,-84.36 55.12,-129.77 -0.77,-80.63 -35.8,-139.42 -105.03,-176.38 -49.63,-26.91 -110.84,-40.04 -183.63,-39.35 -48.56,0.46 -97.84,10.35 -147.75,29.61 -33.57,12.85 -94.76,42.01 -183.57,87.51 l 76.7,159 c 122.31,-66.93 207.73,-100.64 256.29,-101.1 36.8,-0.35 62.25,1.37 76.38,5.15 24.33,5.22 36.6,17.67 36.78,37.22 0.06,6.26 -6.13,14.16 -18.56,23.69 -11.67,8.72 -58.95,22.89 -141.74,42.46 -157.04,37.49 -235.08,109.94 -234.05,217.19 0.57,60.31 25.71,109.78 75.46,148.5 47.34,37.12 105.44,55.35 174.36,54.69 71.21,-0.68 132.2,-10.63 182.97,-29.95 50.67,-19.27 100.51,-51.43 149.4,-96.54" /><path
         id="path190"
         style="fill:#e77021;fill-opacity:1;fill-rule:nonzero;stroke:none"
         d="m 4093.63,974.223 -6.47,0.031 c -60.09,0.566 -121.35,12.734 -182.07,36.176 -36.92,14.12 -100.12,44.14 -192.93,91.7 -47.31,24.22 -66.64,81.77 -43.54,129.64 l 76.7,159.02 c 3.68,7.64 8.3,14.68 13.71,21.01 -37.73,53.61 -48.82,111.44 -48.34,161.99 0.86,90.09 40.01,167.84 113.22,224.82 63.68,49.92 141.46,75.35 230.91,75.35 l 4.5,-0.03 c 82.6,-0.79 155.56,-13.02 216.86,-36.35 62.23,-23.66 123.11,-62.71 180.96,-116.08 37.65,-34.72 42.15,-92.58 10.36,-132.71 l -78.84,-99.55 c 1.8,-1.86 3.55,-3.73 5.28,-5.62 54.31,-60.01 81.37,-126.08 80.7,-196.69 -1.13,-117.1 -55.35,-207.63 -156.8,-261.8 -62.11,-33.681 -137.73,-50.907 -224.21,-50.907" /><path
         id="path192"
         style="fill:#ffffff;fill-opacity:1;fill-rule:nonzero;stroke:none"
         d="m 4390.77,1649.56 -103.43,-130.6 c -65.18,62.47 -142.02,94.18 -230.49,95.02 -19.6,0.19 -36.46,-4 -50.64,-12.47 -14.18,-8.47 -21.3,-18.58 -21.42,-30.34 -0.06,-7.02 3.75,-13.32 11.53,-18.89 10.92,-7.94 43.71,-18.01 98.42,-30.29 110.17,-24.57 185.8,-59.32 226.9,-104.36 37.18,-41.08 55.55,-84.36 55.12,-129.77 -0.77,-80.63 -35.8,-139.42 -105.03,-176.38 -49.63,-26.91 -110.84,-40.04 -183.63,-39.35 -48.56,0.46 -97.84,10.35 -147.75,29.61 -33.57,12.85 -94.76,42.01 -183.57,87.51 l 76.7,159 c 122.31,-66.93 207.73,-100.64 256.29,-101.1 36.8,-0.35 62.25,1.37 76.38,5.15 24.33,5.22 36.6,17.67 36.78,37.22 0.06,6.26 -6.13,14.16 -18.56,23.69 -11.67,8.72 -58.95,22.89 -141.74,42.46 -157.04,37.49 -235.08,109.94 -234.05,217.19 0.57,60.31 25.71,109.78 75.46,148.5 47.34,37.12 105.44,55.35 174.36,54.69 71.21,-0.68 132.2,-10.63 182.97,-29.95 50.67,-19.27 100.51,-51.43 149.4,-96.54" /><path
         id="path194"
         style="fill:#ffffff;fill-opacity:1;fill-rule:nonzero;stroke:none"
         d="m 4093.63,1023.16 -6,0.03 c -54.22,0.52 -109.69,11.58 -164.91,32.9 -35.4,13.54 -97.02,42.86 -188.25,89.59 -23.65,12.12 -33.31,40.89 -21.77,64.82 l 76.7,159.02 c 5.83,12.09 16.37,21.25 29.14,25.34 6.91,2.23 14.16,2.84 21.21,1.94 -48.02,41.42 -80.86,98.33 -80.12,176.52 0.72,75.7 32.47,138.5 94.34,186.66 54.98,43.12 122.61,65.04 200.85,65.04 l 4.04,-0.02 c 76.79,-0.75 144.05,-11.9 199.91,-33.16 56.37,-21.43 111.95,-57.21 165.18,-106.31 18.82,-17.36 21.09,-46.3 5.19,-66.37 L 4325.7,1488.57 c -1.45,-1.82 -3,-3.52 -4.66,-5.1 13.91,-10.29 26.14,-21.23 36.75,-32.85 45.66,-50.45 68.46,-105.31 67.91,-163.22 -0.95,-98.11 -46.21,-173.87 -130.91,-219.1 -55.15,-29.9 -122.91,-45.13 -201.16,-45.14 z m -271.93,188.01 c 64.17,-32.28 109.86,-53.67 136.13,-63.71 44.37,-17.12 88.3,-25.98 130.73,-26.38 l 5.07,-0.03 c 61.76,0 113.84,11.26 154.78,33.46 53.66,28.65 78.8,71.12 79.4,133.81 0.32,32.99 -13.58,64.55 -42.46,96.47 -23.21,25.43 -77.1,61.74 -201.27,89.42 -76.45,17.17 -101.87,27.81 -116.56,38.5 -27.81,19.86 -31.8,45.47 -31.67,58.95 0.15,16.82 6.24,48.57 45.27,71.87 21.55,12.87 46.61,19.4 74.49,19.4 h 1.7 c 82.98,-0.8 157.78,-25.66 222.99,-74.02 l 42.78,54.02 c -32.87,25.61 -66.07,44.86 -99.11,57.42 -45.02,17.13 -100.88,26.13 -166.04,26.76 l -3.11,0.02 c -56.6,0 -102.59,-14.49 -140.59,-44.28 -38.3,-29.82 -56.28,-64.89 -56.71,-110.46 -0.3,-30.16 -1.16,-121.94 196.47,-169.11 123.62,-29.23 146.66,-41.15 159.66,-50.85 9.91,-7.59 38.53,-29.54 38.23,-63.37 -0.42,-42.59 -28.16,-74.06 -74.31,-84.36 -17.44,-4.46 -42.5,-6.53 -78.67,-6.53 l -9.6,0.04 c -51.16,0.49 -126.14,26.96 -233.88,82.87 z m 225.65,93.04 c 9.96,-2.96 18.2,-4.91 25.01,-6.16 -7.65,1.93 -15.96,3.98 -25.01,6.16" /><path
         id="path196"
         style="fill:#e77021;fill-opacity:1;fill-rule:nonzero;stroke:none"
         d="m 4390.77,1649.56 -103.43,-130.6 c -65.18,62.47 -142.02,94.18 -230.49,95.02 -19.6,0.19 -36.46,-4 -50.64,-12.47 -14.18,-8.47 -21.3,-18.58 -21.42,-30.34 -0.06,-7.02 3.75,-13.32 11.53,-18.89 10.92,-7.94 43.71,-18.01 98.42,-30.29 110.17,-24.57 185.8,-59.32 226.9,-104.36 37.18,-41.08 55.55,-84.36 55.12,-129.77 -0.77,-80.63 -35.8,-139.42 -105.03,-176.38 -49.63,-26.91 -110.84,-40.04 -183.63,-39.35 -48.56,0.46 -97.84,10.35 -147.75,29.61 -33.57,12.85 -94.76,42.01 -183.57,87.51 l 76.7,159 c 122.31,-66.93 207.73,-100.64 256.29,-101.1 36.8,-0.35 62.25,1.37 76.38,5.15 24.33,5.22 36.6,17.67 36.78,37.22 0.06,6.26 -6.13,14.16 -18.56,23.69 -11.67,8.72 -58.95,22.89 -141.74,42.46 -157.04,37.49 -235.08,109.94 -234.05,217.19 0.57,60.31 25.71,109.78 75.46,148.5 47.34,37.12 105.44,55.35 174.36,54.69 71.21,-0.68 132.2,-10.63 182.97,-29.95 50.67,-19.27 100.51,-51.43 149.4,-96.54" /><path
         id="path198"
         style="fill:#e3628f;fill-opacity:1;fill-rule:nonzero;stroke:none"
         d="m 2947.01,1596.61 -40.25,-517.44 C 2894.5,918.078 2765.11,833.145 2518.59,824.32 l -63.65,169.321 c 76.71,2.75 137.52,11.569 182.42,26.519 -6.23,-1.03 -14.05,-1.7 -23.46,-2.03 -76.66,-2.74 -140.21,20.85 -190.59,70.75 -50.35,49.13 -76.88,112.84 -79.68,191.08 -3.05,85.31 21.74,158.27 74.42,218.94 51.88,60.64 115.41,92.28 190.54,94.97 53.21,1.9 100.63,-9.31 142.25,-33.7 l 0.95,38.82 z m -214.45,-248.63 c -0.72,20.3 -8.39,38.06 -23.04,53.22 -17.05,16.61 -37.71,24.52 -61.97,23.66 -86.08,-3.09 -127.47,-50.43 -124.19,-142 2.49,-69.64 36.6,-103.29 102.32,-100.93 75.14,2.69 110.75,58.05 106.88,166.05" /><path
         id="path200"
         style="fill:#e3628f;fill-opacity:1;fill-rule:nonzero;stroke:none"
         d="m 2518.56,726.43 c -40.64,0 -77.22,25.175 -91.6,63.449 l -63.65,169.316 c -6.74,17.93 -7.98,37.168 -3.99,55.375 -1.64,1.58 -3.27,3.16 -4.89,4.77 -68.18,66.52 -104.9,153.2 -108.62,257.12 -3.96,110.51 29.13,206.93 98.34,286.63 68.69,80.29 159.09,124.95 260.94,128.59 33.77,1.25 66.01,-1.63 96.79,-8.47 14.95,8.88 32.43,13.51 51.1,13.66 l 195.23,-2.38 c 27.07,-0.33 52.79,-11.86 71.06,-31.85 18.26,-19.98 27.43,-46.64 25.33,-73.62 l -40.25,-517.44 C 2992.94,921.715 2900,740.035 2522.09,726.5 c -1.18,-0.039 -2.36,-0.07 -3.53,-0.07 z m 178.92,370.77 c 16.75,-13.06 29.34,-31.61 34.77,-53.66 7.55,-30.67 -0.2,-61.739 -18.69,-84.786 88.85,39.336 93.43,99.426 95.59,127.846 l 12.4,159.3 c -6.58,-27.66 -16.72,-52.01 -30.49,-73.4 -22.74,-35.35 -54.89,-60.97 -93.58,-75.3 z m -72.3,224.96 c 0.17,-0.05 -4.96,-8.97 -4,-35.8 0.09,-2.53 0.25,-4.73 0.44,-6.63 0.18,0.01 0.38,0.01 0.56,0.02 2.29,0.08 3.99,0.27 5.19,0.47 2.14,4.56 6.79,17.52 7.5,45.1 -6.66,-1.34 -9.35,-2.94 -9.69,-3.16 z m 156.57,145.13 c 29.12,-30.98 45.78,-69.17 48.39,-110.88 l 11.17,143.59 -13.13,0.16 c -7.96,-10.25 -18,-18.98 -29.72,-25.51 -5.38,-2.99 -10.98,-5.45 -16.71,-7.36" /><path
         id="path202"
         style="fill:#ffffff;fill-opacity:1;fill-rule:nonzero;stroke:none"
         d="m 2947.01,1596.61 -40.25,-517.44 C 2894.5,918.078 2765.11,833.145 2518.59,824.32 l -63.65,169.321 c 76.71,2.75 137.52,11.569 182.42,26.519 -6.23,-1.03 -14.05,-1.7 -23.46,-2.03 -76.66,-2.74 -140.21,20.85 -190.59,70.75 -50.35,49.13 -76.88,112.84 -79.68,191.08 -3.05,85.31 21.74,158.27 74.42,218.94 51.88,60.64 115.41,92.28 190.54,94.97 53.21,1.9 100.63,-9.31 142.25,-33.7 l 0.95,38.82 z m -214.45,-248.63 c -0.72,20.3 -8.39,38.06 -23.04,53.22 -17.05,16.61 -37.71,24.52 -61.97,23.66 -86.08,-3.09 -127.47,-50.43 -124.19,-142 2.49,-69.64 36.6,-103.29 102.32,-100.93 75.14,2.69 110.75,58.05 106.88,166.05" /><path
         id="path204"
         style="fill:#ffffff;fill-opacity:1;fill-rule:nonzero;stroke:none"
         d="m 2518.58,775.375 c -20.33,0 -38.62,12.59 -45.81,31.73 l -63.64,169.317 c -5.54,14.734 -3.65,31.248 5.08,44.358 1.6,2.4 3.39,4.63 5.35,6.68 -10.66,8.05 -20.89,16.94 -30.69,26.65 -59.13,57.69 -90.89,133.18 -94.15,224.11 -3.5,97.71 25.57,182.75 86.38,252.77 60.65,70.9 136.69,108.6 225.74,111.79 37.84,1.35 73.44,-3.09 106.72,-13.23 8.98,11.23 22.8,18.38 38.22,18.38 0.2,0 0.4,0 0.61,0 l 195.22,-2.39 c 13.53,-0.16 26.4,-5.93 35.53,-15.91 9.13,-10 13.71,-23.33 12.66,-36.82 l -40.25,-517.44 c -9.9,-130.042 -93.44,-287.718 -435.21,-299.964 -0.59,-0.019 -1.18,-0.031 -1.76,-0.031 z m 5.43,173.605 27.78,-73.898 c 291.92,20.734 302.57,160.648 306.16,207.798 l 36.21,465.42 -95.56,1.17 c -3.02,-13.46 -11.64,-25.2 -23.95,-32.06 -15.14,-8.42 -33.61,-8.23 -48.55,0.54 -33.73,19.75 -71.67,28.55 -115.76,27 -61.42,-2.19 -112.15,-27.67 -155.09,-77.86 -44.89,-51.7 -65.32,-112.23 -62.71,-185.38 2.36,-65.83 23.6,-117.46 64.95,-157.8 41.07,-40.67 91.63,-59.14 154.65,-56.86 9.2,0.32 14.43,0.93 17.2,1.39 25.2,4.2 49.37,-11.71 55.53,-36.5 6.14,-24.8 -7.81,-50.147 -32.05,-58.213 -35.25,-11.739 -77.75,-19.922 -128.81,-24.747 z m 95.33,183.89 c -88.71,0.01 -141.52,54.03 -144.89,148.24 -4.25,118.38 58.21,188.6 171.34,192.66 37.73,1.27 71.37,-11.68 97.89,-37.52 0.35,-0.34 0.7,-0.69 1.03,-1.04 22.9,-23.69 35.61,-53.24 36.76,-85.47 2.33,-64.83 -8,-114.15 -31.56,-150.76 -18.51,-28.76 -54.78,-63.55 -122.48,-65.97 -2.73,-0.1 -5.43,-0.14 -8.09,-0.14 z m 31.78,243.11 -1.82,-0.04 c -49.51,-1.76 -79.67,-17.66 -77.03,-91.33 1.79,-49.98 20.64,-53.85 47.07,-53.85 1.51,0 3.04,0.03 4.59,0.08 27.13,0.97 37.29,11.21 43.66,21.11 8.4,13.05 18,40 16.06,94.28 -0.29,8 -2.93,14.15 -8.81,20.41 -6.92,6.54 -14.05,9.34 -23.72,9.34" /><path
         id="path206"
         style="fill:#e3628f;fill-opacity:1;fill-rule:nonzero;stroke:none"
         d="m 2947.01,1596.61 -40.25,-517.44 C 2894.5,918.078 2765.11,833.145 2518.59,824.32 l -63.65,169.321 c 76.71,2.75 137.52,11.569 182.42,26.519 -6.23,-1.03 -14.05,-1.7 -23.46,-2.03 -76.66,-2.74 -140.21,20.85 -190.59,70.75 -50.35,49.13 -76.88,112.84 -79.68,191.08 -3.05,85.31 21.74,158.27 74.42,218.94 51.88,60.64 115.41,92.28 190.54,94.97 53.21,1.9 100.63,-9.31 142.25,-33.7 l 0.95,38.82 z m -214.45,-248.63 c -0.72,20.3 -8.39,38.06 -23.04,53.22 -17.05,16.61 -37.71,24.52 -61.97,23.66 -86.08,-3.09 -127.47,-50.43 -124.19,-142 2.49,-69.64 36.6,-103.29 102.32,-100.93 75.14,2.69 110.75,58.05 106.88,166.05" /><path
         id="path208"
         style="fill:#e3628f;fill-opacity:1;fill-rule:nonzero;stroke:none"
         d="m 2656.53,1304.59 c -0.24,-24.51 -13.24,-44.25 -29.05,-44.1 -15.82,0.15 -28.44,20.14 -28.21,44.65 0.23,24.5 13.24,44.25 29.05,44.09 15.81,-0.15 28.44,-20.14 28.21,-44.64" /><path
         id="path210"
         style="fill:#ffffff;fill-opacity:1;fill-rule:nonzero;stroke:none"
         d="m 5256.98,557.621 c 0.93,-0.121 3.89,-0.508 3.89,-0.508 0,0 -1.66,0.399 -3.89,0.508" /><path
         id="path212"
         style="fill:#b0a39a;fill-opacity:1;fill-rule:nonzero;stroke:none"
         d="m 5260.87,554.957 c -0.09,0 -0.19,0 -0.28,0.008 l -3.9,0.519 c -1.15,0.157 -1.97,1.184 -1.86,2.332 0.1,1.125 1.04,1.965 2.15,1.965 0.03,0 0.07,0 0.11,0 2.41,-0.117 4.21,-0.547 4.29,-0.566 1.11,-0.274 1.82,-1.367 1.62,-2.492 -0.2,-1.035 -1.11,-1.766 -2.13,-1.766" /><path
         id="path214"
         style="fill:#59ae54;fill-opacity:1;fill-rule:nonzero;stroke:none"
         d="m 5714.53,2407.28 c 0,39.76 -32.22,71.92 -71.95,71.92 -39.72,0 -71.92,-32.16 -71.92,-71.92 0,-39.7 32.2,-71.93 71.92,-71.93 39.73,0 71.95,32.23 71.95,71.93" /><path
         id="path216"
         style="fill:#7cc02f;fill-opacity:1;fill-rule:nonzero;stroke:none"
         d="m 5468.95,2156.71 c 0,53.53 -43.39,96.84 -96.88,96.84 -53.49,0 -96.85,-43.31 -96.85,-96.84 0,-53.45 43.36,-96.85 96.85,-96.85 53.49,0 96.88,43.4 96.88,96.85" /><path
         id="path218"
         style="fill:#eebf24;fill-opacity:1;fill-rule:nonzero;stroke:none"
         d="m 618.441,2335.35 c 0,39.76 -32.218,71.93 -71.945,71.93 -39.726,0 -71.926,-32.17 -71.926,-71.93 0,-39.69 32.2,-71.92 71.926,-71.92 39.727,0 71.945,32.23 71.945,71.92" /><path
         id="path220"
         style="fill:#e3628f;fill-opacity:1;fill-rule:nonzero;stroke:none"
         d="m 571.434,1932.95 c 0,53.54 -43.383,96.85 -96.879,96.85 -53.489,0 -96.848,-43.31 -96.848,-96.85 0,-53.45 43.359,-96.85 96.848,-96.85 53.496,0 96.879,43.4 96.879,96.85" /><path
         id="path222"
         style="fill:#4eb6e1;fill-opacity:1;fill-rule:nonzero;stroke:none"
         d="m 4029.3,3900.58 c 0,39.76 32.22,71.93 71.94,71.93 39.73,0 71.93,-32.17 71.93,-71.93 0,-39.69 -32.2,-71.93 -71.93,-71.93 -39.72,0 -71.94,32.24 -71.94,71.93" /><path
         id="path224"
         style="fill:#de3f2d;fill-opacity:1;fill-rule:nonzero;stroke:none"
         d="m 3678.61,3588.98 c 0,53.54 43.37,96.85 96.87,96.85 53.49,0 96.85,-43.31 96.85,-96.85 0,-53.45 -43.36,-96.85 -96.85,-96.85 -53.5,0 -96.87,43.4 -96.87,96.85" /><path
         id="path226"
         style="fill:#7cc02f;fill-opacity:1;fill-rule:nonzero;stroke:none"
         d="M 451.836,2773.87 414.938,2641.95 474.57,2490.1 305.16,2494.84 194.281,2388.38 138.012,2541.34 0,2609.84 l 133.855,91.18 31.836,154.15 127.532,-85.1 158.613,3.8" /><path
         id="path228"
         style="fill:#eebf24;fill-opacity:1;fill-rule:nonzero;stroke:none"
         d="m 3461.74,3661.93 -160.45,-95.72 -83.9,-205.99 -162.94,163.8 -209.77,-1.08 88.16,204.38 -72.03,197.37 218.14,-35.73 176.37,122.48 46.02,-204.05 160.4,-145.46" /><path
         id="path230"
         style="fill:#e77021;fill-opacity:1;fill-rule:nonzero;stroke:none"
         d="m 5810.8,3151.99 -102.71,-94.6 -29.75,-163.84 -144.5,95 -153.4,-33.01 33.18,163.03 -83.1,133.41 165.14,7.51 110.33,116.63 65.09,-142.29 139.72,-81.84" /></g></g></svg>