<?xml version="1.0" encoding="UTF-8" standalone="no"?><!DOCTYPE svg PUBLIC "-//W3C//DTD SVG 1.1//EN" "http://www.w3.org/Graphics/SVG/1.1/DTD/svg11.dtd"><svg width="100%" height="100%" viewBox="0 0 550 650" version="1.1" xmlns="http://www.w3.org/2000/svg" xmlns:xlink="http://www.w3.org/1999/xlink" xml:space="preserve" xmlns:serif="http://www.serif.com/" style="fill-rule:evenodd;clip-rule:evenodd;stroke-linejoin:round;stroke-miterlimit:2;"><g id="g10"><g id="g14"><path id="path16" d="M550,650l-550,0l0,-650l550,-0l-0,650" style="fill:#fff;fill-rule:nonzero;"/></g><g><g id="g18"><path id="path20" d="M308.123,135.067c0.821,0.266 1.674,0.425 2.443,0.496c0.114,0.01 0.227,0.02 0.347,0.026c0.224,-0.412 0.344,-0.905 0.325,-1.466c-0.149,-0.023 -0.299,-0.062 -0.448,-0.12c-0.629,-0.25 -1.071,-0.757 -1.366,-1.373c-1.055,0.237 -2.278,-0.808 -1.496,-1.895c0.315,-0.438 0.5,-0.961 0.717,-1.461c-0.1,-0.097 -0.204,-0.191 -0.305,-0.285c-0.107,-0.094 -0.234,-0.201 -0.373,-0.315c-0.091,0.377 -0.156,0.73 -0.201,1.029c-0.25,1.632 -0.438,3.787 0.357,5.364Zm0.227,4.54c0.279,4.579 0.801,9.128 1.46,13.665c0.01,-1.291 -0.003,-2.583 -0.036,-3.871c-0.084,-3.281 -0.327,-6.542 -0.107,-9.804c-0.081,-0.026 -0.159,-0.058 -0.237,-0.087c-0.353,0.038 -0.717,0.048 -1.087,0.029c0,0.022 0.007,0.045 0.007,0.068Zm4.767,0.389c-0.003,-0.029 -0.003,-0.055 -0.003,-0.081l-0.013,0c0.006,0.026 0.009,0.052 0.016,0.081Zm0.629,-7.165c0.13,-0.285 0.231,-0.578 0.296,-0.873c-0.003,-0.113 -0.01,-0.221 -0.023,-0.324c-0.045,0.36 -0.146,0.71 -0.308,1.035c0.01,0.052 0.022,0.107 0.035,0.162Zm-8.709,20.178c-0,-3.04 -0.01,-6.081 -0.01,-9.119c-0,-1.453 0.019,-2.904 -0.075,-4.354c-0.016,-0.276 -0.013,-0.542 0,-0.805c-0.977,-0.338 -1.892,-0.863 -2.671,-1.603c-2.622,-2.486 -2.174,-6.484 -0.976,-9.564c0.46,-1.181 1.174,-1.953 2.031,-2.382c0.97,-1.223 2.22,-1.931 3.592,-2.223c0.701,-0.295 1.412,-0.451 2.123,-0.493c2.846,-1.421 5.672,0.656 7.21,3.171c0.153,0.253 0.299,0.516 0.439,0.782c0.723,0.723 1.324,1.518 1.755,2.356c1.298,1.372 2.174,3.089 1.824,4.997c-0.279,1.525 -1.243,2.548 -2.479,3.232c-0.25,0.37 -0.539,0.727 -0.873,1.052c-0.354,0.34 -0.74,0.639 -1.149,0.889c0.636,6.396 1.191,12.805 1.337,19.227c-3.797,0.231 -7.85,0.347 -12.059,0.448c-0.032,-1.872 -0.019,-3.748 -0.019,-5.611" style="fill-rule:nonzero;"/></g><g id="g22"><path id="path24" d="M346.444,134.815c-0.149,0.38 -0.565,1.622 -0.181,1.906c0.132,0.1 0.739,-0.568 0.929,-0.832c0.084,-0.119 0.19,-0.274 0.297,-0.448c-0.32,-0.32 -0.681,-0.552 -1.045,-0.626Zm-4.368,-6.816c-0.026,0.02 -0.048,0.042 -0.074,0.062l0.006,-0c0.088,-0 0.171,0.009 0.249,0.022c0.535,-0.368 1.103,-0.655 1.7,-0.845c-0.681,0.097 -1.32,0.339 -1.881,0.761Zm-0.5,8.209c0.042,0.784 0.268,1.449 0.684,1.968c0.51,0.264 1.029,0.474 1.474,0.629c-0.158,-0.139 -0.306,-0.281 -0.445,-0.423c-0.113,-0.119 -0.213,-0.242 -0.306,-0.367c-0.507,-0.146 -0.939,-0.555 -0.965,-1.229c-0.045,-1.097 -0.129,-2.239 0.049,-3.239c-0.362,0.836 -0.539,1.774 -0.491,2.661Zm1.461,19.05c0.123,-1.209 0.278,-2.425 0.433,-3.644c-0.274,0.012 -0.552,-0.088 -0.784,-0.252c-0,1.048 -0.003,2.097 -0.013,3.145c-0.013,1.522 -0.081,3.054 -0.113,4.58c0.207,-1.268 0.352,-2.548 0.477,-3.829Zm4.458,5.861c-0.177,0.949 -0.364,1.897 -0.561,2.842c-2.493,-1.823 -5.28,-3.142 -8.245,-4.074c0.01,-5.68 -0.025,-11.36 -0.032,-17.037l0,-0.533c0,-0.377 0.129,-0.67 0.329,-0.883c-0.8,-0.752 -1.364,-1.716 -1.558,-2.923c-1.08,-1.787 -1.645,-3.961 -1.438,-5.957c0.148,-1.474 0.774,-3.006 2.038,-3.864c0.09,-0.065 0.184,-0.12 0.278,-0.168c0.187,-0.365 0.403,-0.716 0.648,-1.055c1.777,-2.458 4.49,-3.232 7.396,-2.684c5.303,0.997 12.077,6.081 9.37,12.183c-0.09,0.203 -0.193,0.4 -0.3,0.597c-0.067,0.594 -0.248,1.19 -0.564,1.784c-0.61,1.142 -1.597,2.054 -2.742,2.741c-0.493,0.536 -1.074,1 -1.738,1.368c-0.081,0.045 -0.162,0.084 -0.242,0.123c-0.152,0.622 -0.291,1.245 -0.42,1.874c0.229,0.213 0.384,0.525 0.381,0.942c-0.026,6.576 0.735,13.218 -0.626,19.708c-0.742,-0.723 -1.522,-1.387 -2.335,-1.994c0.164,-0.993 0.284,-1.99 0.361,-2.99" style="fill-rule:nonzero;"/></g><g id="g26"><path id="path28" d="M361.075,194.809c2.11,-0.687 4.242,-1.175 6.406,-1.647c4.638,-1.006 9.279,-1.997 13.88,-3.158c1.669,-0.421 2.376,2.152 0.709,2.573c-4.601,1.158 -9.242,2.153 -13.88,3.158c-2.164,0.472 -4.296,0.96 -6.407,1.647c-0.553,0.178 -1.104,0.359 -1.658,0.534c-0.101,-0.901 -0.206,-1.8 -0.313,-2.698c0.421,-0.135 0.842,-0.274 1.263,-0.409" style="fill-rule:nonzero;"/></g><g id="g30"><path id="path32" d="M373.572,206.232c1.683,-0.254 2.402,2.318 0.711,2.571c-4.337,0.654 -8.663,1.378 -12.896,2.493c-0.068,-0.899 -0.142,-1.801 -0.215,-2.703c4.075,-1.04 8.232,-1.735 12.4,-2.361" style="fill-rule:nonzero;"/></g><g id="g34"><path id="path36" d="M370.033,228.254c1.72,-0.003 1.715,2.665 -0,2.67c-2.557,0.003 -5.105,0.251 -7.646,0.31c-0.023,-0.871 -0.047,-1.743 -0.072,-2.618c2.574,-0.059 5.159,-0.357 7.718,-0.362" style="fill-rule:nonzero;"/></g><g id="g38"><path id="path40" d="M381.068,249.025c1.708,-0.177 1.691,2.493 0,2.67c-6.054,0.628 -12.118,1.135 -18.199,1.265c-0.039,-0.888 -0.076,-1.777 -0.111,-2.667c6.121,-0.128 12.222,-0.635 18.31,-1.268" style="fill-rule:nonzero;"/></g><g id="g42"><path id="path44" d="M373.927,271.097c1.718,-0.095 1.707,2.574 -0,2.669c-3.404,0.186 -6.808,0.377 -10.214,0.502c-0.017,-0.89 -0.04,-1.778 -0.063,-2.667c3.425,-0.125 6.852,-0.316 10.277,-0.504" style="fill-rule:nonzero;"/></g><g id="g46"><path id="path48" d="M375.519,297.11c1.68,-0.339 2.392,2.234 0.709,2.571c-4.168,0.842 -8.376,1.173 -12.595,1.297c0.007,-0.883 0.011,-1.766 0.018,-2.649c3.979,-0.116 7.944,-0.428 11.868,-1.219" style="fill-rule:nonzero;"/></g><g id="g50"><path id="path52" d="M364.433,317.88c2.734,0.005 5.463,-0.046 8.194,-0.046c1.721,-0.002 1.718,2.666 0,2.669c-2.993,-0 -5.985,0.078 -8.98,0.044l-0.141,-0c0.007,-0.886 0.011,-1.77 0.016,-2.653c0.324,-0.007 0.633,-0.014 0.911,-0.014" style="fill-rule:nonzero;"/></g><g id="g54"><path id="path56" d="M368.679,335.546c2.806,-0.245 5.534,-0.846 8.315,-1.253c2.142,-0.315 4.671,-1.109 6.695,-0.049c1.522,0.798 0.173,3.1 -1.349,2.304c-0.941,-0.493 -2.297,0.033 -3.299,0.155c-1.325,0.164 -2.64,0.366 -3.956,0.606c-2.642,0.484 -5.275,0.838 -7.954,1.025c-1.247,0.09 -2.496,0.183 -3.743,0.266c0.005,-0.895 0.012,-1.79 0.016,-2.683c1.761,-0.109 3.522,-0.218 5.275,-0.371" style="fill-rule:nonzero;"/></g><g id="g58"><path id="path60" d="M381.067,355.483c1.719,-0.025 1.715,2.643 -0,2.669c-5.955,0.088 -11.875,0.891 -17.816,1.21c0.007,-0.891 0.012,-1.779 0.019,-2.67c5.934,-0.32 11.849,-1.121 17.797,-1.209" style="fill-rule:nonzero;"/></g><g id="g62"><path id="path64" d="M365.092,377.234c3.507,-0.59 6.987,-1.324 10.427,-2.23c1.665,-0.437 2.368,2.14 0.711,2.575c-3.61,0.947 -7.263,1.706 -10.944,2.313c-0.711,0.118 -1.438,0.254 -2.172,0.389c0.007,-0.896 0.012,-1.795 0.019,-2.693c0.662,-0.123 1.315,-0.245 1.959,-0.354" style="fill-rule:nonzero;"/></g><g id="g66"><path id="path68" d="M376.228,397.077c1.682,0.354 0.966,2.925 -0.708,2.57c-4.123,-0.87 -8.333,-0.771 -12.527,-0.669c0.005,-0.885 0.012,-1.769 0.016,-2.656c4.428,-0.09 8.854,-0.169 13.219,0.755" style="fill-rule:nonzero;"/></g><g id="g70"><path id="path72" d="M378.47,422.344c1.719,0.017 1.717,2.686 -0,2.669c-5.297,-0.054 -10.452,1.241 -15.661,2.025c0.007,-0.89 0.012,-1.78 0.016,-2.671c5.202,-0.786 10.353,-2.077 15.645,-2.023" style="fill-rule:nonzero;"/></g><g id="g74"><path id="path76" d="M365.374,447.505c3.691,-0.6 7.417,-0.932 11.149,-1.142c1.721,-0.097 1.709,2.571 0,2.669c-3.837,0.216 -7.674,0.546 -11.462,1.22c-0.828,0.148 -1.655,0.309 -2.481,0.467c0.017,-0.923 0.031,-1.829 0.044,-2.713c0.916,-0.177 1.83,-0.351 2.75,-0.501" style="fill-rule:nonzero;"/></g><g id="g78"><path id="path80" d="M367.534,467.379c4.5,0.488 9.014,0.811 13.533,1.054c1.71,0.092 1.717,2.761 0,2.668c-4.867,-0.261 -9.729,-0.616 -14.57,-1.169c-1.373,-0.157 -2.749,-0.311 -4.122,-0.469c0,-0.903 0.002,-1.8 0.007,-2.688c1.719,0.191 3.433,0.418 5.152,0.604" style="fill-rule:nonzero;"/></g><g id="g82"><path id="path84" d="M366.121,489.863c3.685,-0.013 7.368,-0.009 11.053,-0.009c1.72,0 1.717,2.669 -0,2.669c-3.859,0 -7.72,-0.008 -11.579,0.011c-0.917,0.003 -1.844,0.034 -2.767,0.055c-0.039,-0.883 -0.074,-1.764 -0.109,-2.641c1.141,-0.028 2.278,-0.082 3.402,-0.085" style="fill-rule:nonzero;"/></g><g id="g86"><path id="path88" d="M369.678,511.261c2.177,-0.25 4.381,-0.388 6.547,-0.746c1.865,-0.31 3.578,-1.128 5.492,-1.187c1.72,-0.052 1.713,2.617 -0,2.668c-1.859,0.057 -3.625,0.937 -5.469,1.187c-2.016,0.274 -4.04,0.461 -6.06,0.688c-1.9,0.213 -3.809,0.371 -5.718,0.536c-0.097,-0.872 -0.192,-1.746 -0.28,-2.619c1.831,-0.161 3.662,-0.318 5.488,-0.527" style="fill-rule:nonzero;"/></g><g id="g90"><path id="path92" d="M377.467,526.254c1.675,-0.388 2.381,2.185 0.709,2.573c-3.522,0.815 -7.365,2.161 -11.171,2.643c-0.165,-0.867 -0.326,-1.737 -0.479,-2.612c3.725,-0.413 7.516,-1.812 10.941,-2.604" style="fill-rule:nonzero;"/></g><g id="g94"><path id="path96" d="M376.817,540.533c1.615,-0.601 2.304,1.979 0.709,2.574c-2.332,0.869 -4.72,1.864 -7.166,2.546c-0.244,-0.848 -0.482,-1.702 -0.715,-2.564c2.453,-0.666 4.844,-1.688 7.172,-2.556" style="fill-rule:nonzero;"/></g><g id="g98"><path id="path100" d="M380.394,556.248c1.556,-0.693 2.913,1.608 1.348,2.304c-1.891,0.841 -3.853,1.512 -5.755,2.326c-0.373,-0.794 -0.734,-1.602 -1.086,-2.419c1.819,-0.765 3.69,-1.409 5.493,-2.211" style="fill-rule:nonzero;"/></g><g id="g102"><path id="path104" d="M384.019,569.439c1.232,-1.2 3.12,0.687 1.886,1.887c-0.735,0.718 -1.554,1.434 -2.431,2.072c-0.535,-0.695 -1.056,-1.406 -1.564,-2.135c0.776,-0.572 1.489,-1.22 2.109,-1.824" style="fill-rule:nonzero;"/></g><g id="g106"><path id="path108" d="M344.695,469.472c0.294,0.217 0.629,0.397 1.029,0.522c0.117,0.037 0.25,0.052 0.384,0.048c0.619,0.26 1.318,0.281 2.11,-0.076c0.015,-0.006 0.027,-0.014 0.041,-0.02c-0.211,0.456 -0.464,0.89 -0.774,1.279c-0.976,1.217 -1.569,0.408 -2.22,-0.673c-0.211,-0.352 -0.4,-0.713 -0.57,-1.08" style="fill:#ffd200;fill-rule:nonzero;"/></g><g id="g110"><path id="path112" d="M345.612,460.451c0.121,-0.023 0.24,-0.061 0.349,-0.114c-0.065,0.369 -0.138,0.739 -0.221,1.106c-0.053,-0.33 -0.094,-0.663 -0.128,-0.992" style="fill:#ffd200;fill-rule:nonzero;"/></g><g id="g114"><path id="path116" d="M332.562,333.071c-0.008,0.108 0.007,0.349 0.015,0.63c-0.163,0.386 -0.351,0.765 -0.564,1.128c-0.101,-0.288 -0.158,-0.674 -0.168,-0.805c-0.111,-1.138 0.193,-2.332 0.935,-3.21c0.123,-0.142 0.206,-0.29 0.258,-0.443c-0.062,0.376 -0.158,0.737 -0.2,0.973c-0.113,0.571 -0.236,1.143 -0.276,1.727" style="fill:#ffd200;fill-rule:nonzero;"/></g><g id="g118"><path id="path120" d="M339.574,500.805c-0.71,-0.061 -1.441,0.364 -1.389,1.278c0.052,0.912 0.188,1.778 0.38,2.617c-0.039,0.723 -0.029,1.497 0.055,2.268c-0.126,-0.405 -0.243,-0.806 -0.354,-1.199c-0.378,-1.354 -0.744,-2.884 -0.435,-4.288c0.136,-0.619 0.44,-1.217 1.009,-1.544c0.598,-0.345 1.058,-0.125 1.473,0.271c-0.329,0.062 -0.573,0.313 -0.739,0.597" style="fill:#ffd200;fill-rule:nonzero;"/></g><g id="g122"><path id="path124" d="M314.384,185.832c-0.006,-0.314 -0.089,-0.625 -0.254,-0.857c-0.679,-0.95 -1.35,-1.388 -2.544,-1.398c-0.498,-0.003 -0.892,0.159 -1.181,0.413c-0.505,0.019 -1.004,0.092 -1.506,0.216c-1.242,-0.035 -2.649,0.566 -3.856,1.483c-1.165,0.569 -2.159,1.309 -2.363,2.738c-0.797,1.563 -0.762,3.214 0.877,4.275c3.586,2.325 12.085,-3.621 10.827,-6.87Zm10.986,227.934c0.388,1.29 1.455,2.213 2.846,2.106c1.423,-0.109 2.433,-1.317 3.125,-2.45c1.277,-2.078 2.49,-4.974 2.268,-7.465c-0.114,-1.287 -0.676,-2.658 -2.061,-2.974c-1.391,-0.317 -2.808,0.611 -3.545,1.727c-0.12,0.185 -0.247,0.401 -0.374,0.641c-0.201,0.061 -0.401,0.188 -0.578,0.399c-1.604,1.899 -2.395,5.636 -1.681,8.016Zm11.291,150.354c0.191,0.634 0.461,1.229 0.775,1.719c0.925,1.428 2.49,1.771 3.558,0.229c0.666,-0.965 0.755,-2.114 0.555,-3.234c0.925,-2.179 0.343,-5.397 -1.743,-6.24c-0.401,-0.162 -1.026,0.018 -1.299,0.342c-0.118,0.139 -0.22,0.28 -0.308,0.421c-1.191,-0.936 -2.506,-1.258 -3.434,0.296c-1.096,1.829 0.026,4.996 1.896,6.467Zm6.8,-49.822c0.312,0.15 0.661,0.226 1.048,0.192c0.607,-0.052 1.106,-0.381 1.287,-0.979c1.362,-4.509 0.702,-8.695 -1.757,-12.688c-0.87,-1.41 -1.921,-3.118 -3.614,-3.619c-1.725,-0.513 -3.545,0.471 -4.481,1.923c-1.766,2.742 -0.61,6.563 0.397,9.371c0.778,2.168 1.861,5.285 4.014,6.464c1.344,0.736 2.373,0.266 3.106,-0.664Zm6.864,-42.553c1.219,-2.174 1.591,-4.812 1.353,-7.271c-0.13,-1.377 -0.426,-2.777 -0.972,-4.064c0.038,-0.523 0.083,-1.048 0.143,-1.577c0.511,-4.372 -0.511,-9.746 -5.399,-11.097c-0.617,-0.17 -1.16,0.126 -1.509,0.613c-1.153,1.611 -1.855,3.359 -2.3,5.223c-0.409,0.839 -0.555,1.958 -0.54,3.18c-0.301,2.395 -0.463,4.819 -0.323,7.231c0.127,2.232 0.533,4.388 1.435,6.438c0.686,1.56 1.731,3.474 3.472,4.033c2.074,0.666 3.709,-1.05 4.64,-2.709Zm4.964,-56.968c0.197,-2.8 0.143,-6.303 -2.077,-8.366c-2.471,-2.3 -6.114,-1.676 -7.324,1.508c-0.918,2.426 -0.737,5.239 -0.388,7.762c0.273,2.003 0.75,4.971 2.281,6.678c0.711,1.276 1.699,2.353 3.081,2.891c0.444,0.173 0.971,-0.043 1.295,-0.343c2.741,-2.521 2.891,-6.655 3.132,-10.13Zm-1.766,122.507c0.06,1.611 0.467,3.517 1.966,4.238c0.575,0.276 1.14,0.208 1.617,-0.209c0.943,-0.818 1.296,-2.354 1.556,-3.516c0.346,-1.525 0.584,-3.16 0.391,-4.722c-0.15,-1.206 -0.75,-2.521 -2.1,-2.698c-1.213,-0.16 -2.048,0.818 -2.509,1.816c-0.006,0.017 -0.016,0.038 -0.022,0.054c-0.699,0.85 -0.943,2.235 -0.896,3.403c-0.054,0.554 -0.06,1.107 -0.003,1.634Zm1.055,41.495c0.136,1.628 0.628,3.35 2.058,4.209c0.181,0.11 0.355,0.197 0.53,0.275c4.818,3.608 7.473,-5.525 7.531,-9.039c0.022,-1.449 -0.343,-3.083 -1.258,-4.223c-0.013,-0.044 -0.022,-0.087 -0.032,-0.129c-0.33,-1.168 -1.2,-2.054 -2.404,-2.297c-1.004,-0.201 -1.858,0.2 -2.503,0.867c-0.616,-0.61 -1.944,-0.587 -2.344,0.507c-0.997,2.737 -2.112,6.58 -1.578,9.83Zm12.281,-405.74c2.386,-2.067 4.822,-4.091 6.88,-6.498c0.962,-1.128 1.934,-2.401 2.414,-3.821c0.301,-0.902 0.463,-2.442 -0.556,-3.03c-0.737,-0.422 -2.163,0.127 -2.89,0.34c-0.969,0.283 -1.95,0.6 -2.872,1.004c-2.566,1.124 -5.005,2.737 -7.136,4.551c-2.897,2.471 -5.323,5.402 -7.839,8.248c1.007,2.141 1.788,4.367 2.414,6.654c3.214,-2.455 6.524,-4.793 9.585,-7.448Zm-13.107,166.675c-0.416,-0.185 -0.88,-0.297 -1.401,-0.315c-3.265,-0.114 -4.561,4.064 -4.548,6.715c0.01,2.532 0.248,5.16 0.854,7.62c0.124,0.505 0.305,1.082 0.547,1.644c0.127,0.831 0.308,1.655 0.53,2.467c0.241,0.875 0.483,2.473 1.236,3.053c1.025,0.788 2.544,0.182 3.331,-0.644c0.909,-0.958 1.369,-2.338 1.703,-3.586c0.844,-3.16 1.083,-6.583 1.003,-9.845c0,-0.101 -0.006,-0.205 -0.009,-0.309c0.101,-1.652 0.19,-3.413 -0.432,-4.955c-0.34,-0.837 -0.931,-1.558 -1.82,-1.831c-0.362,-0.112 -0.692,-0.102 -0.994,-0.014Zm-1.074,-51.691c-1.324,-1.785 -3.382,-3.126 -5.679,-2.563c-1.772,0.435 -2.48,1.769 -3.084,3.363c-0.349,0.921 -0.663,1.918 -0.924,2.947c-0.438,0.779 -0.806,1.607 -1.105,2.497c-0.873,2.591 -1.236,5.571 0.47,7.899c3.087,4.211 7.708,0.502 9.932,-2.538c1.095,-1.496 2.156,-3.316 2.366,-5.193c0.254,-2.217 -0.67,-4.65 -1.976,-6.412Zm-0.949,-60.082c-0.207,-1.68 -0.788,-3.913 -2.522,-4.634c-2.128,-0.886 -3.284,0.756 -3.932,2.69c-0.766,1.124 -1.109,2.658 -1.296,3.878c-0.33,2.166 -0.61,4.958 0.349,7.013c0.096,0.203 0.204,0.39 0.321,0.562c0.365,1.76 1.093,3.402 2.249,4.666c0.381,0.419 1.14,0.52 1.616,0.209c2.754,-1.794 2.649,-5.637 3.027,-8.543c0.254,-1.935 0.432,-3.894 0.188,-5.841Zm-11.24,149.797c-0.197,-0.938 -0.563,-1.943 -1.049,-2.915c0.204,-1.625 0.067,-3.27 -0.59,-4.851c-0.515,-1.236 -2.481,-1.275 -2.611,0.172c-0.305,0.009 -0.6,0.036 -0.877,0.08c-1.664,-0.738 -3.331,0.069 -4.049,1.873c-0.75,1.886 -0.686,4.121 -0.527,6.111c0.149,1.858 0.444,3.762 1.4,5.399c0.527,0.904 1.363,1.778 2.487,1.763c0.896,-0.014 1.591,-0.567 2.096,-1.268c0.108,-0.022 0.213,-0.044 0.321,-0.076c2.786,-0.824 3.967,-3.601 3.399,-6.288Zm-4.714,-48.674c-0.06,-0.184 -0.133,-0.362 -0.222,-0.531c-0.308,-1.172 -1.102,-2.089 -2.56,-2.258c-0.378,-0.044 -0.74,-0.041 -1.083,0c-4.694,-1.118 -6.286,6.647 -5.885,9.92c0.27,2.225 2.096,4.301 4.481,3.522c1.874,0.744 4.218,0.669 5.472,-1.074c1.941,-2.696 1.7,-6.8 -0.203,-9.579Zm-2.379,-60.219c-0.403,-0.952 -1.121,-1.746 -2.166,-1.962c-1.073,-0.223 -2.188,0.212 -2.725,1.188c-0.867,1.565 -0.19,3.55 0.124,5.177c0.235,1.216 1.642,1.181 2.284,0.435c0.028,0.016 0.057,0.031 0.085,0.047c1.347,0.667 2.367,-0.521 2.671,-1.737c0.261,-1.035 0.14,-2.176 -0.273,-3.148Zm44.361,350.671c0.771,1.426 2.429,2.297 4.04,1.912c0.336,-0.08 0.644,-0.209 0.936,-0.372c0.674,0.245 1.436,0.248 2.176,0.002c1.864,-0.618 2.894,-2.575 3.576,-4.274c1.382,-3.44 2.589,-8.219 -1.178,-10.574c-0.13,-0.083 -0.273,-0.165 -0.419,-0.244c0.025,-0.684 -0.4,-1.427 -1.274,-1.505c-0.924,-0.083 -1.661,0.048 -2.255,0.335c-0.638,-0.068 -1.261,-0.045 -1.826,0.108c-1.855,0.499 -2.747,2.261 -3.319,3.943c-1.042,3.076 -2.096,7.626 -0.457,10.669Zm27.736,-13.948c0.283,0.426 0.651,0.765 1.077,1.032c0.216,2.814 3.465,3.52 5.857,3.273c2.645,-0.275 7.025,-2.101 5.742,-5.504c-0.667,-1.769 -2.55,-3.245 -4.037,-4.302c-1.645,-1.172 -3.763,-1.87 -5.688,-0.924c-2.093,1.032 -4.513,4.072 -2.951,6.425Zm14.035,25.293c0.401,1.656 1.357,3.359 2.687,4.579c0.639,1.631 1.636,3.078 3.156,3.874c3.555,1.86 7.469,-0.33 10.123,-2.729c4.477,-4.045 10.084,-11.377 7.562,-17.767c-2.61,-6.616 -10.626,-7.44 -16.128,-4.043c-5.056,3.12 -8.835,10.114 -7.4,16.086Zm41.089,-11.868c0.106,0.455 0.279,0.882 0.501,1.278c0.267,1.141 0.953,2.277 1.637,3.114c1.565,1.915 4.086,3.034 6.272,1.367c2.124,-1.62 2.771,-4.812 1.802,-7.24c-0.903,-2.264 -3.49,-3.781 -5.906,-3.764c-2.671,0.02 -4.935,2.576 -4.306,5.245Zm-162.872,-449.81c-1.337,-1.813 -5.002,-1.14 -6.819,-0.555c-1.642,0.527 -3.745,1.689 -3.595,3.693c0.009,0.146 0.034,0.28 0.073,0.407c-0.779,2.023 1.121,3.173 2.934,3.182c2.214,0.013 4.593,-0.743 6.257,-2.22c1.175,-1.045 2.227,-3.046 1.15,-4.507Zm-1.131,-12.437c-1,-2.242 -2.261,-4.348 -3.157,-6.641c-0.861,-2.195 -1.508,-4.437 -2.592,-6.543c-1.041,-2.026 -2.258,-3.98 -3.706,-5.742c-0.4,-0.489 -1.382,-2.046 -2.055,-2.055c-0.591,-0.01 -1.251,1.308 -1.458,1.797c-0.657,1.547 -0.578,3.37 -0.359,5c0.242,1.769 0.718,3.503 1.223,5.211c0.543,1.83 1.055,3.685 1.896,5.406c0.937,1.925 2.182,3.608 3.494,5.285c0.159,0.203 0.311,0.41 0.464,0.616c2.359,-0.114 4.71,-0.197 7.035,-0.263c-0.242,-0.699 -0.486,-1.395 -0.785,-2.071Zm-12.444,67.193c-0.81,-0.496 -1.775,-0.734 -2.722,-0.664c-0.041,0.003 -0.085,0.01 -0.13,0.016c-0.235,0.044 -0.476,0.162 -0.486,0.387c-0.009,0.156 0.099,0.286 0.188,0.41c0.816,1.163 0.155,3.049 -0.2,4.263c-0.442,1.508 -1.176,2.985 -2.386,4.02c-1.55,1.331 -4.605,0.572 -5.742,-0.952c-0.429,-0.578 -0.734,-1.236 -1.121,-1.839c-0.146,-0.229 -0.394,-0.48 -0.645,-0.372c-0.146,0.06 -0.219,0.235 -0.213,0.394c0.048,1.315 1.223,2.881 2.233,3.617c1.404,1.023 3.402,1.471 5.075,0.909c1.792,-0.604 2.9,-2.592 3.593,-4.224c0.463,-1.087 0.984,-2.5 1.06,-3.688c0.019,-0.295 -0.009,-0.6 0.061,-0.889c0.066,-0.292 0.267,-0.578 0.559,-0.635c0.219,-0.045 0.441,0.05 0.664,0.089c0.219,0.038 0.498,-0.013 0.578,-0.223c0.095,-0.244 -0.143,-0.479 -0.366,-0.619Zm-29.058,-15.846c-0.025,-0.476 -0.238,-0.905 -0.66,-1.152c-0.439,-0.258 -0.902,-0.207 -1.347,-0c-0.438,0.206 -0.791,0.59 -0.997,1.032c-0.566,0.565 -0.785,1.435 -0.27,2.16c0.451,0.635 1.115,0.797 1.826,0.476c0.921,-0.413 1.502,-1.528 1.448,-2.516Zm-8.81,-12.097c-0.397,-0.372 -1.004,-0.607 -1.54,-0.461c-0.382,0.105 -0.775,0.378 -1.033,0.67c-0.562,0.636 -0.844,1.503 -0.59,2.335c0.143,0.467 0.533,0.835 0.991,0.949c0.489,0.302 1.264,0.318 1.648,-0.171c0.235,-0.292 0.486,-0.588 0.673,-0.915c0.242,-0.298 0.369,-0.689 0.343,-1.061c0.038,-0.485 -0.095,-0.971 -0.492,-1.346Zm66.663,200.041c0.041,-25.288 0.079,-50.577 0.117,-75.866c0.041,-25.38 -0.203,-51.195 -1.848,-76.525c-0.14,-2.153 -0.318,-4.379 -1.322,-6.288c-3.913,-7.464 -16.394,-0.556 -21.533,1.826c-14.407,6.679 -32.692,3.878 -44.44,-6.806c-11.748,-10.685 -16.268,-28.623 -10.983,-43.598c8.172,-23.157 31.246,-28.124 54.193,-29.525c-0.196,-0.245 -0.39,-0.492 -0.574,-0.74c-1.696,-2.255 -2.999,-4.751 -3.85,-7.442c-1.238,-3.925 -2.722,-8.229 -2.112,-12.396c0.283,-1.912 1.21,-4.1 2.935,-5.148c2.02,-1.229 3.773,0.39 5.05,1.87c1.693,1.96 3.147,4.12 4.357,6.407c1.293,2.439 2.071,5.031 3.075,7.59c1.003,2.554 2.503,4.879 3.493,7.442c0.245,0.629 0.448,1.267 0.671,1.902c1.638,-0.041 3.261,-0.079 4.862,-0.12c4.209,-0.102 8.264,-0.216 12.06,-0.448c0.263,-0.016 0.53,-0.032 0.791,-0.048c6.936,-0.457 14.286,-0.279 20.784,1.763c2.963,0.931 5.749,2.249 8.242,4.075c0.066,0.048 0.133,0.098 0.2,0.146c0.813,0.61 1.594,1.27 2.337,1.991c1.531,1.487 2.907,3.221 4.091,5.241c3.322,-3.722 6.556,-7.496 10.793,-10.3c2.331,-1.54 4.808,-2.725 7.479,-3.535c1.963,-0.594 4.37,-1.118 5.92,0.584c2.637,2.894 0.715,6.721 -1.305,9.325c-2.195,2.83 -4.939,5.126 -7.635,7.455c-3.469,2.998 -7.245,5.605 -10.847,8.423c0.715,3.255 1.185,6.58 1.598,9.88c0.086,0.68 0.165,1.363 0.248,2.043c0.108,0.898 0.209,1.8 0.314,2.699c0.397,3.554 0.747,7.115 1.045,10.678c0.073,0.902 0.146,1.804 0.216,2.703c0.442,5.765 0.75,11.542 0.924,17.319c0.029,0.874 0.051,1.747 0.073,2.62c0.061,2.532 0.096,5.063 0.105,7.598c0.013,3.846 0.124,7.66 0.27,11.462c0.035,0.889 0.07,1.775 0.108,2.665c0.267,6.225 0.604,12.418 0.781,18.643c0.026,0.886 0.048,1.776 0.064,2.665c0.044,2.166 0.067,4.335 0.054,6.514c-0.041,5.847 -0.079,11.698 -0.114,17.548c-0.007,0.883 -0.013,1.766 -0.019,2.649c-0.026,3.983 -0.051,7.969 -0.08,11.955c-0.009,1.651 -0.019,3.306 -0.032,4.961c-0.003,0.883 -0.009,1.766 -0.015,2.652c-0.035,5.123 -0.067,10.246 -0.102,15.369c-0.006,0.895 -0.013,1.79 -0.016,2.686c-0.041,6.03 -0.079,12.061 -0.121,18.091c-0.003,0.89 -0.009,1.779 -0.016,2.67c-0.041,6.076 -0.079,12.151 -0.12,18.227c-0.003,0.897 -0.01,1.795 -0.016,2.691c-0.035,5.348 -0.07,10.695 -0.105,16.041c-0.006,0.887 -0.013,1.772 -0.016,2.658c-0.057,8.463 -0.111,16.926 -0.168,25.388c-0.007,0.891 -0.01,1.781 -0.016,2.672c-0.029,4.405 -0.057,8.809 -0.086,13.214c-0.016,2.361 -0.054,4.958 -0.101,7.752c-0.013,0.884 -0.029,1.79 -0.045,2.713c-0.079,4.883 -0.168,10.29 -0.197,16.057c-0.003,0.888 -0.006,1.785 -0.006,2.688c-0.007,6.495 0.076,13.396 0.343,20.484c0.035,0.878 0.07,1.758 0.108,2.642c0.279,6.326 0.711,12.778 1.362,19.198c0.089,0.874 0.185,1.747 0.28,2.62c0.543,4.871 1.219,9.709 2.058,14.45c0.152,0.875 0.311,1.745 0.476,2.613c0.756,3.966 1.633,7.853 2.643,11.619c0.232,0.862 0.47,1.717 0.715,2.564c1.299,4.483 2.801,8.775 4.541,12.806c0.35,0.817 0.715,1.625 1.087,2.419c1.743,3.734 3.709,7.216 5.92,10.385c0.508,0.728 1.029,1.44 1.566,2.135c6.202,8.064 14.193,13.797 24.481,16.008c31.994,6.872 63.162,8.141 92.768,24.355c16.184,8.863 28.272,21.473 36.87,36.239l-12.147,-0c0.011,-0.59 -0.043,-1.168 -0.141,-1.678c-0.468,-2.418 -2.131,-5.36 -4.994,-5.079c-2.91,0.285 -2.963,3.431 -1.853,5.475c-0.009,0.43 0.018,0.857 0.089,1.282l-14.614,-0c1.405,-2.148 1.564,-5.614 1.891,-7.799c0.331,-2.209 0.526,-4.475 -0.324,-6.588c-0.741,-1.844 -1.945,-3.482 -3.3,-4.925c-0.434,-0.46 -0.919,-0.939 -1.443,-1.402c-1.209,-2.367 -2.871,-4.487 -5.375,-5.289c-1.466,-0.469 -2.766,-0.168 -3.824,0.576c-1.124,-0.218 -2.261,-0.181 -3.356,0.222c-3.695,1.365 -4.55,6.06 -3.529,9.407c0.699,2.288 1.952,4.373 3.256,6.36c1.264,1.928 2.559,3.842 4.061,5.594c1.249,1.458 2.665,2.796 4.276,3.844l-31.343,-0c-1.184,-1.399 -2.615,-2.552 -4.309,-3.1c-1.12,-1.528 -2.591,-2.694 -4.577,-2.77c-1.754,-0.068 -2.959,1.086 -3.773,2.522c-0.181,0.316 -0.35,0.638 -0.515,0.965c-0.948,0.537 -1.824,1.241 -2.585,1.934c-0.161,0.147 -0.316,0.297 -0.469,0.449l-46.263,-0c0.006,-0.355 -0.004,-0.704 -0.039,-1.04c-0.251,-2.475 -1.384,-4.652 -3.449,-6.08c-1.899,-1.312 -4.04,-0.728 -4.847,1.462c-0.263,0.715 -0.349,1.462 -0.47,2.209c-0.479,0.093 -0.86,0.463 -1.051,0.954c-0.314,0.802 -0.464,1.653 -0.454,2.495l-39.996,-0c0.171,-0.05 0.336,-0.11 0.498,-0.182c2.312,0.258 3.862,-2.145 4.19,-4.383c0.384,-2.631 -0,-5.565 -0.969,-8.041c-1.696,-4.326 -4.806,-7.902 -8.439,-10.732c-0.448,-0.348 -1.093,-0.567 -1.62,-0.208c-4.087,2.788 -2.788,9.946 -1.759,13.929c0.695,2.697 2.55,8.561 5.92,9.617l-37.373,-0c0.038,-25.183 0.076,-50.367 0.117,-75.548c0.093,-59.473 0.182,-118.943 0.274,-178.415" style="fill:#ffd200;fill-rule:nonzero;"/></g><g id="g126"><path id="path128" d="M351.04,411.687c-0.131,-0.056 -0.265,-0.102 -0.399,-0.138c0.022,-0.609 0.065,-1.218 0.141,-1.821c0.034,-0.261 0.079,-0.519 0.134,-0.777c0.146,0.595 0.148,1.236 0.134,1.893c-0.005,0.282 -0.005,0.561 -0.01,0.843" style="fill:#ffd200;fill-rule:nonzero;"/></g><g id="g130"><path id="path132" d="M334.872,375.466c-0.591,1.453 -1.268,4.296 0.42,5.237c-0.038,0.16 -0.083,0.315 -0.135,0.465c-0.312,-0.245 -0.579,-0.617 -0.771,-1.094c-0.615,-1.517 -0.689,-3.427 -0.325,-5.012c0.145,-0.639 0.387,-1.58 0.916,-2.01c0.2,0.2 0.402,0.447 0.592,0.707c-0.025,0.317 -0.053,0.636 -0.083,0.961c-0.257,0.16 -0.476,0.412 -0.614,0.746" style="fill:#ffd200;fill-rule:nonzero;"/></g><g id="g134"><path id="path136" d="M341.495,512.605c-0.075,0.14 -0.149,-0.028 0,-0" style="fill:#ffd200;fill-rule:nonzero;"/></g><g id="g138"><path id="path140" d="M341.513,512.568c-0.115,-0.127 -0.424,-0.456 -0.515,-0.572c-0.081,-0.106 -0.164,-0.216 -0.243,-0.326c0.265,0.191 0.557,0.337 0.864,0.432c0.014,0.028 0.029,0.055 0.041,0.083c-0.051,0.102 -0.098,0.204 -0.122,0.307c-0.008,0.031 -0.015,0.055 -0.025,0.076" style="fill:#ffd200;fill-rule:nonzero;"/></g><g id="g142"><path id="path144" d="M398.104,649.459c0.074,0.029 0.147,0.073 0.217,0.127c-0.206,0.106 -0.396,0.241 -0.575,0.414l-0.183,0c0.19,-0.155 0.371,-0.337 0.541,-0.541" style="fill:#ffd200;fill-rule:nonzero;"/></g><g id="g146"><path id="path148" d="M415.136,604.516c0.022,0.027 0.044,0.052 0.065,0.077c0.525,0.625 0.704,0.909 0.064,1.483c-0.555,0.498 -1.199,0.774 -1.907,0.952c-0.439,0.109 -1.185,0.259 -1.93,0.293c1.619,-0.285 3.371,-1.137 3.708,-2.805" style="fill:#ffd200;fill-rule:nonzero;"/></g><g id="g150"><path id="path152" d="M347.848,631.117c0.051,-0.202 0.058,-0.389 0.029,-0.559c0.376,0.352 0.742,0.715 1.101,1.088c-0.014,0.011 -0.029,0.025 -0.043,0.037c-0.427,-0.163 -0.897,-0.038 -1.244,0.243c0.039,-0.272 0.089,-0.542 0.157,-0.809" style="fill:#ffd200;fill-rule:nonzero;"/></g><g id="g154"><path id="path156" d="M350.83,639.643c0.216,0.71 0.552,1.469 0.825,2.235c0.007,0.041 0.012,0.081 0.022,0.123c0.223,0.973 0.372,1.979 0.29,2.946c-0.041,0.127 -0.094,0.252 -0.153,0.377c-0.905,-0.516 -1.492,-2.036 -1.819,-3.275c-0.069,-0.407 -0.132,-0.814 -0.187,-1.216c-0.1,-0.752 -0.211,-1.58 -0.29,-2.431c-0.01,-0.684 0.034,-1.38 0.144,-2.052c0.516,1.045 0.839,2.219 1.168,3.293" style="fill:#ffd200;fill-rule:nonzero;"/></g><g id="g158"><path id="path160" d="M360.937,571.403c0.007,0.215 0.007,0.428 0.003,0.603c-0.033,-0.054 -0.061,-0.108 -0.096,-0.162c-0.109,-0.168 -0.228,-0.333 -0.357,-0.493c0.154,-0.014 0.306,-0 0.45,0.052" style="fill:#ffd200;fill-rule:nonzero;"/></g><g id="g162"><path id="path164" d="M341.737,505.458c0.103,0.382 0.206,0.764 0.326,1.142c0.02,0.066 0.059,0.185 0.105,0.332c0.008,0.104 0.015,0.206 0.02,0.305c-0.235,-0.525 -0.446,-1.057 -0.627,-1.598c0.061,-0.055 0.123,-0.116 0.176,-0.181" style="fill:#ffd200;fill-rule:nonzero;"/></g><g id="g166"><path id="path168" d="M346.539,629.377c0.039,0.031 0.075,0.061 0.114,0.092c-0.056,-0.007 -0.111,-0.011 -0.165,-0.011c0.017,-0.027 0.034,-0.055 0.051,-0.081" style="fill:#ffd200;fill-rule:nonzero;"/></g><g id="g170"><path id="path172" d="M383.656,611.33c0.23,0.979 0.351,1.972 0.175,3.016c-0.076,0.445 -0.177,0.925 -0.324,1.393c-0.338,-1.189 -0.331,-2.321 -0.108,-3.541c0.079,-0.282 0.163,-0.573 0.257,-0.868" style="fill:#ffd200;fill-rule:nonzero;"/></g><g id="g174"><path id="path176" d="M380.974,608.977c-0.147,0.783 -0.244,1.587 -0.348,2.341c-0.062,0.463 -0.131,0.958 -0.195,1.469c-0.499,1.949 -0.731,4.096 -0.053,5.759c-0.207,-0.179 -0.382,-0.48 -0.51,-0.935c-0.554,-1.977 -0.067,-4.337 0.41,-6.281c0.179,-0.721 0.365,-1.61 0.696,-2.353" style="fill:#ffd200;fill-rule:nonzero;"/></g><g id="g178"><path id="path180" d="M350.982,416.957c-0.06,-0.122 -0.136,-0.229 -0.23,-0.318c-0.026,-0.614 -0.043,-1.218 -0.064,-1.794c0.151,0.244 0.27,0.527 0.361,0.841c-0.007,0.431 -0.026,0.855 -0.067,1.271" style="fill:#ffd200;fill-rule:nonzero;"/></g><g id="g182"><path id="path184" d="M427.836,618.491c-1.361,2.549 -2.128,5.591 -2.465,8.458c-0.122,0.696 -0.191,1.394 -0.202,2.085c-0,0.075 -0.002,0.152 -0.002,0.23c-0,0.021 0.002,0.041 0.002,0.06c-0,0.084 0.002,0.17 0.004,0.257l-0,0.029c-0,0.026 -0.002,0.054 -0.004,0.08c-0.041,1.442 0.08,3.366 0.843,4.775c-0.579,-0.07 -1.122,-0.324 -1.606,-0.684c-1.227,-3.659 -0.244,-8.229 1.207,-11.521c0.311,-0.711 1.201,-2.651 2.223,-3.769" style="fill:#ffd200;fill-rule:nonzero;"/></g><g id="g186"><path id="path188" d="M436.302,631.143c1.563,-2.256 2.727,-5.33 2.379,-8.15c0.333,-0.847 0.592,-1.723 0.733,-2.641c0.136,-0.882 0.125,-1.743 -0.039,-2.54c0.231,0.267 0.448,0.556 0.646,0.872c2.591,4.132 -0.55,9.242 -3.173,12.518c-1.387,1.733 -2.939,3.478 -4.787,4.727c-1.458,0.987 -3.45,1.751 -5.056,1.176c0.754,-0.112 1.477,-0.383 2.152,-0.76c2.847,-0.043 5.764,-3.207 7.145,-5.202" style="fill:#ffd200;fill-rule:nonzero;"/></g><g id="g190"><path id="path192" d="M435.327,617.757c-0.592,-0.357 -1.285,-0.579 -2.077,-0.609c-0.481,-0.018 -0.935,0.048 -1.369,0.177c0.43,-0.445 0.93,-0.807 1.515,-0.971c1.255,-0.352 2.882,0.333 3.321,1.592c0.131,0.374 0.197,0.759 0.212,1.153c-0.458,-0.535 -0.996,-1.006 -1.602,-1.342" style="fill:#ffd200;fill-rule:nonzero;"/></g><g id="g194"><path id="path196" d="M435.312,622.56c0.044,0.529 0.012,1.081 -0.07,1.617c-0.307,0.539 -0.62,1.056 -0.911,1.539c-0.013,-0.077 -0.027,-0.153 -0.046,-0.23c-0.394,-1.611 -2.497,-1.765 -3.874,-1.425c-0.151,0.037 -0.296,0.084 -0.437,0.137c0.595,-0.888 1.315,-1.669 2.077,-2.129c0.988,-0.6 2.743,-0.545 3.261,0.491" style="fill:#ffd200;fill-rule:nonzero;"/></g><g id="g198"><path id="path200" d="M464.013,617.101c-0.09,-0.078 -0.186,-0.146 -0.292,-0.204c0.218,-0.216 0.508,-0.376 0.873,-0.444c-0.224,0.182 -0.421,0.4 -0.581,0.648" style="fill:#ffd200;fill-rule:nonzero;"/></g><g id="g202"><path id="path204" d="M495.58,641.449c0.119,0.404 0.253,0.795 0.4,1.164c0.086,0.213 0.184,0.447 0.292,0.691c-0.212,-0.162 -0.419,-0.329 -0.624,-0.502c-0.035,-0.069 -0.069,-0.14 -0.101,-0.211c-0.306,-0.659 -0.582,-1.329 -0.837,-2.009c0.089,0.096 0.177,0.19 0.266,0.28c0.188,0.193 0.39,0.39 0.604,0.587" style="fill:#ffd200;fill-rule:nonzero;"/></g><g id="g206"><path id="path208" d="M500.14,644.349c-0.068,-0.072 -0.157,-0.149 -0.198,-0.198c-0.145,-0.176 -0.277,-0.367 -0.402,-0.56c0.292,0.03 0.588,0.026 0.882,-0.017c-0.043,0.185 -0.095,0.368 -0.161,0.542c-0.016,0.04 -0.073,0.138 -0.121,0.233" style="fill:#ffd200;fill-rule:nonzero;"/></g><g id="g210"><path id="path212" d="M501.063,648.03c-0.151,0.343 -0.364,0.741 -0.381,1.03c-0.238,-0.091 -0.465,-0.186 -0.687,-0.332c-0.423,-0.278 -0.8,-0.638 -1.148,-1.021c0.738,0.228 1.493,0.355 2.216,0.323" style="fill:#ffd200;fill-rule:nonzero;"/></g><g id="g214"><path id="path216" d="M499.667,639.062c0.078,0.131 0.15,0.27 0.217,0.413c0.112,0.263 0.199,0.533 0.261,0.81c-0.022,-0 -0.041,-0 -0.065,-0.001c-0.136,-0.354 -0.307,-0.792 -0.413,-1.222" style="fill:#ffd200;fill-rule:nonzero;"/></g><g id="g218"><path id="path220" d="M521.082,645.985c-0.043,-0.052 -0.09,-0.099 -0.14,-0.143c0.07,0.022 0.137,0.056 0.206,0.101c-0.023,0.014 -0.044,0.027 -0.066,0.042" style="fill:#ffd200;fill-rule:nonzero;"/></g><g id="g222"><path id="path224" d="M467.684,622.124c0.096,-0.02 0.188,-0.045 0.281,-0.074c-0.032,0.046 -0.064,0.094 -0.101,0.141c-0.514,0.666 -1.155,0.765 -1.778,0.545c0.138,-0.025 0.274,-0.053 0.412,-0.091c0.416,-0.117 0.817,-0.296 1.186,-0.521" style="fill:#ffd200;fill-rule:nonzero;"/></g><g id="g226"><path id="path228" d="M488.611,630.979c-0.527,1.568 -0.646,3.311 -0.384,4.884c-1.187,-2.291 -2.006,-4.913 -0.557,-7.246c0.473,-0.758 1.075,-1.176 1.741,-1.353c-0.551,1.182 -0.836,2.506 -0.8,3.715" style="fill:#ffd200;fill-rule:nonzero;"/></g><g id="g230"><path id="path232" d="M496.168,632.128c0.513,0.695 1.063,1.366 1.602,2.045c-1.259,-0.012 -2.302,0.941 -2.577,2.397c-0.009,0.049 -0.015,0.099 -0.025,0.148c-0.504,-0.882 -0.912,-1.826 -1.231,-2.754c-0.463,-1.34 -0.987,-3.21 -0.41,-4.632c1.101,0.663 1.868,1.754 2.641,2.796" style="fill:#ffd200;fill-rule:nonzero;"/></g><g id="g234"><path id="path236" d="M347.042,234.609c0.023,-1.343 0.263,-2.675 0.646,-3.809c0.02,0.2 0.031,0.404 0.041,0.607c-0.003,0.005 -0.005,0.01 -0.008,0.015c-0.393,1.029 -0.512,2.112 -0.679,3.187" style="fill:#ffd200;fill-rule:nonzero;"/></g><g id="g238"><path id="path240" d="M353.348,348.927c0.043,-0.197 0.09,-0.396 0.14,-0.593c0.003,0.011 0.007,0.021 0.01,0.033c0.047,0.221 0.085,0.444 0.114,0.67c-0.083,-0.045 -0.174,-0.081 -0.264,-0.11" style="fill:#ffd200;fill-rule:nonzero;"/></g><g id="g242"><path id="path244" d="M345.301,300.306c0.325,0.002 -0.07,0.128 0,-0" style="fill:#ffd200;fill-rule:nonzero;"/></g><g id="g246"><path id="path248" d="M345.527,300.046c-0.033,0.019 -0.169,0.07 -0.291,0.116c-0.005,-0.015 -0.007,-0.029 -0.012,-0.041c-0.228,-0.653 -0.279,-1.362 -0.276,-2.063c0.211,0.34 0.507,0.638 0.914,0.876c0.192,0.112 0.381,0.197 0.571,0.257c-0.025,0.025 -0.044,0.054 -0.068,0.08c-0.243,0.272 -0.517,0.59 -0.838,0.775" style="fill:#ffd200;fill-rule:nonzero;"/></g><g id="g250"><path id="path252" d="M351.156,343.101c0.012,-0.026 0.027,-0.047 0.039,-0.071c-0.513,1.522 -0.623,3.214 -0.721,4.839c-0.115,-1.682 -0.019,-3.339 0.682,-4.768" style="fill:#ffd200;fill-rule:nonzero;"/></g><g id="g254"><path id="path256" d="M353.797,343.773c0.121,0.261 0.223,0.529 0.304,0.783c-0.157,-0.083 -0.323,-0.152 -0.499,-0.211c0.055,-0.195 0.124,-0.385 0.195,-0.572" style="fill:#ffd200;fill-rule:nonzero;"/></g><g id="g258"><path id="path260" d="M456.203,646.856c-0.086,-0.025 -0.172,-0.047 -0.259,-0.067c0.103,-0.003 0.208,0.006 0.313,0.026c-0.02,0.013 -0.035,0.028 -0.054,0.041" style="fill:#ffd200;fill-rule:nonzero;"/></g><g id="g262"><path id="path264" d="M347.936,238.982c0.048,-0.03 0.096,-0.065 0.141,-0.098c-0.03,0.066 -0.063,0.126 -0.096,0.189c-0.015,-0.03 -0.03,-0.06 -0.045,-0.091" style="fill:#ffd200;fill-rule:nonzero;"/></g><g id="g266"><path id="path268" d="M347.324,228.793c0.016,0.052 0.026,0.101 0.039,0.15c-0.021,-0.01 -0.041,-0.021 -0.059,-0.031c0.005,-0.039 0.015,-0.08 0.02,-0.119" style="fill:#ffd200;fill-rule:nonzero;"/></g><g id="g270"><path id="path272" d="M296.595,173.689c-1.664,1.478 -4.042,2.236 -6.257,2.221c-1.815,-0.012 -3.713,-1.158 -2.937,-3.183c-0.035,-0.127 -0.062,-0.261 -0.071,-0.406c-0.151,-2.004 1.954,-3.165 3.595,-3.692c1.818,-0.586 5.483,-1.258 6.819,0.554c1.077,1.46 0.026,3.464 -1.149,4.506" style="fill-rule:nonzero;"/></g><g id="g274"><path id="path276" d="M303.557,192.702c-1.64,-1.061 -1.671,-2.709 -0.876,-4.275c0.204,-1.43 1.196,-2.169 2.364,-2.738c1.208,-0.919 2.613,-1.52 3.854,-1.482c0.501,-0.123 1.002,-0.198 1.506,-0.215c0.289,-0.255 0.683,-0.418 1.181,-0.412c1.197,0.009 1.866,0.443 2.544,1.393c0.166,0.235 0.246,0.547 0.255,0.862c1.259,3.245 -7.243,9.194 -10.828,6.867" style="fill-rule:nonzero;"/></g><g id="g278"><path id="path280" d="M246.454,198.403c-0.19,0.327 -0.443,0.623 -0.675,0.916c-0.385,0.489 -1.16,0.473 -1.649,0.168c-0.461,-0.113 -0.848,-0.479 -0.992,-0.946c-0.253,-0.834 0.028,-1.701 0.59,-2.336c0.259,-0.29 0.653,-0.564 1.031,-0.668c0.541,-0.15 1.145,0.088 1.545,0.461c0.397,0.372 0.528,0.858 0.488,1.346c0.028,0.372 -0.1,0.76 -0.338,1.059" style="fill-rule:nonzero;"/></g><g id="g282"><path id="path284" d="M253.664,210.611c-0.711,0.318 -1.375,0.156 -1.825,-0.48c-0.516,-0.72 -0.297,-1.591 0.27,-2.158c0.204,-0.441 0.559,-0.825 0.997,-1.032c0.444,-0.207 0.906,-0.258 1.347,-0c0.423,0.249 0.633,0.675 0.66,1.152c0.054,0.987 -0.528,2.104 -1.449,2.518" style="fill-rule:nonzero;"/></g><g id="g286"><path id="path288" d="M283.959,224.783c-0.222,-0.04 -0.447,-0.135 -0.666,-0.092c-0.291,0.058 -0.49,0.346 -0.559,0.637c-0.069,0.288 -0.04,0.591 -0.061,0.89c-0.075,1.188 -0.596,2.597 -1.057,3.687c-0.692,1.631 -1.804,3.619 -3.594,4.222c-1.672,0.565 -3.669,0.118 -5.076,-0.905c-1.011,-0.741 -2.184,-2.306 -2.233,-3.617c-0.006,-0.162 0.066,-0.334 0.216,-0.398c0.248,-0.107 0.496,0.144 0.64,0.372c0.389,0.605 0.694,1.262 1.124,1.839c1.135,1.527 4.193,2.282 5.741,0.954c1.21,-1.038 1.945,-2.514 2.386,-4.021c0.355,-1.213 1.015,-3.101 0.199,-4.262c-0.086,-0.124 -0.196,-0.254 -0.187,-0.41c0.008,-0.227 0.251,-0.343 0.487,-0.386c0.043,-0.009 0.086,-0.014 0.13,-0.017c0.945,-0.069 1.913,0.167 2.723,0.666c0.222,0.135 0.458,0.374 0.366,0.616c-0.081,0.211 -0.36,0.263 -0.579,0.225" style="fill-rule:nonzero;"/></g><g id="g290"><path id="path292" d="M347.937,238.983c0.015,0.032 0.028,0.06 0.044,0.089c0.032,-0.063 0.068,-0.123 0.097,-0.189c-0.047,0.035 -0.094,0.069 -0.141,0.1Zm-0.25,-8.184c-0.383,1.136 -0.621,2.468 -0.645,3.809c0.168,-1.073 0.286,-2.157 0.679,-3.185c0.003,-0.005 0.006,-0.01 0.006,-0.016c-0.008,-0.202 -0.019,-0.406 -0.04,-0.608Zm-0.362,-2.007c-0.008,0.039 -0.015,0.079 -0.023,0.118c0.021,0.013 0.042,0.021 0.06,0.032c-0.013,-0.05 -0.024,-0.1 -0.037,-0.15Zm1.189,13.533c-0.475,0.312 -1.236,0.21 -1.616,-0.207c-1.154,-1.267 -1.884,-2.907 -2.248,-4.667c-0.118,-0.173 -0.226,-0.362 -0.323,-0.564c-0.957,-2.056 -0.679,-4.845 -0.346,-7.012c0.186,-1.219 0.527,-2.754 1.293,-3.877c0.648,-1.933 1.805,-3.578 3.932,-2.691c1.737,0.721 2.314,2.954 2.524,4.633c0.241,1.946 0.065,3.908 -0.189,5.844c-0.378,2.904 -0.273,6.747 -3.027,8.541" style="fill:#b28300;fill-rule:nonzero;"/></g><g id="g294"><path id="path296" d="M330.999,273.731c-0.03,-0.015 -0.058,-0.033 -0.086,-0.048c-0.64,0.747 -2.049,0.782 -2.284,-0.436c-0.314,-1.623 -0.991,-3.612 -0.124,-5.177c0.537,-0.975 1.654,-1.411 2.727,-1.188c1.041,0.216 1.761,1.011 2.163,1.963c0.413,0.973 0.535,2.115 0.277,3.148c-0.307,1.216 -1.328,2.404 -2.673,1.738" style="fill:#b28300;fill-rule:nonzero;"/></g><g id="g298"><path id="path300" d="M345.864,298.935c-0.409,-0.24 -0.706,-0.537 -0.917,-0.878c-0.003,0.702 0.049,1.411 0.277,2.063c0.005,0.012 0.007,0.027 0.012,0.042c0.12,-0.044 0.258,-0.096 0.292,-0.115c0.322,-0.187 0.594,-0.503 0.839,-0.776c0.022,-0.027 0.042,-0.054 0.064,-0.081c-0.187,-0.058 -0.378,-0.144 -0.567,-0.255Zm-0.564,1.369c-0.069,0.13 0.326,0.005 0,0Zm6.989,-0.672c-2.223,3.039 -6.844,6.748 -9.933,2.534c-1.704,-2.325 -1.344,-5.308 -0.468,-7.899c0.299,-0.888 0.667,-1.717 1.104,-2.494c0.262,-1.03 0.576,-2.026 0.927,-2.949c0.603,-1.592 1.307,-2.926 3.081,-3.363c2.296,-0.561 4.356,0.778 5.679,2.564c1.307,1.763 2.229,4.194 1.977,6.412c-0.211,1.876 -1.271,3.696 -2.367,5.195" style="fill:#b28300;fill-rule:nonzero;"/></g><g id="g302"><path id="path304" d="M332.782,330.815c-0.743,0.876 -1.049,2.07 -0.939,3.21c0.013,0.13 0.069,0.517 0.17,0.804c0.212,-0.361 0.4,-0.743 0.563,-1.13c-0.008,-0.28 -0.023,-0.519 -0.015,-0.626c0.043,-0.585 0.165,-1.155 0.277,-1.731c0.043,-0.234 0.137,-0.595 0.201,-0.972c-0.053,0.153 -0.137,0.303 -0.257,0.445Zm-2.273,8.903c-2.387,0.779 -4.212,-1.298 -4.484,-3.522c-0.397,-3.273 1.193,-11.038 5.887,-9.921c0.343,-0.038 0.705,-0.041 1.084,0.003c1.456,0.168 2.25,1.084 2.558,2.257c0.089,0.168 0.163,0.344 0.224,0.529c1.901,2.78 2.143,6.885 0.203,9.58c-1.255,1.744 -3.599,1.818 -5.472,1.074" style="fill:#b28300;fill-rule:nonzero;"/></g><g id="g306"><path id="path308" d="M353.797,343.775c-0.072,0.185 -0.14,0.375 -0.195,0.571c0.176,0.057 0.342,0.127 0.499,0.209c-0.08,-0.253 -0.183,-0.52 -0.304,-0.78Zm-0.308,4.558c-0.051,0.197 -0.097,0.397 -0.14,0.595c0.092,0.029 0.178,0.065 0.263,0.111c-0.029,-0.227 -0.065,-0.451 -0.116,-0.673c-0.002,-0.009 -0.005,-0.021 -0.007,-0.033Zm-2.332,-5.231c-0.701,1.429 -0.798,3.087 -0.682,4.768c0.099,-1.624 0.209,-3.317 0.72,-4.84c-0.012,0.024 -0.024,0.046 -0.038,0.072Zm5.408,-1.541c0.624,1.541 0.535,3.303 0.431,4.953c0.005,0.106 0.01,0.209 0.013,0.311c0.079,3.262 -0.159,6.685 -1.005,9.843c-0.333,1.248 -0.793,2.629 -1.703,3.585c-0.786,0.829 -2.306,1.434 -3.33,0.646c-0.751,-0.581 -0.992,-2.178 -1.236,-3.053c-0.224,-0.811 -0.402,-1.635 -0.53,-2.467c-0.241,-0.561 -0.421,-1.139 -0.547,-1.645c-0.604,-2.46 -0.843,-5.088 -0.855,-7.62c-0.012,-2.65 1.282,-6.828 4.551,-6.714c0.518,0.016 0.983,0.13 1.4,0.315c0.301,-0.089 0.631,-0.099 0.992,0.012c0.889,0.275 1.482,0.995 1.819,1.834" style="fill:#b28300;fill-rule:nonzero;"/></g><g id="g310"><path id="path312" d="M334.978,373.051l0,0.002c-0.528,0.43 -0.772,1.371 -0.918,2.007c-0.364,1.587 -0.289,3.496 0.325,5.015c0.193,0.475 0.46,0.85 0.772,1.094c0.053,-0.151 0.098,-0.307 0.135,-0.466c-1.687,-0.943 -1.013,-3.784 -0.419,-5.236c0.135,-0.334 0.357,-0.588 0.613,-0.749c0.03,-0.322 0.058,-0.644 0.083,-0.958c-0.191,-0.262 -0.392,-0.508 -0.591,-0.709Zm2.113,10.974c-0.109,0.033 -0.214,0.056 -0.32,0.078c-0.505,0.7 -1.202,1.253 -2.097,1.268c-1.127,0.015 -1.959,-0.86 -2.487,-1.763c-0.956,-1.637 -1.253,-3.541 -1.401,-5.399c-0.159,-1.99 -0.221,-4.225 0.528,-6.111c0.719,-1.806 2.387,-2.611 4.049,-1.874c0.277,-0.043 0.571,-0.07 0.878,-0.08c0.128,-1.446 2.094,-1.406 2.607,-0.171c0.659,1.579 0.795,3.226 0.594,4.851c0.485,0.97 0.85,1.976 1.049,2.914c0.566,2.689 -0.614,5.465 -3.4,6.287" style="fill:#b28300;fill-rule:nonzero;"/></g><g id="g314"><path id="path316" d="M350.916,408.951c-0.056,0.256 -0.102,0.516 -0.134,0.777c-0.08,0.603 -0.121,1.211 -0.143,1.821c0.136,0.036 0.27,0.081 0.401,0.138c0.002,-0.282 0.004,-0.562 0.009,-0.844c0.012,-0.656 0.01,-1.298 -0.133,-1.892Zm-0.163,7.688c0.092,0.089 0.17,0.196 0.228,0.318c0.039,-0.416 0.061,-0.84 0.066,-1.271c-0.087,-0.314 -0.209,-0.597 -0.359,-0.841c0.019,0.576 0.039,1.18 0.065,1.794Zm0.107,8.611c-1.381,-0.538 -2.368,-1.615 -3.079,-2.892c-1.531,-1.706 -2.007,-4.674 -2.281,-6.678c-0.347,-2.522 -0.531,-5.335 0.388,-7.761c1.209,-3.184 4.851,-3.808 7.326,-1.508c2.215,2.063 2.271,5.566 2.074,8.366c-0.242,3.475 -0.39,7.609 -3.13,10.13c-0.325,0.3 -0.854,0.516 -1.298,0.343" style="fill:#b28300;fill-rule:nonzero;"/></g><g id="g318"><path id="path320" d="M347.482,471.225c0.314,-0.389 0.567,-0.823 0.778,-1.279c-0.015,0.006 -0.027,0.014 -0.042,0.02c-0.792,0.356 -1.492,0.336 -2.11,0.076c-0.135,0.003 -0.267,-0.011 -0.385,-0.048c-0.4,-0.125 -0.736,-0.305 -1.03,-0.522c0.169,0.367 0.36,0.728 0.571,1.08c0.65,1.081 1.244,1.89 2.218,0.673Zm-1.872,-10.775c0.035,0.329 0.076,0.662 0.128,0.992c0.083,-0.367 0.157,-0.736 0.221,-1.106c-0.108,0.053 -0.226,0.091 -0.349,0.114Zm-3.397,9.971c-0.903,-2.05 -1.308,-4.206 -1.438,-6.438c-0.137,-2.412 0.025,-4.836 0.327,-7.231c-0.018,-1.222 0.13,-2.341 0.539,-3.18c0.444,-1.864 1.146,-3.612 2.301,-5.223c0.349,-0.487 0.893,-0.783 1.506,-0.613c4.889,1.351 5.91,6.725 5.402,11.096c-0.061,0.53 -0.108,1.055 -0.142,1.578c0.544,1.287 0.839,2.687 0.971,4.064c0.236,2.458 -0.135,5.097 -1.354,7.27c-0.93,1.66 -2.566,3.376 -4.641,2.71c-1.739,-0.559 -2.784,-2.473 -3.471,-4.033" style="fill:#b28300;fill-rule:nonzero;"/></g><g id="g322"><path id="path324" d="M327.632,405.351c0.125,-0.24 0.25,-0.456 0.372,-0.64c0.735,-1.117 2.154,-2.044 3.544,-1.727c1.388,0.315 1.946,1.687 2.064,2.973c0.222,2.492 -0.993,5.387 -2.268,7.466c-0.694,1.132 -1.702,2.341 -3.125,2.45c-1.393,0.107 -2.459,-0.816 -2.847,-2.106c-0.715,-2.381 0.076,-6.118 1.681,-8.016c0.176,-0.211 0.375,-0.338 0.579,-0.4" style="fill:#b28300;fill-rule:nonzero;"/></g><g id="g326"><path id="path328" d="M341.62,512.102c-0.309,-0.095 -0.6,-0.241 -0.864,-0.432c0.079,0.111 0.162,0.22 0.244,0.326c0.09,0.116 0.399,0.445 0.513,0.572c0.01,-0.021 0.018,-0.045 0.025,-0.076c0.025,-0.103 0.07,-0.205 0.125,-0.307c-0.015,-0.027 -0.03,-0.055 -0.043,-0.083Zm0.546,-5.171c-0.045,-0.146 -0.082,-0.265 -0.104,-0.331c-0.117,-0.378 -0.222,-0.761 -0.324,-1.142c-0.055,0.065 -0.115,0.126 -0.177,0.181c0.182,0.541 0.393,1.073 0.625,1.598c-0.005,-0.099 -0.01,-0.201 -0.02,-0.306Zm-0.668,5.674c-0.152,-0.027 -0.077,0.141 0,-0Zm-2.659,-12.667c-0.566,0.326 -0.87,0.924 -1.007,1.543c-0.309,1.404 0.057,2.934 0.436,4.289c0.109,0.392 0.227,0.793 0.351,1.199c-0.082,-0.772 -0.092,-1.546 -0.052,-2.268c-0.194,-0.839 -0.329,-1.706 -0.381,-2.618c-0.053,-0.914 0.678,-1.339 1.388,-1.278c0.167,-0.284 0.411,-0.535 0.738,-0.597c-0.414,-0.396 -0.873,-0.616 -1.473,-0.27Zm1.515,15.024c-2.151,-1.179 -3.233,-4.295 -4.011,-6.463c-1.007,-2.808 -2.166,-6.629 -0.396,-9.371c0.935,-1.452 2.755,-2.436 4.479,-1.924c1.693,0.502 2.745,2.209 3.615,3.62c2.46,3.993 3.118,8.179 1.757,12.687c-0.182,0.599 -0.68,0.928 -1.286,0.979c-0.391,0.034 -0.738,-0.042 -1.049,-0.192c-0.733,0.93 -1.763,1.401 -3.109,0.664" style="fill:#b28300;fill-rule:nonzero;"/></g><g id="g330"><path id="path332" d="M354.422,532.248c0.009,-0.017 0.017,-0.037 0.024,-0.054c0.46,-0.999 1.296,-1.977 2.509,-1.817c1.349,0.178 1.95,1.493 2.099,2.699c0.193,1.561 -0.045,3.197 -0.389,4.722c-0.261,1.161 -0.615,2.697 -1.558,3.516c-0.477,0.416 -1.042,0.485 -1.614,0.208c-1.503,-0.721 -1.909,-2.626 -1.969,-4.238c-0.057,-0.527 -0.049,-1.08 0.005,-1.634c-0.047,-1.168 0.195,-2.553 0.893,-3.402" style="fill:#b28300;fill-rule:nonzero;"/></g><g id="g334"><path id="path336" d="M360.841,571.844c0.036,0.054 0.064,0.108 0.098,0.162c0.002,-0.175 0.004,-0.388 -0.005,-0.604c-0.142,-0.051 -0.294,-0.066 -0.448,-0.051c0.128,0.159 0.246,0.325 0.355,0.493Zm-2.342,-3.402c0.645,-0.667 1.501,-1.068 2.504,-0.867c1.202,0.243 2.074,1.128 2.404,2.297c0.012,0.042 0.021,0.086 0.03,0.129c0.916,1.14 1.281,2.774 1.259,4.222c-0.057,3.515 -2.712,12.648 -7.529,9.04c-0.173,-0.078 -0.349,-0.166 -0.531,-0.275c-1.43,-0.859 -1.921,-2.581 -2.058,-4.209c-0.534,-3.25 0.581,-7.094 1.579,-9.83c0.398,-1.094 1.726,-1.117 2.342,-0.507" style="fill:#b28300;fill-rule:nonzero;"/></g><g id="g338"><path id="path340" d="M338.198,557.357c0.087,-0.141 0.192,-0.282 0.31,-0.421c0.272,-0.324 0.896,-0.504 1.295,-0.342c2.089,0.843 2.67,4.061 1.747,6.24c0.197,1.12 0.11,2.269 -0.557,3.234c-1.065,1.542 -2.633,1.199 -3.556,-0.229c-0.315,-0.49 -0.584,-1.085 -0.776,-1.72c-1.872,-1.469 -2.99,-4.638 -1.897,-6.467c0.928,-1.553 2.244,-1.231 3.434,-0.295" style="fill:#b28300;fill-rule:nonzero;"/></g><g id="g342"><path id="path344" d="M379.869,617.611c0.127,0.455 0.304,0.756 0.509,0.935c-0.679,-1.664 -0.445,-3.81 0.054,-5.759c0.062,-0.511 0.132,-1.006 0.194,-1.469c0.103,-0.754 0.202,-1.558 0.347,-2.341c-0.331,0.743 -0.517,1.632 -0.693,2.353c-0.479,1.944 -0.966,4.304 -0.411,6.281Zm3.639,-1.872c0.147,-0.468 0.248,-0.948 0.324,-1.393c0.176,-1.044 0.056,-2.037 -0.177,-3.016c-0.094,0.295 -0.176,0.586 -0.257,0.868c-0.221,1.22 -0.228,2.352 0.11,3.541Zm-1.974,-10.835c0.563,-0.152 1.189,-0.176 1.826,-0.108c0.593,-0.287 1.33,-0.417 2.253,-0.335c0.874,0.078 1.301,0.821 1.277,1.505c0.145,0.079 0.286,0.161 0.418,0.244c3.766,2.355 2.559,7.134 1.178,10.574c-0.682,1.699 -1.712,3.656 -3.574,4.274c-0.74,0.246 -1.503,0.243 -2.175,-0.002c-0.293,0.163 -0.604,0.292 -0.937,0.372c-1.614,0.385 -3.273,-0.486 -4.042,-1.912c-1.638,-3.043 -0.585,-7.593 0.459,-10.669c0.57,-1.682 1.462,-3.444 3.317,-3.943" style="fill:#b28300;fill-rule:nonzero;"/></g><g id="g346"><path id="path348" d="M424.407,633.781c0.485,0.36 1.026,0.614 1.606,0.684c-0.763,-1.409 -0.884,-3.333 -0.843,-4.775c0,-0.026 0.004,-0.054 0.004,-0.08l0,-0.029c-0.004,-0.087 -0.004,-0.173 -0.004,-0.257c0,-0.019 -0.002,-0.039 -0.002,-0.06c0,-0.078 0.002,-0.155 0.002,-0.23c0.01,-0.69 0.08,-1.389 0.202,-2.085c0.338,-2.867 1.106,-5.909 2.465,-8.457c-1.023,1.117 -1.913,3.057 -2.224,3.768c-1.449,3.292 -2.432,7.862 -1.206,11.521Zm7.656,2.148c1.848,-1.249 3.4,-2.994 4.787,-4.727c2.622,-3.276 5.763,-8.385 3.172,-12.518c-0.2,-0.316 -0.415,-0.605 -0.647,-0.872c0.164,0.797 0.176,1.658 0.04,2.54c-0.141,0.918 -0.4,1.794 -0.734,2.641c0.348,2.82 -0.815,5.894 -2.379,8.15c-1.381,1.995 -4.298,5.159 -7.144,5.202c-0.677,0.377 -1.397,0.648 -2.152,0.76c1.606,0.575 3.598,-0.189 5.057,-1.176Zm4.654,-17.983c-0.439,-1.259 -2.067,-1.944 -3.321,-1.591c-0.585,0.163 -1.086,0.525 -1.515,0.97c0.433,-0.129 0.888,-0.195 1.369,-0.177c0.791,0.03 1.483,0.252 2.077,0.609c0.607,0.336 1.143,0.807 1.604,1.342c-0.018,-0.394 -0.083,-0.779 -0.214,-1.153Zm-6.74,6.252c0.14,-0.053 0.284,-0.1 0.435,-0.137c1.376,-0.34 3.481,-0.186 3.874,1.426c0.02,0.076 0.034,0.152 0.048,0.229c0.291,-0.483 0.603,-1 0.91,-1.539c0.081,-0.536 0.114,-1.088 0.069,-1.617c-0.516,-1.036 -2.273,-1.091 -3.262,-0.491c-0.759,0.461 -1.481,1.241 -2.074,2.129Zm-3.048,-9.423c5.502,-3.397 13.518,-2.573 16.129,4.043c2.522,6.39 -3.085,13.722 -7.563,17.767c-2.653,2.399 -6.569,4.589 -10.123,2.729c-1.519,-0.796 -2.518,-2.243 -3.155,-3.874c-1.331,-1.22 -2.288,-2.923 -2.685,-4.579c-1.438,-5.972 2.341,-12.966 7.397,-16.086" style="fill:#b28300;fill-rule:nonzero;"/></g><g id="g350"><path id="path352" d="M348.935,631.683c0.015,-0.012 0.027,-0.026 0.042,-0.037c-0.358,-0.373 -0.725,-0.736 -1.101,-1.088c0.029,0.17 0.022,0.357 -0.027,0.559c-0.069,0.267 -0.12,0.537 -0.157,0.809c0.348,-0.281 0.815,-0.406 1.243,-0.243Zm0.873,9.15c0.054,0.402 0.115,0.809 0.186,1.216c0.328,1.239 0.915,2.759 1.818,3.275c0.061,-0.125 0.113,-0.25 0.154,-0.377c0.081,-0.967 -0.068,-1.973 -0.291,-2.946c-0.007,-0.042 -0.015,-0.082 -0.019,-0.123c-0.274,-0.766 -0.612,-1.525 -0.827,-2.235c-0.328,-1.074 -0.651,-2.248 -1.167,-3.293c-0.113,0.672 -0.155,1.368 -0.145,2.052c0.079,0.851 0.191,1.679 0.291,2.431Zm-3.268,-11.456c-0.017,0.026 -0.034,0.054 -0.052,0.081c0.054,0 0.108,0.004 0.164,0.011c-0.036,-0.031 -0.075,-0.061 -0.112,-0.092Zm-2.513,11.006c-1.03,-3.983 -2.329,-11.141 1.762,-13.929c0.523,-0.359 1.169,-0.14 1.617,0.208c3.633,2.83 6.743,6.406 8.438,10.732c0.971,2.476 1.355,5.41 0.971,8.041c-0.328,2.238 -1.876,4.641 -4.191,4.383c-0.161,0.072 -0.327,0.132 -0.499,0.182l-2.177,0c-3.369,-1.056 -5.223,-6.92 -5.921,-9.617" style="fill:#b28300;fill-rule:nonzero;"/></g><g id="g354"><path id="path356" d="M456.203,646.856c0.018,-0.013 0.036,-0.028 0.054,-0.041c-0.104,-0.02 -0.21,-0.029 -0.312,-0.026c0.086,0.02 0.172,0.042 0.258,0.067Zm-7.039,2.695c0.761,-0.693 1.636,-1.397 2.585,-1.934c0.167,-0.327 0.335,-0.649 0.516,-0.965c0.814,-1.436 2.019,-2.59 3.773,-2.522c1.986,0.076 3.457,1.242 4.578,2.77c1.691,0.548 3.123,1.701 4.308,3.1l-16.229,0c0.154,-0.152 0.308,-0.302 0.469,-0.449" style="fill:#b28300;fill-rule:nonzero;"/></g><g id="g358"><path id="path360" d="M493.937,633.964c0.318,0.928 0.728,1.872 1.232,2.754c0.008,-0.049 0.014,-0.099 0.024,-0.148c0.276,-1.456 1.317,-2.409 2.578,-2.397c-0.541,-0.679 -1.089,-1.35 -1.603,-2.045c-0.772,-1.042 -1.539,-2.133 -2.641,-2.796c-0.576,1.422 -0.052,3.292 0.41,4.632Zm1.61,8.627c0.032,0.071 0.068,0.142 0.101,0.211c0.205,0.173 0.413,0.34 0.626,0.502c-0.11,-0.244 -0.208,-0.478 -0.293,-0.691c-0.147,-0.369 -0.281,-0.76 -0.4,-1.164c-0.213,-0.197 -0.416,-0.394 -0.606,-0.587c-0.088,-0.09 -0.176,-0.184 -0.264,-0.28c0.253,0.68 0.531,1.35 0.836,2.009Zm4.449,6.137c0.222,0.146 0.45,0.241 0.686,0.332c0.018,-0.289 0.232,-0.687 0.383,-1.03c-0.724,0.032 -1.479,-0.095 -2.217,-0.323c0.349,0.383 0.725,0.743 1.148,1.021Zm-0.456,-5.137c0.126,0.193 0.257,0.384 0.404,0.56c0.039,0.049 0.13,0.126 0.196,0.198c0.049,-0.095 0.106,-0.193 0.122,-0.233c0.068,-0.174 0.12,-0.357 0.161,-0.542c-0.294,0.043 -0.59,0.047 -0.883,0.017Zm0.345,-4.116c-0.068,-0.143 -0.138,-0.282 -0.217,-0.413c0.107,0.43 0.279,0.868 0.414,1.222c0.022,0.001 0.043,0.001 0.065,0.001c-0.063,-0.277 -0.15,-0.547 -0.262,-0.81Zm-12.214,-10.858c-1.45,2.333 -0.63,4.955 0.556,7.246c-0.263,-1.573 -0.143,-3.316 0.384,-4.884c-0.037,-1.209 0.249,-2.533 0.799,-3.715c-0.666,0.177 -1.268,0.595 -1.739,1.353Zm4.32,17.539c-1.501,-1.752 -2.797,-3.666 -4.062,-5.594c-1.303,-1.987 -2.557,-4.072 -3.255,-6.36c-1.021,-3.347 -0.166,-8.042 3.529,-9.407c1.095,-0.403 2.231,-0.44 3.355,-0.222c1.059,-0.744 2.359,-1.045 3.826,-0.576c2.503,0.802 4.166,2.922 5.374,5.289c0.525,0.463 1.009,0.942 1.443,1.402c1.355,1.443 2.559,3.081 3.3,4.925c0.849,2.113 0.655,4.379 0.324,6.588c-0.327,2.185 -0.486,5.651 -1.89,7.799l-7.667,0c-1.612,-1.048 -3.029,-2.386 -4.277,-3.844" style="fill:#b28300;fill-rule:nonzero;"/></g><g id="g362"><path id="path364" d="M392.576,647.505c0.192,-0.491 0.573,-0.861 1.051,-0.954c0.122,-0.747 0.21,-1.494 0.473,-2.209c0.805,-2.19 2.947,-2.774 4.845,-1.462c2.064,1.428 3.197,3.605 3.449,6.08c0.035,0.336 0.045,0.685 0.039,1.04l-4.685,-0c0.177,-0.173 0.37,-0.308 0.575,-0.414c-0.071,-0.054 -0.143,-0.098 -0.218,-0.127c-0.169,0.204 -0.351,0.386 -0.541,0.541l-5.439,-0c-0.013,-0.842 0.139,-1.693 0.451,-2.495" style="fill:#b28300;fill-rule:nonzero;"/></g><g id="g366"><path id="path368" d="M413.358,607.028c0.708,-0.178 1.352,-0.453 1.908,-0.952c0.64,-0.574 0.46,-0.858 -0.064,-1.483c-0.021,-0.025 -0.044,-0.05 -0.064,-0.077c-0.339,1.668 -2.092,2.52 -3.711,2.805c0.746,-0.034 1.493,-0.184 1.931,-0.293Zm-4.912,-7.885c1.924,-0.946 4.041,-0.247 5.686,0.924c1.487,1.057 3.37,2.533 4.037,4.302c1.282,3.403 -3.097,5.229 -5.742,5.504c-2.389,0.247 -5.641,-0.459 -5.858,-3.273c-0.423,-0.267 -0.793,-0.607 -1.076,-1.032c-1.563,-2.352 0.857,-5.393 2.953,-6.425" style="fill:#b28300;fill-rule:nonzero;"/></g><g id="g370"><path id="path372" d="M464.012,617.101c0.162,-0.249 0.358,-0.466 0.582,-0.648c-0.365,0.068 -0.656,0.228 -0.872,0.444c0.105,0.058 0.203,0.126 0.29,0.204Zm3.853,5.09c0.037,-0.046 0.069,-0.095 0.102,-0.141c-0.093,0.03 -0.186,0.054 -0.281,0.074c-0.37,0.226 -0.77,0.404 -1.185,0.521c-0.138,0.038 -0.276,0.066 -0.413,0.091c0.623,0.22 1.263,0.121 1.777,-0.545Zm-2.94,-8.443c2.416,-0.017 5.002,1.5 5.905,3.765c0.969,2.427 0.322,5.619 -1.801,7.239c-2.186,1.667 -4.708,0.548 -6.273,-1.367c-0.683,-0.837 -1.369,-1.973 -1.636,-3.114c-0.222,-0.396 -0.396,-0.823 -0.503,-1.278c-0.628,-2.668 1.637,-5.224 4.308,-5.245" style="fill:#b28300;fill-rule:nonzero;"/></g><g id="g374"><path id="path376" d="M521.082,645.985c0.022,-0.015 0.044,-0.028 0.066,-0.042c-0.069,-0.045 -0.137,-0.079 -0.206,-0.101c0.05,0.044 0.098,0.091 0.14,0.143Zm-0.771,-2.742c2.864,-0.281 4.527,2.661 4.995,5.079c0.099,0.51 0.152,1.088 0.14,1.678l-6.898,0c-0.071,-0.425 -0.097,-0.852 -0.089,-1.282c-1.11,-2.044 -1.057,-5.19 1.852,-5.475" style="fill:#b28300;fill-rule:nonzero;"/></g><g id="g440"><path id="path442" d="M512.28,406.094c0.12,-0.154 0.239,-0.31 0.354,-0.463c-0.004,0.008 -0.007,0.015 -0.01,0.021c-0.116,0.148 -0.23,0.295 -0.344,0.442" style="fill:#35272f;fill-rule:nonzero;"/></g><g id="g444"><path id="path446" d="M512.264,406.137c-0.013,0.017 -0.027,0.034 -0.041,0.052c0.01,-0.018 0.02,-0.038 0.029,-0.055c0.011,-0.014 0.02,-0.027 0.029,-0.039c-0.006,0.015 -0.012,0.027 -0.017,0.042" style="fill:#35272f;fill-rule:nonzero;"/></g><g id="g448"><path id="path450" d="M512.833,405.207c-0.051,0.12 -0.102,0.241 -0.152,0.36c-0.016,0.023 -0.031,0.042 -0.048,0.065c0.073,-0.14 0.139,-0.28 0.2,-0.425" style="fill:#35272f;fill-rule:nonzero;"/></g><g id="g452"><path id="path454" d="M512.115,406.31c0.045,-0.06 0.091,-0.118 0.138,-0.178l-0,0.001c-0.047,0.059 -0.093,0.118 -0.138,0.177" style="fill:#35272f;fill-rule:nonzero;"/></g><g id="g456"><path id="path458" d="M512.336,405.964c-0.018,0.043 -0.036,0.086 -0.055,0.13c-0.009,0.012 -0.019,0.025 -0.028,0.037c0.028,-0.055 0.056,-0.111 0.083,-0.167" style="fill:#35272f;fill-rule:nonzero;"/></g><g id="g460"><path id="path462" d="M550,373.74c-0.058,0.138 -0.117,0.277 -0.175,0.414c0.016,-0.034 0.029,-0.07 0.044,-0.103c0.043,-0.104 0.089,-0.207 0.131,-0.311" style="fill:#35272f;fill-rule:nonzero;"/></g><g id="g464"><path id="path466" d="M472.82,379.696c-0.002,0.01 -0.005,0.02 -0.007,0.029c0,-0.005 0,-0.01 0.002,-0.017c0.002,-0.003 0.003,-0.007 0.005,-0.012" style="fill:#35272f;fill-rule:nonzero;"/></g><g id="g468"><path id="path470" d="M505.43,402.425c-0.017,0.031 -0.032,0.059 -0.045,0.088c0.007,-0.021 0.016,-0.042 0.025,-0.064c0.007,-0.007 0.013,-0.015 0.02,-0.024" style="fill:#35272f;fill-rule:nonzero;"/></g><g id="g472"><path id="path474" d="M479.007,383.593c-0.133,-0.31 -0.263,-0.622 -0.396,-0.933c0.009,0.016 0.015,0.031 0.022,0.047c0.124,0.296 0.249,0.591 0.374,0.886" style="fill:#35272f;fill-rule:nonzero;"/></g><g id="g476"><path id="path478" d="M512.682,405.568c-0.004,0.009 -0.007,0.015 -0.01,0.023c-0.017,0.021 -0.032,0.042 -0.048,0.063c0.003,-0.008 0.007,-0.015 0.01,-0.023c0.017,-0.021 0.032,-0.042 0.048,-0.063" style="fill:#35272f;fill-rule:nonzero;"/></g><g id="g480"><path id="path482" d="M512.644,405.655c0.009,-0.021 0.018,-0.042 0.027,-0.065c0.018,-0.024 0.036,-0.046 0.054,-0.07c-0.027,0.045 -0.054,0.09 -0.081,0.135" style="fill:#35272f;fill-rule:nonzero;"/></g><g id="g484"><path id="path486" d="M512.252,406.134l0,-0.002c0.011,-0.012 0.02,-0.025 0.029,-0.037c-0.009,0.012 -0.018,0.025 -0.029,0.039" style="fill:#35272f;fill-rule:nonzero;"/></g><g id="g492"><path id="path494" d="M550,373.74c-0.042,0.104 -0.088,0.207 -0.131,0.311c-0.015,0.033 -0.028,0.069 -0.044,0.103c0.058,-0.137 0.117,-0.276 0.175,-0.414" style="fill:#35272f;fill-rule:nonzero;"/></g><g id="g496"><path id="path498" d="M505.43,402.425c-0.007,0.009 -0.013,0.017 -0.02,0.024c-0.009,0.022 -0.018,0.043 -0.025,0.064c0.013,-0.029 0.028,-0.057 0.045,-0.088" style="fill:#35272f;fill-rule:nonzero;"/></g><g id="g500"><path id="path502" d="M479.007,383.593c-0.125,-0.295 -0.25,-0.59 -0.374,-0.886c-0.007,-0.016 -0.013,-0.031 -0.022,-0.047c0.133,0.311 0.263,0.623 0.396,0.933" style="fill:#35272f;fill-rule:nonzero;"/></g><g id="g504"><path id="path506" d="M472.82,379.696c-0.002,0.005 -0.003,0.009 -0.005,0.012c-0.002,0.007 -0.002,0.012 -0.002,0.017c0.002,-0.009 0.005,-0.019 0.007,-0.029" style="fill:#35272f;fill-rule:nonzero;"/></g></g><path id="path378" d="M33.472,273.573c3.687,1.836 7.288,3.835 10.852,5.902c0.359,-0.521 0.669,-1.101 0.926,-1.729c1.788,-4.368 3.576,-8.738 5.364,-13.107c3.856,1.493 7.713,2.987 11.569,4.48c0.233,-0.373 0.47,-0.743 0.711,-1.111c2.073,-3.153 4.373,-6.206 6.321,-9.45c-0.409,-0.244 -0.85,-0.459 -1.318,-0.64c-4.182,-1.619 -8.363,-3.238 -12.545,-4.856l7.115,-17.386c-3.919,-1.328 -7.86,-2.726 -11.696,-4.345c-0.059,0.128 -0.118,0.259 -0.172,0.392c-2.297,5.61 -4.592,11.221 -6.889,16.831c-3.509,-1.358 -7.018,-2.716 -10.528,-4.076c-1.137,4 -2.576,7.922 -4.12,11.818c3.303,1.279 6.607,2.557 9.91,3.836c-1.833,4.481 -3.667,8.96 -5.5,13.441" style="fill:#35272f;fill-rule:nonzero;"/><g id="g380"><path id="path382" d="M199.866,495.451c4.193,0.177 8.382,0.469 12.553,0.885c0.087,-5.245 0.171,-10.49 0.258,-15.734c4.463,0.306 8.927,0.612 13.393,0.919c0.153,-4.175 0.41,-8.35 0.677,-12.522c-4.622,-0.317 -9.244,-0.635 -13.866,-0.952c0.073,-4.495 0.147,-8.99 0.22,-13.485c-4.184,-0.322 -8.367,-0.635 -12.553,-0.874c-0.073,4.499 -0.147,8.999 -0.22,13.498c-3.305,-0.227 -6.606,-0.454 -9.909,-0.681c-0.284,4.169 -0.658,8.334 -1.054,12.496c3.586,0.246 7.171,0.493 10.758,0.739c-0.086,5.237 -0.171,10.474 -0.257,15.711" style="fill:#35272f;fill-rule:nonzero;"/></g><g id="g384"><path id="path386" d="M460.907,122.003c3.572,-1.355 7.198,-2.552 10.849,-3.679c-0.13,-0.57 -0.33,-1.146 -0.597,-1.717c-1.85,-3.965 -3.7,-7.934 -5.551,-11.902c3.443,-1.687 6.887,-3.373 10.33,-5.06c-0.107,-0.392 -0.211,-0.787 -0.309,-1.182c-0.843,-3.395 -1.476,-6.882 -2.461,-10.252c-0.422,0.125 -0.846,0.289 -1.265,0.495c-3.733,1.828 -7.466,3.659 -11.2,5.488l-7.365,-15.785c-3.371,1.834 -6.801,3.638 -10.319,5.235c0.051,0.12 0.104,0.242 0.16,0.364c2.376,5.093 4.753,10.186 7.129,15.281c-3.133,1.536 -6.266,3.07 -9.399,4.606c2.007,3.289 3.774,6.74 5.456,10.241c2.95,-1.444 5.899,-2.889 8.849,-4.336c1.897,4.069 3.796,8.137 5.693,12.203" style="fill:#35272f;fill-rule:nonzero;"/></g><g id="g388"><path id="path390" d="M462.233,381.799c-3.104,2.709 -6.324,5.276 -9.593,7.784c0.346,0.529 0.762,1.037 1.244,1.514c3.36,3.318 6.717,6.638 10.073,9.956c-2.849,2.996 -5.699,5.992 -8.552,8.988c0.258,0.357 0.51,0.717 0.759,1.08c2.121,3.117 4.069,6.409 6.324,9.446c0.383,-0.286 0.75,-0.61 1.096,-0.974c3.09,-3.249 6.179,-6.497 9.272,-9.747l13.359,13.206c2.723,-3.117 5.518,-6.227 8.477,-9.157c-0.097,-0.104 -0.194,-0.208 -0.297,-0.308c-4.313,-4.263 -8.623,-8.524 -12.935,-12.785c2.595,-2.726 5.186,-5.453 7.781,-8.179c-3.262,-2.577 -6.343,-5.402 -9.353,-8.314c-2.443,2.566 -4.884,5.133 -7.327,7.699c-3.441,-3.403 -6.886,-6.806 -10.328,-10.209" style="fill:#35272f;fill-rule:nonzero;"/></g><g id="g392"><path id="path394" d="M221.391,302.35c0.715,0.745 1.473,1.449 2.276,2.106c1.023,0.834 2.286,0.037 2.109,-1.227c-0.034,-0.241 -0.075,-0.48 -0.117,-0.717c0.663,-0.294 1.164,-0.908 1.078,-1.71c-0.485,-4.506 -2.942,-8.538 -6.861,-10.874c-0.658,-0.392 -1.297,-0.358 -1.8,-0.078c-0.467,-0.625 -1.223,-0.978 -2.052,-0.749c-0.941,0.26 -1.714,1.394 -1.35,2.38c0.137,0.375 0.291,0.744 0.45,1.109c0.665,3.95 2.926,7.511 6.267,9.76" style="fill:#35272f;fill-rule:nonzero;"/></g><g id="g396"><path id="path398" d="M228.913,329.36c-0.558,-4.338 -3.567,-8.153 -7.779,-9.426c-0.496,-0.328 -1.005,-0.639 -1.533,-0.925c-0.519,-0.283 -1.14,-0.277 -1.678,-0.07c-0.24,0.054 -0.467,0.146 -0.672,0.272c-0.239,0.022 -0.474,0.126 -0.67,0.281c-0.672,0.14 -1.127,0.832 -0.965,1.566c0.805,3.643 2.941,6.783 5.926,8.988c0.346,0.255 0.804,0.226 1.18,0.039c0.104,0.076 0.207,0.153 0.313,0.229c0.8,0.671 1.67,1.261 2.597,1.752c0.288,0.152 0.598,0.219 0.906,0.219c0.09,0.039 0.18,0.078 0.272,0.116c1.313,0.537 2.888,-1.08 2.379,-2.379c-0.087,-0.223 -0.182,-0.443 -0.276,-0.662" style="fill:#35272f;fill-rule:nonzero;"/></g><g id="g400"><path id="path402" d="M240.276,323.744c-0.974,-0.678 -2.294,-0.082 -2.751,0.902c-0.764,0.36 -1.259,1.221 -1.069,2.235c0.812,4.328 3.541,8.15 7.277,10.448c1.249,0.768 2.926,-0.224 2.911,-1.67c-0.052,-4.784 -2.463,-9.189 -6.368,-11.915" style="fill:#35272f;fill-rule:nonzero;"/></g><g id="g404"><path id="path406" d="M243.375,300.431c-0.176,-0.732 -0.726,-1.182 -1.357,-1.354c-0.185,-0.161 -0.372,-0.319 -0.565,-0.47c-0.688,-0.54 -1.538,-0.773 -2.344,-0.303c-0.736,0.431 -1.12,1.361 -0.888,2.184c1.127,4.04 2.739,7.942 4.785,11.603c1.213,2.173 4.556,0.226 3.339,-1.952c-0.059,-0.106 -0.116,-0.213 -0.175,-0.319c0.556,-0.425 0.894,-1.161 0.745,-2.026c-0.464,-2.71 -1.72,-5.293 -3.54,-7.363" style="fill:#35272f;fill-rule:nonzero;"/></g><g id="g408"><path id="path410" d="M481.679,283.421c-0.247,1.001 -0.437,2.017 -0.564,3.048c-0.16,1.309 1.188,1.951 2.162,1.128c0.184,-0.157 0.365,-0.316 0.543,-0.482c0.606,0.404 1.39,0.5 2.023,-0c3.552,-2.817 5.651,-7.044 5.536,-11.603c-0.021,-0.769 -0.389,-1.291 -0.895,-1.568c0.28,-0.727 0.175,-1.553 -0.462,-2.132c-0.72,-0.66 -2.092,-0.706 -2.731,0.127c-0.245,0.316 -0.477,0.642 -0.703,0.971c-2.982,2.671 -4.788,6.483 -4.909,10.511" style="fill:#35272f;fill-rule:nonzero;"/></g><g id="g412"><path id="path414" d="M462.851,304.196c3.369,-2.787 4.991,-7.368 3.82,-11.61c0.014,-0.594 0.003,-1.191 -0.035,-1.791c-0.04,-0.588 -0.376,-1.111 -0.838,-1.455c-0.172,-0.175 -0.373,-0.316 -0.588,-0.422c-0.146,-0.192 -0.359,-0.336 -0.594,-0.419c-0.477,-0.491 -1.306,-0.508 -1.84,0.02c-2.652,2.626 -4.167,6.108 -4.44,9.81c-0.032,0.425 0.238,0.798 0.6,1.016c-0.012,0.129 -0.023,0.259 -0.029,0.388c-0.141,1.036 -0.175,2.086 -0.095,3.131c0.023,0.324 0.132,0.623 0.299,0.884c0.014,0.098 0.029,0.195 0.046,0.29c0.247,1.398 2.454,1.869 3.28,0.743c0.144,-0.192 0.279,-0.39 0.414,-0.585" style="fill:#35272f;fill-rule:nonzero;"/></g><g id="g416"><path id="path418" d="M473.665,310.805c0.055,-1.183 -1.154,-1.982 -2.23,-1.842c-0.712,-0.454 -1.703,-0.416 -2.461,0.287c-3.229,2.997 -5.002,7.344 -4.952,11.73c0.014,1.468 1.749,2.357 2.964,1.572c4.019,-2.598 6.455,-6.989 6.679,-11.747" style="fill:#35272f;fill-rule:nonzero;"/></g><g id="g420"><path id="path422" d="M495.035,300.986c0.526,-0.538 0.611,-1.244 0.42,-1.867c0.036,-0.243 0.073,-0.487 0.097,-0.73c0.088,-0.87 -0.167,-1.715 -0.994,-2.144c-0.757,-0.392 -1.749,-0.222 -2.323,0.414c-2.813,3.107 -5.255,6.556 -7.259,10.238c-1.192,2.186 2.241,3.971 3.433,1.782c0.058,-0.106 0.119,-0.213 0.177,-0.316c0.654,0.24 1.456,0.134 2.11,-0.453c2.044,-1.837 3.561,-4.279 4.339,-6.924" style="fill:#35272f;fill-rule:nonzero;"/></g><g id="g424"><path id="path426" d="M61.537,381.882c0.392,0.953 0.84,1.886 1.349,2.792c0.645,1.151 2.113,0.868 2.411,-0.37c0.056,-0.236 0.105,-0.474 0.152,-0.709c0.725,-0.034 1.416,-0.421 1.629,-1.2c1.197,-4.369 0.384,-9.022 -2.408,-12.629c-0.469,-0.605 -1.075,-0.807 -1.648,-0.731c-0.205,-0.754 -0.781,-1.357 -1.635,-1.446c-0.972,-0.104 -2.106,0.669 -2.128,1.72c-0.008,0.398 -0.001,0.799 0.012,1.197c-0.823,3.921 -0.021,8.061 2.266,11.376" style="fill:#35272f;fill-rule:nonzero;"/></g><g id="g428"><path id="path430" d="M58.661,409.77c1.065,-4.242 -0.34,-8.893 -3.795,-11.619c-0.34,-0.486 -0.702,-0.959 -1.087,-1.419c-0.38,-0.454 -0.961,-0.675 -1.537,-0.68c-0.242,-0.037 -0.488,-0.034 -0.725,0.008c-0.231,-0.066 -0.487,-0.056 -0.726,0.015c-0.675,-0.113 -1.353,0.363 -1.471,1.107c-0.583,3.684 0.257,7.387 2.23,10.532c0.226,0.363 0.664,0.505 1.083,0.466c0.067,0.11 0.137,0.22 0.206,0.331c0.501,0.914 1.095,1.784 1.779,2.578c0.211,0.247 0.475,0.425 0.762,0.536c0.071,0.068 0.139,0.139 0.211,0.207c1.025,0.981 3.083,0.05 3.084,-1.345c0,-0.239 -0.007,-0.478 -0.014,-0.717" style="fill:#35272f;fill-rule:nonzero;"/></g><g id="g432"><path id="path434" d="M71.289,408.699c-0.656,-0.987 -2.104,-0.915 -2.888,-0.167c-0.845,0.057 -1.618,0.675 -1.813,1.69c-0.828,4.324 0.316,8.879 2.952,12.386c0.881,1.17 2.805,0.861 3.319,-0.491c1.702,-4.47 1.067,-9.454 -1.57,-13.418" style="fill:#35272f;fill-rule:nonzero;"/></g><g id="g436"><path id="path438" d="M82.699,388.135c0.103,-0.745 -0.245,-1.366 -0.768,-1.754c-0.113,-0.219 -0.23,-0.435 -0.355,-0.648c-0.442,-0.753 -1.149,-1.282 -2.07,-1.139c-0.843,0.133 -1.539,0.858 -1.626,1.709c-0.429,4.171 -0.354,8.395 0.211,12.55c0.335,2.467 4.158,1.876 3.822,-0.596c-0.017,-0.121 -0.031,-0.24 -0.047,-0.362c0.672,-0.191 1.257,-0.752 1.434,-1.613c0.559,-2.691 0.337,-5.554 -0.601,-8.147" style="fill:#35272f;fill-rule:nonzero;"/></g><g id="g488"><path id="path490" d="M233.923,41.017c1.388,4.207 2.467,8.521 3.245,12.889c-0.846,0.825 -1.751,1.592 -2.713,2.284c-1.111,0.701 -2.285,1.284 -3.514,1.741c-1.141,0.346 -2.308,0.579 -3.494,0.691c-0.938,0.024 -1.875,-0.036 -2.804,-0.181c-0.756,-0.187 -1.492,-0.431 -2.204,-0.742c-0.735,-0.398 -1.432,-0.863 -2.085,-1.384c-0.888,-0.825 -1.675,-1.745 -2.379,-2.732c-1.177,-1.85 -2.083,-3.855 -2.817,-5.922c-0.785,-2.432 -1.37,-4.934 -1.586,-7.484c-0.054,-1.421 0.022,-2.841 0.259,-4.243c0.226,-0.951 0.533,-1.874 0.931,-2.767c0.424,-0.798 0.916,-1.557 1.48,-2.266c0.522,-0.56 1.091,-1.072 1.704,-1.534c0.519,-0.312 1.058,-0.584 1.623,-0.81c0.537,-0.148 1.084,-0.252 1.638,-0.315c0.648,-0.007 1.293,0.043 1.936,0.143c0.796,0.197 1.568,0.468 2.322,0.802c0.888,0.475 1.728,1.034 2.516,1.668c0.967,0.893 1.822,1.898 2.587,2.972c1.427,2.24 2.478,4.685 3.355,7.19Zm4.564,23.795c0.106,2.008 0.153,4.018 0.134,6.028c-0.014,1.684 -0.094,3.367 -0.376,5.027c-0.183,0.787 -0.423,1.556 -0.739,2.301c-0.231,0.421 -0.493,0.822 -0.784,1.204c-0.264,0.269 -0.542,0.52 -0.839,0.752c-0.338,0.195 -0.687,0.365 -1.048,0.514c-0.499,0.134 -1.007,0.229 -1.522,0.285c-0.691,0.007 -1.379,-0.049 -2.063,-0.155c-0.799,-0.198 -1.58,-0.466 -2.334,-0.796c-0.723,-0.389 -1.41,-0.838 -2.053,-1.347c-0.841,-0.79 -1.59,-1.679 -2.264,-2.62c-1.292,-2.037 -2.248,-4.264 -3.045,-6.541c-0.455,-1.391 -0.865,-2.794 -1.265,-4.202c0.094,0.036 0.188,0.075 0.284,0.111c1.821,0.684 3.841,1.048 5.787,1.06c4.039,0.03 8.16,-1.059 11.575,-3.238c0.138,-0.088 0.275,-0.176 0.412,-0.267c0.051,0.628 0.098,1.256 0.14,1.884Zm-45.606,13.79c0.099,0.607 0.2,1.216 0.297,1.824c-2.234,-3.475 -4.349,-7.023 -6.286,-10.669c-2.627,-4.94 -4.957,-10.036 -7.097,-15.205c-1.109,-2.679 -2.113,-5.404 -3.05,-8.147c-0.595,-1.782 -1.155,-3.574 -1.687,-5.371c-0.278,-0.938 -0.548,-1.875 -0.815,-2.816c-0.217,-0.768 -0.536,-1.585 -0.705,-2.384c-0.023,-1.024 -0.371,-2.041 -0.627,-3.02c-0.258,-0.99 -0.524,-1.98 -0.771,-2.976c-0.445,-1.801 -0.817,-3.62 -0.976,-5.469c-0.038,-1.067 -0.007,-2.148 0.149,-3.205c0.067,-0.25 0.15,-0.494 0.244,-0.736c0.085,-0.143 0.176,-0.284 0.272,-0.419c0.072,-0.069 0.147,-0.136 0.223,-0.201c0.05,-0.025 0.1,-0.052 0.151,-0.075c0.085,-0.017 0.168,-0.032 0.253,-0.047c0.123,0.004 0.246,0.014 0.37,0.026c0.154,0.047 0.306,0.1 0.453,0.158c0.281,0.167 0.549,0.349 0.808,0.547c0.57,0.548 1.083,1.146 1.56,1.777c1.818,2.989 3.008,6.243 4.286,9.496c1.257,3.201 2.477,6.415 3.621,9.657c0.188,0.679 0.397,1.362 0.682,2.008c1.122,3.446 2.212,6.925 3.15,10.422c0.49,1.829 0.968,3.663 1.438,5.497c0.23,0.896 0.456,1.797 0.68,2.697c0.185,0.743 0.431,1.511 0.581,2.276c0.013,1.185 0.439,2.406 0.692,3.543c0.265,1.196 0.521,2.394 0.766,3.595c0.487,2.398 0.931,4.804 1.338,7.217Zm-34.063,14.702c-3.549,-7.114 -6.726,-14.409 -9.667,-21.793c-0.839,-2.101 -1.656,-4.21 -2.46,-6.323c-0.766,-2.016 -1.409,-4.124 -2.351,-6.063c-0.922,-2.859 -2.033,-5.654 -3.077,-8.47c-1.018,-2.744 -2.015,-5.496 -2.958,-8.266c-0.561,-1.683 -1.075,-3.372 -1.259,-5.14c-0.007,-0.58 0.028,-1.155 0.109,-1.728c0.059,-0.215 0.127,-0.427 0.207,-0.638c0.084,-0.139 0.174,-0.277 0.269,-0.409c0.078,-0.077 0.159,-0.147 0.242,-0.218c0.088,-0.046 0.177,-0.09 0.267,-0.132c0.187,-0.042 0.375,-0.08 0.567,-0.107c0.232,0.006 0.466,0.021 0.697,0.047c0.316,0.09 0.628,0.197 0.934,0.322c0.41,0.235 0.803,0.495 1.177,0.785c0.412,0.395 0.79,0.818 1.136,1.275c1.887,2.995 3.221,6.276 4.466,9.586c1.28,3.401 2.617,6.778 3.795,10.217c0.77,2.318 1.491,4.65 2.162,6.997c0.367,1.285 0.721,2.57 1.061,3.862c0.172,0.651 0.342,1.306 0.509,1.962c0.125,0.493 0.29,1 0.4,1.506c0.042,1.156 0.533,2.245 0.761,3.381c0.034,0.629 0.219,1.181 0.375,1.82c0.162,0.674 0.256,1.366 0.378,2.045c0.27,1.485 0.537,2.971 0.789,4.46c0.244,1.448 0.472,2.896 0.666,4.35c0.1,0.735 0.155,1.482 0.276,2.214c0.116,0.722 0.277,1.429 0.356,2.156c-0.021,-0.336 -0.04,-0.674 -0.061,-1.012c0.059,0.988 0.136,1.973 0.203,2.96c-0.022,-0.338 -0.043,-0.675 -0.062,-1.012c0.028,0.456 0.059,0.911 0.093,1.366Zm-27.7,16.317c-0.067,0.111 -0.138,0.219 -0.213,0.324c-0.074,0.072 -0.151,0.141 -0.231,0.207c-2.387,-3.732 -4.35,-7.745 -5.835,-11.919c-0.183,-0.568 -0.362,-1.135 -0.553,-1.699c-0.726,-2.428 -1.37,-4.882 -1.595,-7.409c-0.026,-0.852 0.008,-1.696 0.132,-2.539c0.111,-0.426 0.249,-0.842 0.417,-1.252c0.037,-0.061 0.077,-0.121 0.119,-0.179c0.095,-0.095 0.191,-0.188 0.291,-0.275c0.037,-0.018 0.075,-0.037 0.111,-0.055c0.055,-0.011 0.11,-0.024 0.164,-0.033c0.046,0.003 0.09,0.006 0.135,0.009c0.085,0.028 0.168,0.057 0.251,0.089c0.255,0.15 0.5,0.313 0.738,0.49c0.367,0.361 0.701,0.751 1.009,1.164c0.76,1.238 1.348,2.58 1.88,3.931c0.248,0.895 0.57,1.764 0.878,2.639c1.371,4.211 2.257,8.555 2.557,12.973c0.051,0.968 0.078,1.934 -0.046,2.89c-0.059,0.218 -0.128,0.433 -0.209,0.644Zm117.455,-86.722c-0.086,0.867 -0.181,1.733 -0.285,2.599c-0.255,2.092 -0.578,4.177 -0.978,6.245c-0.933,4.488 -2.265,8.899 -4.135,13.084c-0.723,-2.752 -1.568,-5.475 -2.551,-8.143c-0.76,-2.065 -1.661,-4.089 -2.818,-5.965c-1.196,-1.942 -2.548,-3.816 -4.27,-5.33c-0.859,-0.756 -1.727,-1.49 -2.695,-2.109c-0.97,-0.621 -2.019,-1.14 -3.078,-1.594c-1.79,-0.768 -3.808,-1.23 -5.756,-1.252c-2.32,-0.026 -4.589,0.423 -6.681,1.453c-2.178,1.073 -3.915,2.653 -5.45,4.503c-2.712,3.267 -4.033,7.668 -4.124,11.87c-0.099,4.528 0.961,8.902 2.491,13.131c0.636,1.759 1.402,3.476 2.363,5.082c0.722,1.211 1.512,2.431 2.27,3.599c0.305,0.468 2.195,2.471 2.866,2.156c-1.221,0.604 -2.383,1.015 -3.698,1.359c-0.212,0.055 -0.455,0.138 -0.528,0.345c-0.046,0.131 -0.01,0.274 0.026,0.409c0.511,1.846 1.05,3.645 1.397,5.532c0.422,2.274 0.823,4.554 1.144,6.848c0.549,3.936 1.151,7.971 1.435,11.909c0.233,3.208 0.406,6.958 -1.248,9.852c-0.161,0.28 -0.335,0.553 -0.526,0.813c-0.183,0.178 -0.375,0.344 -0.576,0.501c-0.233,0.133 -0.476,0.253 -0.723,0.363c-0.188,0.045 -0.379,0.082 -0.573,0.112c-0.334,-0.01 -0.669,-0.043 -1.003,-0.092c-0.429,-0.111 -0.851,-0.252 -1.262,-0.423c-0.449,-0.253 -0.885,-0.523 -1.347,-0.746c-0.392,-0.264 -0.78,-0.53 -1.162,-0.805c-0.395,-0.413 -0.846,-0.76 -1.302,-1.128c-0.972,-0.919 -1.801,-1.974 -2.659,-3.003c-0.139,-0.164 -0.279,-0.334 -0.414,-0.501c-0.174,-1.902 -0.374,-3.804 -0.607,-5.704c-0.642,-5.194 -1.426,-10.37 -2.409,-15.512c-0.284,-1.493 -0.587,-2.984 -0.902,-4.469c-0.162,-0.755 -0.328,-1.507 -0.497,-2.255c-0.123,-0.548 -0.289,-1.104 -0.403,-1.658c-0.022,-1.03 -0.369,-2.062 -0.611,-3.048c-0.229,-0.937 -0.467,-1.875 -0.705,-2.813c-0.506,-1.979 -1.022,-3.956 -1.552,-5.928c-1.075,-4.005 -2.351,-7.972 -3.681,-11.899c-1.32,-4.316 -3.019,-8.532 -4.674,-12.725c-1.559,-3.956 -3.002,-8.025 -5.79,-11.323c-1.343,-1.592 -2.958,-2.834 -4.862,-3.682c-2.221,-0.989 -4.746,-0.829 -6.974,0.022c-2.299,0.879 -3.899,2.975 -4.839,5.164c-0.784,1.825 -0.92,4.024 -0.859,5.992c0.07,2.34 0.396,4.619 0.935,6.893c0.235,0.995 0.494,1.98 0.754,2.968c0.216,0.828 0.51,1.685 0.674,2.536c0.027,1.203 0.518,2.428 0.839,3.566c0.33,1.164 0.669,2.326 1.016,3.486c0.786,2.625 1.64,5.231 2.552,7.816c1.659,4.688 3.536,9.281 5.607,13.806c4.238,9.264 9.421,18.019 15.309,26.329c1.345,1.9 2.737,3.765 4.179,5.593c0.129,1.504 0.237,3.009 0.328,4.518c-0.021,-0.337 -0.04,-0.675 -0.061,-1.011c0.142,2.338 0.283,4.676 0.426,7.012c0.209,3.685 0.195,7.376 0.17,11.063c-0.028,3.449 0.001,6.943 -0.579,10.352c-0.226,0.926 -0.489,1.833 -0.845,2.713c-0.266,0.463 -0.564,0.922 -0.885,1.355c-0.296,0.25 -0.591,0.498 -0.897,0.733c-0.225,0.129 -0.457,0.243 -0.699,0.345c-0.299,0.076 -0.603,0.133 -0.909,0.174c-0.434,-0.004 -0.866,-0.039 -1.298,-0.1c-0.642,-0.164 -1.265,-0.382 -1.874,-0.643c-0.306,-0.211 -0.628,-0.391 -0.984,-0.541c-0.164,-0.103 -0.336,-0.196 -0.517,-0.283c-0.889,-0.573 -1.74,-1.195 -2.557,-1.866c-2.583,-2.326 -4.739,-5.108 -6.888,-7.822c-2.257,-2.845 -4.406,-5.767 -6.469,-8.753c-1.062,-1.608 -2.098,-3.235 -3.107,-4.874c-0.006,-0.402 -0.012,-0.806 -0.02,-1.209c-0.119,-5.416 -0.479,-10.829 -1.076,-16.212c0.019,0.338 0.039,0.674 0.058,1.012c-0.058,-0.987 -0.134,-1.972 -0.2,-2.96c0.019,0.338 0.04,0.676 0.059,1.014c-0.1,-1.692 -0.409,-3.336 -0.625,-5.014c-0.189,-1.457 -0.41,-2.911 -0.649,-4.359c-0.235,-1.409 -0.484,-2.819 -0.74,-4.225c-0.131,-0.732 -0.267,-1.464 -0.395,-2.195c-0.084,-0.464 -0.26,-0.927 -0.374,-1.386c-0.021,-0.643 -0.17,-1.263 -0.326,-1.889c-0.123,-0.492 -0.319,-0.994 -0.434,-1.497c-0.032,-0.683 -0.215,-1.339 -0.384,-2.01c-0.185,-0.735 -0.371,-1.467 -0.565,-2.198c-0.377,-1.444 -0.773,-2.885 -1.183,-4.318c-0.887,-3.088 -1.864,-6.145 -2.904,-9.182c-0.956,-2.787 -2.046,-5.518 -3.081,-8.275c-1.032,-2.752 -2.043,-5.522 -3.356,-8.157c-0.786,-1.577 -1.684,-3.098 -2.701,-4.54c-0.782,-1.108 -1.793,-2.033 -2.86,-2.865c-2.346,-1.826 -5.318,-2.64 -8.258,-2.344c-3.546,0.354 -6.328,2.854 -7.617,6.081c-0.542,1.348 -0.742,2.965 -0.707,4.418c0.037,1.512 0.208,2.991 0.579,4.459c0.473,1.875 1.16,3.703 1.791,5.533c0.534,1.545 1.083,3.086 1.642,4.621c1.077,2.956 2.188,5.897 3.289,8.844c0.221,0.77 0.435,1.587 0.761,2.287c0.306,0.653 0.572,1.3 0.824,1.978c0.539,1.457 1.086,2.913 1.64,4.366c1.071,2.815 2.17,5.622 3.304,8.411c2.282,5.617 4.707,11.178 7.342,16.638c2.859,5.929 5.967,11.751 9.38,17.383c0,0.226 -0,0.45 -0,0.676c-0.018,3.329 0.047,6.76 -0.525,10.057c-0.211,0.906 -0.491,1.788 -0.849,2.649c-0.238,0.437 -0.5,0.858 -0.797,1.259c-0.361,0.365 -0.753,0.702 -1.164,1.013c-0.296,0.174 -0.601,0.328 -0.917,0.464c-0.634,0.168 -1.277,0.287 -1.929,0.356c-0.829,0.01 -1.65,-0.056 -2.468,-0.189c-1.254,-0.3 -2.463,-0.74 -3.634,-1.276c-2.017,-1.041 -3.956,-2.331 -5.707,-3.774c-0.494,-0.445 -0.997,-0.879 -1.501,-1.314c-0.884,-0.759 -1.734,-1.56 -2.556,-2.387c-0.741,-0.749 -1.22,-1.698 -2.083,-2.33c0.609,0.445 2.627,-4.602 2.749,-5.029c0.742,-2.612 0.788,-5.583 0.537,-8.268c-0.216,-2.294 -0.59,-4.569 -1.111,-6.812c-0.59,-2.541 -1.36,-5.05 -2.267,-7.497c-0.441,-1.649 -1.123,-3.272 -1.908,-4.786c-0.916,-1.766 -2.061,-3.361 -3.565,-4.66c-1.671,-1.443 -3.809,-2.522 -6.064,-2.482c-1.35,0.024 -2.666,0.266 -3.878,0.896c-1.056,0.547 -1.811,1.222 -2.546,2.058c-0.33,0.36 -0.672,0.712 -0.919,1.131c-0.315,0.53 -0.578,1.108 -0.822,1.671c-0.26,0.596 -0.439,1.217 -0.572,1.851c-0.4,1.904 -0.455,3.654 -0.321,5.595c0.225,3.249 1.125,6.441 2.193,9.504c-0.112,-0.332 -0.223,-0.661 -0.335,-0.993c1.446,4.321 3.071,8.473 5.331,12.44c0.94,1.651 1.957,3.257 3.044,4.817c1.335,2.622 2.489,5.331 3.463,8.112c1.754,5.327 2.833,10.856 3.22,16.452c0.142,2.046 0.3,4.336 -0.004,6.368c-0.273,1.837 -0.252,3.805 -0.914,5.58c-0.896,2.401 -2.98,3.847 -5.543,3.883c-0.638,0.009 -1.273,-0.029 -1.905,-0.123c-0.715,-0.184 -1.406,-0.44 -2.082,-0.742c-1.143,-0.606 -2.208,-1.336 -3.21,-2.159c-1.886,-1.712 -3.506,-3.69 -5.013,-5.739c-1.812,-2.461 -3.514,-5.007 -5.251,-7.521c-3.855,-5.577 -7.707,-11.151 -11.561,-16.727c-0.973,-1.408 -1.948,-2.818 -2.922,-4.227c1.54,-2.908 2.996,-5.86 4.421,-8.827c-2.005,-1.843 -3.894,-3.812 -5.734,-5.819c-0.29,0.354 -0.51,0.755 -0.664,1.2c-0.505,1.062 -1.015,2.124 -1.529,3.182c-0.494,1.009 -0.995,2.013 -1.504,3.016c-5.102,-7.383 -10.206,-14.766 -15.309,-22.149c-4.029,-5.828 -8.057,-11.657 -12.086,-17.485c-2.072,1.553 -4.216,3.013 -6.447,4.326c5.315,7.69 10.63,15.38 15.946,23.07c4.588,6.638 9.175,13.275 13.763,19.913c-1.69,2.924 -3.499,5.78 -5.48,8.521c-1.149,1.589 -2.355,3.136 -3.622,4.63c-2.102,2.397 -4.376,4.63 -6.83,6.651c-1.245,-1.784 -2.504,-3.557 -3.777,-5.319c-4.621,-6.398 -9.43,-12.66 -14.418,-18.772c-5.015,-6.145 -10.211,-12.14 -15.583,-17.975c-0.675,-0.732 -1.352,-1.462 -2.032,-2.189c-0.034,-0.036 -0.069,-0.072 -0.103,-0.105c-1.695,1.685 -3.433,3.329 -5.275,4.854c-0.166,0.137 -0.333,0.275 -0.502,0.412c0.015,0.015 0.028,0.031 0.042,0.047c5.622,6.018 11.061,12.209 16.302,18.563c5.24,6.353 10.285,12.87 15.124,19.534c1.29,1.777 2.564,3.562 3.824,5.361c-2.229,1.251 -4.555,2.324 -6.97,3.175c-2.714,0.87 -5.514,1.448 -8.357,1.673c-0.71,0.032 -1.42,0.042 -2.131,0.032c0.161,0.44 0.323,0.88 0.484,1.321c0.78,2.135 1.557,4.269 2.337,6.404c1.207,-0.082 2.411,-0.218 3.601,-0.407c2.579,-0.414 5.071,-1.143 7.532,-2.007c2.768,-0.972 5.412,-2.247 7.934,-3.736c8.121,12.148 15.587,24.733 22.338,37.697c1.824,3.504 3.594,7.036 5.314,10.591c2.411,-1.004 4.825,-2 7.243,-2.987c-3.373,-6.998 -6.946,-13.896 -10.722,-20.686c-3.853,-6.931 -7.913,-13.747 -12.171,-20.437c-1.832,-2.878 -3.7,-5.737 -5.602,-8.573c6.633,-5.24 11.958,-12.018 16.384,-19.207c4.662,6.744 9.325,13.491 13.987,20.237c2.291,3.312 4.5,6.739 7.218,9.727c2.768,3.044 6.249,5.828 10.266,6.982c3.661,1.055 7.589,0.683 11.05,-0.881c2.394,-1.082 4.347,-2.968 5.591,-5.275c2.71,-5.025 2.645,-11.231 2.346,-16.748c-0.178,-3.26 -0.585,-6.509 -1.206,-9.713c-0.088,-0.449 -0.179,-0.896 -0.275,-1.344c0.825,0.647 1.672,1.269 2.561,1.845c1.754,1.137 3.641,2.129 5.595,2.874c4.083,1.559 9.135,1.955 13.134,-0.086c2.372,-1.211 4.442,-3.193 5.644,-5.574c1.008,-2.002 1.628,-4.073 1.971,-6.263c0.774,1.072 1.563,2.137 2.366,3.187c1.986,2.604 4.024,5.172 6.193,7.626c1.174,1.329 2.459,2.528 3.814,3.672c0.59,0.503 1.202,0.979 1.837,1.429c0.574,0.402 1.158,0.729 1.764,1.04c-0.099,-0.087 -0.196,-0.172 -0.296,-0.258c0.119,0.104 0.242,0.199 0.366,0.293c0.171,0.087 0.345,0.174 0.523,0.259c-0.038,-0.031 -0.073,-0.061 -0.108,-0.092c0.049,0.039 0.1,0.076 0.148,0.113c0.07,0.033 0.136,0.066 0.204,0.097l-0.203,-0.095c0.018,0.011 0.034,0.023 0.053,0.036c-0.022,-0.009 -0.042,-0.019 -0.062,-0.029c-0.01,-0.01 -0.022,-0.019 -0.032,-0.03l-0.503,-0.243c0.172,0.123 0.355,0.239 0.558,0.339c0.103,0.05 0.197,0.094 0.288,0.135c1.136,0.747 2.509,1.231 3.801,1.517c1.753,0.387 3.441,0.544 5.23,0.248c2.022,-0.337 3.798,-1.301 5.372,-2.585c1.525,-1.245 2.708,-3.009 3.503,-4.807c1.286,-2.901 1.726,-6.255 1.835,-9.402c0.112,-3.203 0.142,-6.404 0.14,-9.608c-0.002,-3.326 -0.154,-6.637 -0.344,-9.953c0.429,0.288 0.863,0.556 1.33,0.769c1.744,1.106 3.73,1.772 5.784,1.992c2.659,0.281 5.112,-0.563 7.264,-2.07c3.333,-2.332 4.6,-6.463 4.866,-10.349c0.221,-1.057 0.164,-2.153 0.172,-3.234c0.011,-1.112 0.014,-2.222 0.006,-3.331c-0.009,-1.207 -0.029,-2.411 -0.067,-3.616c1.426,1.064 3.082,1.883 4.757,2.437c2.16,0.72 4.333,0.935 6.589,0.787c0.793,-0.054 1.578,-0.178 2.339,-0.414c1.066,-0.329 2.125,-0.689 3.068,-1.296c1.123,-0.724 2.035,-1.439 2.903,-2.444c0.677,-0.785 1.259,-1.576 1.72,-2.507c0.514,-1.039 0.969,-2.061 1.262,-3.186c0.295,-1.121 0.511,-2.273 0.652,-3.426c0.231,-1.876 0.241,-3.776 0.225,-5.663c-0.019,-2.421 -0.138,-4.841 -0.315,-7.256c-0.152,-2.076 -0.371,-4.15 -0.658,-6.212c0.666,-0.865 1.295,-1.757 1.876,-2.682c4.397,-7.008 6.764,-15.121 8.138,-23.217c0.199,-1.177 0.373,-2.354 0.525,-3.535c-2.542,-1.161 -5.025,-2.468 -7.419,-3.918" style="fill:#35272f;fill-rule:nonzero;"/></g></g></svg>